<?xml version="1.0" encoding="UTF-8" standalone="no"?>
<!DOCTYPE svg PUBLIC "-//W3C//DTD SVG 20010904//EN"
"http://www.w3.org/TR/2001/REC-SVG-20010904/DTD/svg10.dtd">
<!-- Created with Inkscape (http://www.inkscape.org/) -->
<svg
   width="10.000000cm"
   height="10.000000cm"
   id="svg2455"
   sodipodi:version="0.32"
   inkscape:version="0.40"
   sodipodi:docbase="/home/matt/projects/opencheesemap/icon"
   sodipodi:docname="mag_map.svg"
   inkscape:export-filename="/home/matt/projects/opencheesemap/icon/mag_map.png"
   inkscape:export-xdpi="130.04802"
   inkscape:export-ydpi="130.04802"
   xmlns="http://www.w3.org/2000/svg"
   xmlns:cc="http://web.resource.org/cc/"
   xmlns:inkscape="http://www.inkscape.org/namespaces/inkscape"
   xmlns:sodipodi="http://sodipodi.sourceforge.net/DTD/sodipodi-0.dtd"
   xmlns:rdf="http://www.w3.org/1999/02/22-rdf-syntax-ns#"
   xmlns:xml="http://www.w3.org/XML/1998/namespace"
   xmlns:dc="http://purl.org/dc/elements/1.1/"
   xmlns:xlink="http://www.w3.org/1999/xlink">
  <defs
     id="defs3">
    <linearGradient
       id="linearGradient2419">
      <stop
         style="stop-color:#000000;stop-opacity:0.50515461;"
         offset="0.0000000"
         id="stop2420" />
      <stop
         style="stop-color:#000000;stop-opacity:0.0000000;"
         offset="1.0000000"
         id="stop2421" />
    </linearGradient>
    <linearGradient
       inkscape:collect="always"
       xlink:href="#linearGradient2419"
       id="linearGradient2422"
       gradientTransform="scale(1.195930,0.836169)"
       x1="156.33753"
       y1="184.92068"
       x2="264.56920"
       y2="184.92068"
       gradientUnits="userSpaceOnUse" />
    <linearGradient
       id="linearGradient2411">
      <stop
         style="stop-color:#ffffff;stop-opacity:1.0000000;"
         offset="0.0000000"
         id="stop2412" />
      <stop
         style="stop-color:#ffffff;stop-opacity:0.0000000;"
         offset="1.0000000"
         id="stop2413" />
    </linearGradient>
    <radialGradient
       inkscape:collect="always"
       xlink:href="#linearGradient2411"
       id="radialGradient2415"
       cx="212.59842"
       cy="70.866119"
       fx="212.59842"
       fy="70.866119"
       r="35.433071"
       gradientUnits="userSpaceOnUse" />
    <linearGradient
       inkscape:collect="always"
       xlink:href="#linearGradient1767"
       id="linearGradient1779"
       gradientUnits="userSpaceOnUse"
       gradientTransform="scale(0.689104,1.451160)"
       x1="414.13153"
       y1="240.14357"
       x2="302.99097"
       y2="240.80186" />
    <linearGradient
       id="linearGradient1767">
      <stop
         style="stop-color:#3f3318;stop-opacity:1.0000000;"
         offset="0.0000000"
         id="stop1768" />
      <stop
         style="stop-color:#815f0e;stop-opacity:1.0000000;"
         offset="1.0000000"
         id="stop1769" />
    </linearGradient>
    <linearGradient
       inkscape:collect="always"
       xlink:href="#linearGradient1767"
       id="linearGradient1778"
       gradientUnits="userSpaceOnUse"
       gradientTransform="matrix(0.697599,2.286358e-18,4.823872e-18,1.471830,-3.876056e-17,-11.82638)"
       x1="299.37338"
       y1="252.27031"
       x2="411.72696"
       y2="252.27031" />
    <linearGradient
       id="linearGradient1754">
      <stop
         style="stop-color:#747474;stop-opacity:1.0000000;"
         offset="0.0000000"
         id="stop1755" />
      <stop
         style="stop-color:#bebebe;stop-opacity:1.0000000;"
         offset="0.50000000"
         id="stop1757" />
      <stop
         style="stop-color:#d5d5d5;stop-opacity:1.0000000;"
         offset="0.62500000"
         id="stop1759" />
      <stop
         style="stop-color:#818181;stop-opacity:1.0000000;"
         offset="0.75000000"
         id="stop1758" />
      <stop
         style="stop-color:#c3c3c3;stop-opacity:1.0000000;"
         offset="1.0000000"
         id="stop1756" />
    </linearGradient>
    <linearGradient
       inkscape:collect="always"
       xlink:href="#linearGradient1754"
       id="linearGradient1777"
       gradientUnits="userSpaceOnUse"
       gradientTransform="scale(1.000071,0.999929)"
       x1="150.49463"
       y1="42.808048"
       x2="345.53265"
       y2="242.17987" />
    <pattern
       patternUnits="userSpaceOnUse"
       width="28.945312"
       height="33.076172"
       patternTransform="translate(190.4901,70.84341)"
       id="pattern2568">
      <text
         xml:space="preserve"
         style="font-size:12.000000;font-style:normal;font-weight:normal;fill:#000000;fill-opacity:1.0000000;stroke:none;stroke-width:1.0000000pt;stroke-linecap:butt;stroke-linejoin:miter;stroke-opacity:1.0000000;font-family:Bitstream Vera Sans"
         x="189.69904"
         y="67.749657"
         id="text2569"
         transform="translate(-190.4901,-70.84341)"><tspan
           sodipodi:role="line"
           id="tspan2570"
           x="189.69904"
           y="67.749657"></tspan><tspan
           sodipodi:role="line"
           id="tspan2576"
           x="189.69904"
           y="79.749657">0010</tspan><tspan
           sodipodi:role="line"
           id="tspan2578"
           x="189.69904"
           y="91.749657">0100</tspan><tspan
           sodipodi:role="line"
           id="tspan2580"
           x="189.69904"
           y="103.74966">0111</tspan><tspan
           sodipodi:role="line"
           id="tspan2582"
           x="189.69904"
           y="115.74966"></tspan></text>
    </pattern>
    <pattern
       patternUnits="userSpaceOnUse"
       width="32.232422"
       height="37.876175"
       patternTransform="translate(183.7668,59.46841)"
       id="pattern2606">
      <text
         xml:space="preserve"
         style="font-size:12.000000;font-style:normal;font-weight:bold;fill:#000000;fill-opacity:1.0000000;stroke:none;stroke-width:1.0000000pt;stroke-linecap:butt;stroke-linejoin:miter;stroke-opacity:1.0000000;font-family:Bitstream Vera Sans;font-stretch:normal;font-variant:normal;text-anchor:middle;writing-mode:lr;"
         x="189.69904"
         y="67.749657"
         id="text2607"
         transform="translate(-173.5858,-58.84341)"
         sodipodi:linespacing="120%"><tspan
           x="189.69904"
           y="67.749657"
           sodipodi:role="line"
           id="tspan2608">0010</tspan><tspan
           x="189.69904"
           y="82.149657"
           sodipodi:role="line"
           id="tspan2610">0100</tspan><tspan
           x="189.69904"
           y="96.549658"
           sodipodi:role="line"
           id="tspan2612">0111</tspan></text>
    </pattern>
    <pattern
       patternUnits="userSpaceOnUse"
       width="32.232422"
       height="28.276169"
       patternTransform="translate(183.7668,59.46841)"
       id="pattern2623">
      <text
         xml:space="preserve"
         style="font-size:12.000000;font-style:normal;font-variant:normal;font-weight:bold;font-stretch:normal;fill:#000000;fill-opacity:1.0000000;stroke:none;stroke-width:1.0000000pt;stroke-linecap:butt;stroke-linejoin:miter;stroke-opacity:1.0000000;font-family:Bitstream Vera Sans;text-anchor:middle;writing-mode:lr;"
         x="189.69904"
         y="67.749657"
         id="text2624"
         transform="translate(-173.5858,-58.84341)"
         sodipodi:linespacing="80%"><tspan
           x="189.69904"
           y="67.749657"
           sodipodi:role="line"
           id="tspan2625">0010</tspan><tspan
           x="189.69904"
           y="77.349657"
           sodipodi:role="line"
           id="tspan2627">0100</tspan><tspan
           x="189.69904"
           y="86.949657"
           sodipodi:role="line"
           id="tspan2629">0111</tspan></text>
    </pattern>
    <pattern
       patternUnits="userSpaceOnUse"
       width="32.232422"
       height="25.876175"
       patternTransform="translate(183.7668,59.46841)"
       id="pattern2639">
      <text
         xml:space="preserve"
         style="font-size:12.000000;font-style:normal;font-variant:normal;font-weight:bold;font-stretch:normal;fill:#000000;fill-opacity:1.0000000;stroke:none;stroke-width:1.0000000pt;stroke-linecap:butt;stroke-linejoin:miter;stroke-opacity:1.0000000;font-family:Bitstream Vera Sans;text-anchor:middle;writing-mode:lr;"
         x="189.69904"
         y="67.749657"
         id="text2640"
         transform="translate(-173.5858,-58.84341)"
         sodipodi:linespacing="70%"><tspan
           x="189.69904"
           y="67.749657"
           sodipodi:role="line"
           id="tspan2641">0010</tspan><tspan
           x="189.69904"
           y="76.149656"
           sodipodi:role="line"
           id="tspan2643">0100</tspan><tspan
           x="189.69904"
           y="84.549656"
           sodipodi:role="line"
           id="tspan2645">0111</tspan></text>
    </pattern>
    <pattern
       patternUnits="userSpaceOnUse"
       width="96.697266"
       height="77.628510"
       patternTransform="translate(151.5402,41.65591)"
       id="pattern2692">
      <text
         xml:space="preserve"
         style="font-size:36.000000;font-style:normal;font-variant:normal;font-weight:bold;font-stretch:normal;fill:#000000;fill-opacity:1.0000000;stroke:none;stroke-width:1.0000000pt;stroke-linecap:butt;stroke-linejoin:miter;stroke-opacity:1.0000000;font-family:Bitstream Vera Sans;text-anchor:middle;writing-mode:lr;"
         x="189.69904"
         y="67.749657"
         id="text2693"
         transform="translate(-141.3592,-41.03091)"
         sodipodi:linespacing="70%"><tspan
           x="189.69904"
           y="67.749657"
           sodipodi:role="line"
           id="tspan2694">0010</tspan><tspan
           x="189.69904"
           y="92.949656"
           sodipodi:role="line"
           id="tspan2696">0100</tspan><tspan
           x="189.69904"
           y="118.14965"
           sodipodi:role="line"
           id="tspan2698">0111</tspan></text>
    </pattern>
  </defs>
  <sodipodi:namedview
     id="base"
     pagecolor="#ffffff"
     bordercolor="#666666"
     borderopacity="1.0"
     inkscape:pageopacity="0.0"
     inkscape:pageshadow="2"
     inkscape:zoom="1.8450279"
     inkscape:cx="239.76204"
     inkscape:cy="141.73228"
     inkscape:current-layer="layer5"
     showgrid="true"
     inkscape:grid-bbox="true"
     inkscape:grid-points="true"
     inkscape:window-width="1016"
     inkscape:window-height="698"
     inkscape:window-x="0"
     inkscape:window-y="0"
     showguides="true"
     inkscape:guide-bbox="true" />
  <metadata
     id="metadata4">
    <rdf:RDF
       id="RDF5">
      <cc:Work
         rdf:about=""
         id="Work6">
        <dc:format
           id="format7">image/svg+xml</dc:format>
        <dc:type
           id="type9"
           rdf:resource="http://purl.org/dc/dcmitype/StillImage" />
      </cc:Work>
    </rdf:RDF>
  </metadata>
  <g
     inkscape:groupmode="layer"
     id="layer4"
     inkscape:label="Map"
     style="display:block">
    <path
       style="fill:#ffffff;fill-opacity:1.0000000;fill-rule:evenodd;stroke:#000000;stroke-width:6.2500000;stroke-linecap:butt;stroke-linejoin:miter;stroke-miterlimit:4.0000000;stroke-opacity:1.0000000;"
       d="M 17.614910,18.292406 L 88.582677,35.433051 L 159.44882,17.716515 L 230.31496,35.433051 L 301.18110,17.716515 L 318.89764,88.582657 L 301.18110,159.44880 L 318.89764,230.31494 L 301.18110,301.18108 L 230.31496,318.89762 L 159.44882,301.18108 L 88.582677,318.89762 L 17.716535,301.18108 L 35.433071,230.31494 L 17.716535,159.44880 L 35.433071,88.582657 L 17.614910,18.292406 z "
       id="path2522"
       sodipodi:nodetypes="ccccccccccccccccc" />
    <path
       style="fill:#91d55d;fill-opacity:1.0000000;fill-rule:evenodd;stroke:none;stroke-width:1.0000000pt;stroke-linecap:butt;stroke-linejoin:miter;stroke-opacity:1.0000000;"
       d="M 194.88189,141.73226 C 194.88189,139.42878 194.88189,137.12529 194.88189,134.82181 C 194.88189,124.88451 193.12345,124.01573 183.60156,124.01573 C 168.88499,124.01573 186.23563,141.73226 168.01914,141.73226 C 153.19211,141.73226 180.78317,107.07050 113.14192,148.37174 C 99.587288,156.64810 107.06240,141.73226 115.17441,141.73226 C 127.46738,141.73226 127.44018,124.01573 115.85191,124.01573 C 112.00344,124.01573 124.01575,119.70037 124.01575,115.85191 C 124.01575,108.06121 152.92157,98.914494 134.82181,98.914494 C 127.53730,98.914494 124.01575,112.14706 124.01575,94.849515 C 124.01575,86.735407 140.57256,78.898609 124.01575,77.234605 C 121.90356,77.022325 124.01575,72.988949 124.01575,70.866122 C 124.01575,67.241513 109.51731,70.866122 113.14192,70.866122 C 123.08965,70.866122 124.01575,69.167545 124.01575,59.619695 C 124.01575,54.176222 94.883157,45.845075 113.14192,44.037275 C 159.26796,39.470336 125.73669,17.716515 159.44882,17.716515 C 170.78539,17.716515 141.73228,35.410694 141.73228,46.747261 C 141.73228,62.199905 159.44882,43.344502 159.44882,61.652185 C 159.44882,80.802288 186.71647,78.589598 205.28145,78.589598 C 207.72044,78.589598 210.15943,78.589598 212.59843,78.589598 C 217.79257,78.589598 212.59843,68.201318 212.59843,63.007178 C 212.59843,48.581219 258.71934,39.283702 254.73870,53.149586 C 252.90251,59.545614 237.40329,60.213758 230.31496,62.329681 C 217.59320,66.127229 270.26349,116.52940 239.83377,116.52940 C 224.51505,116.52940 234.37404,106.29919 220.18637,106.29919 C 212.18624,106.29919 248.03150,123.62098 248.03150,141.73226 C 248.03150,152.73034 223.34022,134.89556 212.59843,132.78932 C 208.07111,131.90161 206.50749,124.01573 201.89397,124.01573 C 179.80637,124.01573 212.59843,154.56515 212.59843,159.44880 C 212.59843,161.75228 217.20539,159.44880 219.50888,159.44880 C 224.74013,159.44880 194.88189,167.13135 194.88189,149.72673 C 194.88189,147.06191 194.88189,144.39709 194.88189,141.73226 z "
       id="path2682" />
    <path
       style="fill:#999999;fill-opacity:1.0000000;fill-rule:evenodd;stroke:none;stroke-width:0.25000000pt;stroke-linecap:butt;stroke-linejoin:miter;stroke-opacity:1.0000000;"
       d="M 106.36696,194.44151 L 114.49691,177.16533 L 113.81942,194.88187 L 124.01575,184.27906 L 141.73228,177.16533 L 132.11182,194.88187 L 141.73228,188.34404 L 150.40423,194.88187 L 159.44882,194.88187 L 148.37174,212.59841 L 141.73228,220.86387 L 132.78932,212.59841 L 124.01575,220.86387 L 124.01575,230.31494 L 106.29921,230.31494 L 124.01575,212.59841 L 106.29921,212.59841 L 99.591991,194.88187 L 106.36696,194.44151 z "
       id="path2680" />
    <path
       style="fill:none;fill-opacity:0.75000000;fill-rule:evenodd;stroke:#ff0000;stroke-width:2.5000000;stroke-linecap:butt;stroke-linejoin:miter;stroke-opacity:1.0000000;stroke-miterlimit:4.0000000;stroke-dasharray:none;"
       d="M 63.007178,31.842337 L 53.149606,53.149586 L 70.866142,61.652185 L 70.866142,88.582657 L 53.149606,113.14192 L 53.149606,130.75683 L 88.582677,150.40423 L 70.866142,167.34164 L 70.866142,177.16533 L 88.582677,194.88187 L 106.29921,177.16533 L 124.01575,194.88187 L 141.73228,237.12379 L 124.01575,283.46455 L 132.11182,283.46455 L 133.46682,307.58343"
       id="path2683" />
    <path
       style="fill:none;fill-opacity:0.75000000;fill-rule:evenodd;stroke:#243eb4;stroke-width:1.0000000pt;stroke-linecap:butt;stroke-linejoin:miter;stroke-opacity:1.0000000;"
       d="M 27.303113,194.88187 C 38.817654,195.35339 43.339928,219.42161 53.149606,223.57386 C 63.812267,228.08715 66.049566,230.31494 81.299584,230.31494 C 93.699199,230.31494 82.541881,219.50888 98.236998,219.50888 C 105.85290,219.50888 124.01575,206.60286 124.01575,194.88187 C 124.01575,191.65693 150.57192,198.33835 152.43672,202.57146 C 155.58682,209.72221 170.05163,207.62890 170.05163,219.50888 C 170.05163,234.50572 159.44882,227.22554 159.44882,237.12379 C 159.44882,250.12369 153.36150,248.03148 141.73228,248.03148 C 136.88951,248.03148 137.42397,258.07673 132.78932,259.48117 C 116.61859,264.38139 142.91088,266.92060 148.37174,272.35361 C 151.19480,275.16227 164.70480,276.15658 168.01914,276.41859 C 177.32113,277.15392 178.86646,274.05685 187.66654,272.35361 C 206.80252,268.64987 203.24896,257.90384 203.24896,241.18877 C 203.24896,231.65865 203.24896,222.12853 203.24896,212.59841 C 203.24896,210.07117 219.50920,230.31494 220.18637,230.31494 C 227.41395,230.31494 238.32819,221.04495 239.15628,212.59841 C 239.59179,208.15616 248.03150,207.03501 248.03150,202.57146 C 248.03150,202.11980 248.03150,201.66814 248.03150,201.21647 C 248.03150,185.12330 241.52235,159.44880 259.48117,159.44880 C 267.19863,159.44880 266.66864,141.73226 274.38610,141.73226 C 280.33034,141.73226 275.02262,129.32708 272.35361,124.01573 C 268.08495,115.52109 256.83967,106.29919 275.74109,106.29919 C 286.64496,106.29919 286.31103,88.582657 276.41859,88.582657 C 269.19196,88.582657 261.96533,88.582657 254.73870,88.582657 C 191.07954,88.582657 223.21833,70.866122 205.28145,70.866122 C 201.67439,70.866122 194.88189,59.448193 194.88189,53.149586 C 194.88189,45.879313 230.31496,65.660553 230.31496,35.433051 C 230.31496,35.433051 230.31496,35.433051 230.31496,35.433051"
       id="path2679"
       sodipodi:nodetypes="ccccccccccccccccccccccccccccc" />
    <g
       id="g2671">
      <path
         style="opacity:0.32926825;fill:none;fill-opacity:0.75000000;fill-rule:evenodd;stroke:#000000;stroke-width:1.2500000;stroke-linecap:butt;stroke-linejoin:miter;stroke-miterlimit:4.0000000;stroke-dasharray:10.000000 1.2500000;stroke-dashoffset:0.0000000;stroke-opacity:1.0000000;"
         d="M 35.907316,88.752046 L 106.29921,106.29919 L 177.16535,88.582657 L 248.03150,106.29919 L 318.89764,88.582657"
         id="path2523" />
      <path
         style="opacity:0.32926825;fill:none;fill-opacity:0.75000000;fill-rule:evenodd;stroke:#000000;stroke-width:1.2500000;stroke-linecap:butt;stroke-linejoin:miter;stroke-miterlimit:4.0000000;stroke-dasharray:10.000000 1.2500000;stroke-dashoffset:0.0000000;stroke-opacity:1.0000000;"
         d="M 87.397053,36.584813 L 106.29921,106.29919 L 88.582677,177.16533 L 106.29921,248.03148 L 88.582677,318.89762"
         id="path2524" />
      <path
         style="opacity:0.32926825;fill:none;fill-opacity:0.75000000;fill-rule:evenodd;stroke:#000000;stroke-width:1.2500000;stroke-linecap:butt;stroke-linejoin:miter;stroke-miterlimit:4.0000000;stroke-dasharray:10.000000 1.2500000;stroke-dashoffset:0.0000000;stroke-opacity:1.0000000;"
         d="M 158.10695,18.868282 L 177.00910,88.582659 L 159.29257,159.44880 L 177.00910,230.31495 L 159.29257,301.18109"
         id="path2525" />
      <path
         style="opacity:0.32926825;fill:none;fill-opacity:0.75000000;fill-rule:evenodd;stroke:#000000;stroke-width:1.2500000;stroke-linecap:butt;stroke-linejoin:miter;stroke-miterlimit:4.0000000;stroke-dasharray:10.000000 1.2500000;stroke-dashoffset:0.0000000;stroke-opacity:1.0000000;"
         d="M 229.12935,36.584816 L 248.03150,106.29919 L 230.31497,177.16533 L 248.03150,248.03148 L 230.31497,318.89762"
         id="path2526" />
      <path
         style="opacity:0.32926825;fill:none;fill-opacity:0.75000000;fill-rule:evenodd;stroke:#000000;stroke-width:1.2500000;stroke-linecap:butt;stroke-linejoin:miter;stroke-miterlimit:4.0000000;stroke-dasharray:10.000000 1.2500000;stroke-dashoffset:0.0000000;stroke-opacity:1.0000000;"
         d="M 17.716535,159.77444 L 88.108429,177.32158 L 158.97457,159.60505 L 229.84072,177.32158 L 300.70686,159.60505"
         id="path2527" />
      <path
         style="opacity:0.32926825;fill:none;fill-opacity:0.75000000;fill-rule:evenodd;stroke:#000000;stroke-width:1.2500000;stroke-linecap:butt;stroke-linejoin:miter;stroke-miterlimit:4.0000000;stroke-dasharray:10.000000 1.2500000;stroke-dashoffset:0.0000000;stroke-opacity:1.0000000;"
         d="M 35.433071,230.31494 L 105.82496,247.86208 L 176.69111,230.14555 L 247.55726,247.86208 L 318.42340,230.14555"
         id="path2528" />
      <path
         style="fill:none;fill-opacity:1.0000000;fill-rule:evenodd;stroke:#000000;stroke-width:6.2500000;stroke-linecap:butt;stroke-linejoin:miter;stroke-miterlimit:4.0000000;stroke-opacity:1.0000000;"
         d="M 17.614910,18.292406 L 88.582677,35.433051 L 159.44882,17.716515 L 230.31496,35.433051 L 301.18110,17.716515 L 318.89764,88.582657 L 301.18110,159.44880 L 318.89764,230.31494 L 301.18110,301.18108 L 230.31496,318.89762 L 159.44882,301.18108 L 88.582677,318.89762 L 17.716535,301.18108 L 35.433071,230.31494 L 17.716535,159.44880 L 35.433071,88.582657 L 17.614910,18.292406 z "
         id="path2670"
         sodipodi:nodetypes="ccccccccccccccccc" />
    </g>
  </g>
  <g
     inkscape:groupmode="layer"
     id="layer5"
     inkscape:label="Data"
     style="display:block"
     sodipodi:insensitive="1">
    <path
       sodipodi:type="arc"
       style="opacity:0.32926825;fill:none;fill-opacity:1.0000000;stroke:none;stroke-width:1.2500000;stroke-linecap:butt;stroke-linejoin:round;stroke-miterlimit:4.0000000;stroke-dasharray:10.000000 1.2500000 ;stroke-dashoffset:0.0000000;stroke-opacity:1.0000000"
       id="path2538"
       sodipodi:cx="224.91193"
       sodipodi:cy="118.61269"
       sodipodi:rx="100.89618"
       sodipodi:ry="100.89618"
       d="M 325.80811 118.61269 A 100.89618 100.89618 0 1 1  124.01575,118.61269 A 100.89618 100.89618 0 1 1  325.80811 118.61269 z"
       transform="translate(10.18107,0.625001)" />
    <path
       sodipodi:type="arc"
       style="opacity:0.35975608;fill:url(#pattern2692);fill-opacity:1.0000000;stroke:none;stroke-width:1.2500000;stroke-linecap:butt;stroke-linejoin:round;stroke-miterlimit:4.0000000;stroke-dasharray:10.000000 1.2500000;stroke-dashoffset:0.0000000;stroke-opacity:1.0000000;"
       id="path2615"
       sodipodi:cx="224.91193"
       sodipodi:cy="118.61269"
       sodipodi:rx="100.89618"
       sodipodi:ry="100.89618"
       d="M 325.80811 118.61269 A 100.89618 100.89618 0 1 1  124.01575,118.61269 A 100.89618 100.89618 0 1 1  325.80811 118.61269 z"
       transform="translate(10.80607,6.608137e-7)" />
    <rect
       style="fill:none;stroke:none"
       width="32.232422"
       height="37.876175"
       x="183.76682"
       y="59.468407"
       id="rect2614" />
    <rect
       style="fill:none;stroke:none"
       width="32.232422"
       height="28.276169"
       x="183.76675"
       y="59.468407"
       id="rect2631" />
    <rect
       style="opacity:0.35975608;fill:none;fill-opacity:1.0000000;stroke:none;stroke-width:2.5000000;stroke-linecap:butt;stroke-linejoin:round;stroke-miterlimit:4.0000000;stroke-dashoffset:0.0000000;stroke-opacity:1.0000000;"
       id="rect2684"
       width="74.524620"
       height="53.149605"
       x="379.39807"
       y="159.44879" />
  </g>
  <g
     inkscape:label="MagnifyingGlass"
     inkscape:groupmode="layer"
     id="layer1"
     sodipodi:insensitive="true"
     style="display:block">
    <g
       id="g2489"
       style="display:block">
      <g
         id="g1774"
         transform="matrix(0.707107,0.707107,-0.707107,0.707107,161.6029,-155.8874)">
        <path
           style="fill:url(#linearGradient1777);fill-opacity:1.0000000;stroke:#000000;stroke-width:6.2500000;stroke-linecap:butt;stroke-linejoin:miter;stroke-miterlimit:4.0000000;stroke-opacity:1.0000000"
           d="M 248.03125,35.437500 C 189.35409,35.437500 141.71875,83.041586 141.71875,141.71875 C 141.71875,194.34560 180.07689,237.97584 230.31250,246.43750 L 230.31250,283.46875 L 265.75000,283.46875 L 265.75000,246.43750 C 315.98562,237.97584 354.34377,194.34560 354.34375,141.71875 C 354.34375,83.041586 306.70841,35.437500 248.03125,35.437500 z M 248.03125,53.156250 C 296.92889,53.156250 336.62500,92.821111 336.62500,141.71875 C 336.62501,190.61639 296.92889,230.31250 248.03125,230.31250 C 199.13361,230.31251 159.43750,190.61639 159.43750,141.71875 C 159.43749,92.821111 199.13361,53.156250 248.03125,53.156250 z "
           id="path1736" />
        <rect
           style="fill:url(#linearGradient1778);fill-opacity:1.0000000;stroke:url(#linearGradient1779);stroke-width:7.6123056;stroke-linecap:butt;stroke-linejoin:round;stroke-miterlimit:4.0000000;stroke-opacity:1.0000000"
           id="rect1762"
           width="70.866142"
           height="157.65280"
           x="212.59842"
           y="280.64615"
           rx="20.000000"
           ry="20.000000" />
      </g>
      <path
         sodipodi:type="arc"
         style="fill:url(#radialGradient2415);fill-opacity:1.0000000;stroke:none;stroke-width:6.2500000;stroke-linecap:butt;stroke-linejoin:round;stroke-miterlimit:4.0000000;stroke-opacity:1.0000000"
         id="path2410"
         sodipodi:cx="212.59842"
         sodipodi:cy="70.866119"
         sodipodi:rx="35.433071"
         sodipodi:ry="35.433071"
         d="M 248.03149 70.866119 A 35.433071 35.433071 0 1 1  177.16535,70.866119 A 35.433071 35.433071 0 1 1  248.03149 70.866119 z"
         transform="matrix(0.933079,0.000000,0.000000,0.933079,15.92121,6.436221)" />
      <path
         style="fill:url(#linearGradient2422);fill-opacity:1.0000000;stroke:none;stroke-width:6.2500000;stroke-linecap:butt;stroke-linejoin:round;stroke-miterlimit:4.0000000;stroke-opacity:1.0000000"
         d="M 315.06250,109.37500 C 299.69703,151.44950 259.43408,181.56250 212.06250,181.56250 C 203.41775,181.56250 195.03901,180.45504 186.96875,178.56250 C 200.72010,191.72641 219.31873,199.87500 239.84375,199.87500 C 282.10327,199.87500 316.40626,165.57202 316.40625,123.31250 C 316.40625,118.55128 315.89556,113.89642 315.06250,109.37500 z "
         id="path2416" />
    </g>
  </g>
</svg>
