<?xml version="1.0" encoding="UTF-8" standalone="no"?>
<!-- Created with Inkscape (http://www.inkscape.org/) -->

<svg
   xmlns:dc="http://purl.org/dc/elements/1.1/"
   xmlns:cc="http://creativecommons.org/ns#"
   xmlns:rdf="http://www.w3.org/1999/02/22-rdf-syntax-ns#"
   xmlns:svg="http://www.w3.org/2000/svg"
   xmlns="http://www.w3.org/2000/svg"
   xmlns:xlink="http://www.w3.org/1999/xlink"
   xmlns:sodipodi="http://sodipodi.sourceforge.net/DTD/sodipodi-0.dtd"
   xmlns:inkscape="http://www.inkscape.org/namespaces/inkscape"
   width="325.98425"
   height="442.91336"
   id="svg2"
   sodipodi:version="0.32"
   inkscape:version="0.48.2 r9819"
   version="1.0"
   sodipodi:docname="osmflyer1.svg"
   inkscape:output_extension="org.inkscape.output.svg.inkscape"
   style="display:inline">
  <defs
     id="defs4">
    <inkscape:perspective
       sodipodi:type="inkscape:persp3d"
       inkscape:vp_x="0 : 221.45668 : 1"
       inkscape:vp_y="0 : 1000 : 0"
       inkscape:vp_z="1119.6851 : 221.45668 : 1"
       inkscape:persp3d-origin="559.84253 : 147.63779 : 1"
       id="perspective398" />
    <linearGradient
       y2="-213.25346"
       x2="9"
       y1="72.064125"
       x1="210.17188"
       gradientTransform="matrix(1,-0.08087767,0,1,0,203.05629)"
       gradientUnits="userSpaceOnUse"
       id="linearGradient8754-9"
       xlink:href="#linearGradient4680-2-3"
       inkscape:collect="always" />
    <clipPath
       id="clipPath8750-6"
       clipPathUnits="userSpaceOnUse">
      <path
         sodipodi:nodetypes="cscscscscscscscscscscscscscscscsc"
         style="opacity:0.03913042;fill:url(#linearGradient8754-9);fill-opacity:1;stroke:none"
         d="m 9,22.578406 c 0,0 7.5,12.393417 11.75,26.799687 C 25,63.784363 27,74.372608 27,74.372608 c 0,0 -5.5,13.194827 -8.25,25.417241 C 16,112.01226 13,123.2549 13,123.2549 c 0,0 5.75,15.53495 9.25,29.25188 3.5,13.71692 3.75,23.94671 3.75,23.94671 0,0 -4,10.57351 -7.5,24.85658 -3.5,14.28307 -5,31.15439 -5,31.15439 0,0 9.25,-2.74812 28.5,-1.05502 19.25,1.69311 32.25,3.3917 32.25,3.3917 0,0 12.75,-3.78119 24,-8.19107 11.25,-4.40987 16.25,-7.81426 16.25,-7.81426 0,0 5.5,0.0552 22.5,4.43025 17,4.37508 29.25,6.13433 29.25,6.13433 0,0 13,-3.80141 26,-7.85282 13,-4.05141 26.5,-10.14326 26.5,-10.14326 0,0 -0.75,-4.93934 4.25,-24.84373 5,-19.90438 8.75,-28.70768 8.75,-28.70768 0,0 -0.5145,-4.4553 -3.75,-19.4467 -1.75,-8.10847 -2.25,-4.06803 -2.25,-4.06803 0,0 16.264,-26.15535 16.5,-40.334481 C 242.5,78.94347 235,57.550053 235,57.550053 c 0,0 -4.75,-14.865832 -7.5,-29.143418 -2.75,-14.277586 -8.25,-25.0827591 -8.25,-25.0827591 0,0 -24.25,10.9612831 -31.75,13.0678661 -7.5,2.106582 -21,6.948431 -21,6.948431 0,0 -9.75,-3.461443 -22,-6.720691 -12.25,-3.259249 -29.75,-3.09389 -29.75,-3.09389 0,0 -3.25,3.762853 -22,9.779309 -18.75,6.016456 -27.5,7.974136 -27.5,7.974136 0,0 -18.5,-7.503763 -31.5,-8.952353 -13,-1.448591 -24,-0.05894 -24.75,0.251722 z"
         id="path8752-0"
         inkscape:connector-curvature="0" />
    </clipPath>
    <radialGradient
       r="47"
       fy="86"
       fx="128"
       cy="86"
       cx="128"
       gradientTransform="matrix(0.80254238,0.77986154,0.80254238,-0.82522321,-10.401684,73.423363)"
       gradientUnits="userSpaceOnUse"
       id="radialGradient8621-6"
       xlink:href="#linearGradient5745-3-1-5"
       inkscape:collect="always" />
    <clipPath
       id="clipPath8617-1"
       clipPathUnits="userSpaceOnUse">
      <path
         sodipodi:nodetypes="csssc"
         id="path8619-6"
         d="m 123.62289,141.06193 c 20.83191,20.24317 54.6071,19.28863 75.439,-2.132 20.8319,-21.42064 20.8319,-55.195816 0,-75.438984 -20.83191,-20.243167 -54.60709,-19.288643 -75.439,2.131999 -20.83189,21.42063 -20.8319,55.195815 0,75.438985 z"
         style="fill:url(#radialGradient8621-6);fill-opacity:1;stroke:none"
         inkscape:connector-curvature="0" />
    </clipPath>
    <linearGradient
       id="linearGradient5745-3-1-5">
      <stop
         id="stop5747-3-73-4"
         offset="0"
         style="stop-color:#d0e9f2;stop-opacity:0;" />
      <stop
         style="stop-color:#d0e9f2;stop-opacity:0;"
         offset="0.83932751"
         id="stop5753-6-08-2" />
      <stop
         id="stop5755-9-5-1"
         offset="0.94308507"
         style="stop-color:#d0e9f2;stop-opacity:0.28185329;" />
      <stop
         id="stop5749-0-4-2"
         offset="1"
         style="stop-color:#d0e9f2;stop-opacity:1;" />
    </linearGradient>
    <linearGradient
       id="linearGradient4680-7-3-6-8">
      <stop
         id="stop4682-2-2-7-3"
         offset="0"
         style="stop-color:#000000;stop-opacity:1;" />
      <stop
         id="stop4684-7-2-7-3"
         offset="1"
         style="stop-color:#000000;stop-opacity:0;" />
    </linearGradient>
    <linearGradient
       id="linearGradient4744-9-7-8-1"
       inkscape:collect="always">
      <stop
         id="stop4746-3-0-1-2"
         offset="0"
         style="stop-color:#ffffff;stop-opacity:1;" />
      <stop
         id="stop4748-8-4-0-6"
         offset="1"
         style="stop-color:#ffffff;stop-opacity:0;" />
    </linearGradient>
    <linearGradient
       id="linearGradient4680-22-2-6">
      <stop
         id="stop4682-27-3-9"
         offset="0"
         style="stop-color:#000000;stop-opacity:1;" />
      <stop
         id="stop4684-36-5-8"
         offset="1"
         style="stop-color:#000000;stop-opacity:0;" />
    </linearGradient>
    <clipPath
       id="clipPath5426-1-6-9"
       clipPathUnits="userSpaceOnUse">
      <path
         id="path5428-0-9-4"
         d="m 9,12.25 c 0,0 7.5,13 11.75,27.75 C 25,54.75 27,65.5 27,65.5 c 0,0 -5.5,12.75 -8.25,24.75 -2.75,12 -5.75,23 -5.75,23 0,0 5.75,16 9.25,30 3.5,14 3.75,24.25 3.75,24.25 0,0 -4,10.25 -7.5,24.25 -3.5,14 -5,30.75 -5,30.75 0,0 9.25,-2 28.5,1.25 19.25,3.25 32.25,6 32.25,6 0,0 12.75,-2.75 24,-6.25 11.25,-3.5 16.25,-6.5 16.25,-6.5 0,0 5.5,0.5 22.5,6.25 17,5.75 29.25,8.5 29.25,8.5 0,0 13,-2.75 26,-5.75 13,-3 26.5,-8 26.5,-8 0,0 -0.75,-5 4.25,-24.5 5,-19.5 8.75,-28 8.75,-28 0,0 -0.5,-4.5 -3.75,-19.75 C 224.75,130.5 218,116 218,116 c 0,0 1.75,-10.5 6.75,-23.75 C 229.75,79 235,65.5 235,65.5 c 0,0 -4.75,-15.25 -7.5,-29.75 C 224.75,21.25 219.25,10 219.25,10 c 0,0 -24.25,9 -31.75,10.5 -7.5,1.5 -21,5.25 -21,5.25 0,0 -9.75,-4.25 -22,-8.5 -12.25,-4.25 -29.75,-5.5 -29.75,-5.5 0,0 -3.25,3.5 -22,8 -18.75,4.5 -27.5,5.75 -27.5,5.75 0,0 -18.5,-9 -31.5,-11.5 -13,-2.5 -24,-2 -24.75,-1.75 z"
         style="fill:#ceeeab;fill-opacity:1;stroke:none"
         inkscape:connector-curvature="0" />
    </clipPath>
    <clipPath
       id="clipPath5383-0-0-2"
       clipPathUnits="userSpaceOnUse">
      <path
         id="path5385-7-8-3"
         d="m 9,12.25 c 0,0 7.5,13 11.75,27.75 C 25,54.75 27,65.5 27,65.5 c 0,0 -5.5,12.75 -8.25,24.75 -2.75,12 -5.75,23 -5.75,23 0,0 5.75,16 9.25,30 3.5,14 3.75,24.25 3.75,24.25 0,0 -4,10.25 -7.5,24.25 -3.5,14 -5,30.75 -5,30.75 0,0 9.25,-2 28.5,1.25 19.25,3.25 32.25,6 32.25,6 0,0 12.75,-2.75 24,-6.25 11.25,-3.5 16.25,-6.5 16.25,-6.5 0,0 5.5,0.5 22.5,6.25 17,5.75 29.25,8.5 29.25,8.5 0,0 13,-2.75 26,-5.75 13,-3 26.5,-8 26.5,-8 0,0 -0.75,-5 4.25,-24.5 5,-19.5 8.75,-28 8.75,-28 0,0 -0.5,-4.5 -3.75,-19.75 C 224.75,130.5 218,116 218,116 c 0,0 1.75,-10.5 6.75,-23.75 C 229.75,79 235,65.5 235,65.5 c 0,0 -4.75,-15.25 -7.5,-29.75 C 224.75,21.25 219.25,10 219.25,10 c 0,0 -24.25,9 -31.75,10.5 -7.5,1.5 -21,5.25 -21,5.25 0,0 -9.75,-4.25 -22,-8.5 -12.25,-4.25 -29.75,-5.5 -29.75,-5.5 0,0 -3.25,3.5 -22,8 -18.75,4.5 -27.5,5.75 -27.5,5.75 0,0 -18.5,-9 -31.5,-11.5 -13,-2.5 -24,-2 -24.75,-1.75 z"
         style="fill:#ceeeab;fill-opacity:1;stroke:none"
         inkscape:connector-curvature="0" />
    </clipPath>
    <clipPath
       id="clipPath5466-2-3-4"
       clipPathUnits="userSpaceOnUse">
      <path
         id="path5468-3-2-6"
         d="m 9,12.25 c 0,0 7.5,13 11.75,27.75 C 25,54.75 27,65.5 27,65.5 c 0,0 -5.5,12.75 -8.25,24.75 -2.75,12 -5.75,23 -5.75,23 0,0 5.75,16 9.25,30 3.5,14 3.75,24.25 3.75,24.25 0,0 -4,10.25 -7.5,24.25 -3.5,14 -5,30.75 -5,30.75 0,0 9.25,-2 28.5,1.25 19.25,3.25 32.25,6 32.25,6 0,0 12.75,-2.75 24,-6.25 11.25,-3.5 16.25,-6.5 16.25,-6.5 0,0 5.5,0.5 22.5,6.25 17,5.75 29.25,8.5 29.25,8.5 0,0 13,-2.75 26,-5.75 13,-3 26.5,-8 26.5,-8 0,0 -0.75,-5 4.25,-24.5 5,-19.5 8.75,-28 8.75,-28 0,0 -0.5,-4.5 -3.75,-19.75 C 224.75,130.5 218,116 218,116 c 0,0 1.75,-10.5 6.75,-23.75 C 229.75,79 235,65.5 235,65.5 c 0,0 -4.75,-15.25 -7.5,-29.75 C 224.75,21.25 219.25,10 219.25,10 c 0,0 -24.25,9 -31.75,10.5 -7.5,1.5 -21,5.25 -21,5.25 0,0 -9.75,-4.25 -22,-8.5 -12.25,-4.25 -29.75,-5.5 -29.75,-5.5 0,0 -3.25,3.5 -22,8 -18.75,4.5 -27.5,5.75 -27.5,5.75 0,0 -18.5,-9 -31.5,-11.5 -13,-2.5 -24,-2 -24.75,-1.75 z"
         style="fill:#ceeeab;fill-opacity:1;stroke:none"
         inkscape:connector-curvature="0" />
    </clipPath>
    <linearGradient
       id="linearGradient4680-2-3">
      <stop
         id="stop4682-9-7"
         offset="0"
         style="stop-color:#000000;stop-opacity:1;" />
      <stop
         id="stop4684-38-6"
         offset="1"
         style="stop-color:#000000;stop-opacity:0;" />
    </linearGradient>
    <linearGradient
       id="linearGradient6589-6-2">
      <stop
         id="stop6591-6-3"
         offset="0"
         style="stop-color:#ffffff;stop-opacity:1;" />
      <stop
         id="stop6593-1-7"
         offset="1"
         style="stop-color:#ffffff;stop-opacity:0;" />
    </linearGradient>
    <linearGradient
       id="linearGradient4744-9-9-14"
       inkscape:collect="always">
      <stop
         id="stop4746-3-8-5"
         offset="0"
         style="stop-color:#ffffff;stop-opacity:1;" />
      <stop
         id="stop4748-8-3-1"
         offset="1"
         style="stop-color:#ffffff;stop-opacity:0;" />
    </linearGradient>
    <linearGradient
       id="linearGradient5862-1-55-6">
      <stop
         id="stop5864-0-0-3"
         offset="0"
         style="stop-color:#f9e295;stop-opacity:1;" />
      <stop
         style="stop-color:#f7dd84;stop-opacity:1;"
         offset="0.125"
         id="stop5876-0-12-3" />
      <stop
         style="stop-color:#ffffff;stop-opacity:1;"
         offset="0.20580582"
         id="stop5874-6-6-5" />
      <stop
         style="stop-color:#f4ce51;stop-opacity:1;"
         offset="0.30112621"
         id="stop5870-4-4-2" />
      <stop
         id="stop5872-4-85-51"
         offset="0.3412039"
         style="stop-color:#f9e7aa;stop-opacity:1;" />
      <stop
         id="stop5866-3-62-5"
         offset="1"
         style="stop-color:#efbb0e;stop-opacity:1;" />
    </linearGradient>
    <linearGradient
       id="linearGradient5762-9-4-0">
      <stop
         id="stop5764-6-1-8"
         offset="0"
         style="stop-color:#2d3335;stop-opacity:1;" />
      <stop
         style="stop-color:#4c464a;stop-opacity:1;"
         offset="0.5"
         id="stop5770-3-6-2" />
      <stop
         id="stop5766-6-3-0"
         offset="1"
         style="stop-color:#384042;stop-opacity:1;" />
    </linearGradient>
    <linearGradient
       id="linearGradient5862-3-7">
      <stop
         id="stop5864-8-3"
         offset="0"
         style="stop-color:#f9e295;stop-opacity:1;" />
      <stop
         style="stop-color:#f7dd84;stop-opacity:1;"
         offset="0.125"
         id="stop5876-09-6" />
      <stop
         style="stop-color:#ffffff;stop-opacity:1;"
         offset="0.20580582"
         id="stop5874-2-0" />
      <stop
         style="stop-color:#f4ce51;stop-opacity:1;"
         offset="0.30112621"
         id="stop5870-3-8" />
      <stop
         id="stop5872-1-96"
         offset="0.3412039"
         style="stop-color:#f9e7aa;stop-opacity:1;" />
      <stop
         id="stop5866-8-3"
         offset="1"
         style="stop-color:#efbb0e;stop-opacity:1;" />
    </linearGradient>
    <linearGradient
       id="linearGradient5762-8-1">
      <stop
         id="stop5764-5-1"
         offset="0"
         style="stop-color:#2d3335;stop-opacity:1;" />
      <stop
         style="stop-color:#4c464a;stop-opacity:1;"
         offset="0.5"
         id="stop5770-1-3" />
      <stop
         id="stop5766-2-8"
         offset="1"
         style="stop-color:#384042;stop-opacity:1;" />
    </linearGradient>
    <linearGradient
       id="linearGradient5745-3-7">
      <stop
         id="stop5747-3-06"
         offset="0"
         style="stop-color:#d0e9f2;stop-opacity:0;" />
      <stop
         style="stop-color:#d0e9f2;stop-opacity:0;"
         offset="0.83932751"
         id="stop5753-6-3" />
      <stop
         id="stop5755-9-53"
         offset="0.94308507"
         style="stop-color:#d0e9f2;stop-opacity:0.28185329;" />
      <stop
         id="stop5749-0-7"
         offset="1"
         style="stop-color:#d0e9f2;stop-opacity:1;" />
    </linearGradient>
    <clipPath
       id="clipPath5466-9"
       clipPathUnits="userSpaceOnUse">
      <path
         id="path5468-1"
         d="m 9,12.25 c 0,0 7.5,13 11.75,27.75 C 25,54.75 27,65.5 27,65.5 c 0,0 -5.5,12.75 -8.25,24.75 -2.75,12 -5.75,23 -5.75,23 0,0 5.75,16 9.25,30 3.5,14 3.75,24.25 3.75,24.25 0,0 -4,10.25 -7.5,24.25 -3.5,14 -5,30.75 -5,30.75 0,0 9.25,-2 28.5,1.25 19.25,3.25 32.25,6 32.25,6 0,0 12.75,-2.75 24,-6.25 11.25,-3.5 16.25,-6.5 16.25,-6.5 0,0 5.5,0.5 22.5,6.25 17,5.75 29.25,8.5 29.25,8.5 0,0 13,-2.75 26,-5.75 13,-3 26.5,-8 26.5,-8 0,0 -0.75,-5 4.25,-24.5 5,-19.5 8.75,-28 8.75,-28 0,0 -0.5,-4.5 -3.75,-19.75 C 224.75,130.5 218,116 218,116 c 0,0 1.75,-10.5 6.75,-23.75 C 229.75,79 235,65.5 235,65.5 c 0,0 -4.75,-15.25 -7.5,-29.75 C 224.75,21.25 219.25,10 219.25,10 c 0,0 -24.25,9 -31.75,10.5 -7.5,1.5 -21,5.25 -21,5.25 0,0 -9.75,-4.25 -22,-8.5 -12.25,-4.25 -29.75,-5.5 -29.75,-5.5 0,0 -3.25,3.5 -22,8 -18.75,4.5 -27.5,5.75 -27.5,5.75 0,0 -18.5,-9 -31.5,-11.5 -13,-2.5 -24,-2 -24.75,-1.75 z"
         style="fill:#ceeeab;fill-opacity:1;stroke:none"
         inkscape:connector-curvature="0" />
    </clipPath>
    <clipPath
       id="clipPath5426-0"
       clipPathUnits="userSpaceOnUse">
      <path
         id="path5428-07"
         d="m 9,12.25 c 0,0 7.5,13 11.75,27.75 C 25,54.75 27,65.5 27,65.5 c 0,0 -5.5,12.75 -8.25,24.75 -2.75,12 -5.75,23 -5.75,23 0,0 5.75,16 9.25,30 3.5,14 3.75,24.25 3.75,24.25 0,0 -4,10.25 -7.5,24.25 -3.5,14 -5,30.75 -5,30.75 0,0 9.25,-2 28.5,1.25 19.25,3.25 32.25,6 32.25,6 0,0 12.75,-2.75 24,-6.25 11.25,-3.5 16.25,-6.5 16.25,-6.5 0,0 5.5,0.5 22.5,6.25 17,5.75 29.25,8.5 29.25,8.5 0,0 13,-2.75 26,-5.75 13,-3 26.5,-8 26.5,-8 0,0 -0.75,-5 4.25,-24.5 5,-19.5 8.75,-28 8.75,-28 0,0 -0.5,-4.5 -3.75,-19.75 C 224.75,130.5 218,116 218,116 c 0,0 1.75,-10.5 6.75,-23.75 C 229.75,79 235,65.5 235,65.5 c 0,0 -4.75,-15.25 -7.5,-29.75 C 224.75,21.25 219.25,10 219.25,10 c 0,0 -24.25,9 -31.75,10.5 -7.5,1.5 -21,5.25 -21,5.25 0,0 -9.75,-4.25 -22,-8.5 -12.25,-4.25 -29.75,-5.5 -29.75,-5.5 0,0 -3.25,3.5 -22,8 -18.75,4.5 -27.5,5.75 -27.5,5.75 0,0 -18.5,-9 -31.5,-11.5 -13,-2.5 -24,-2 -24.75,-1.75 z"
         style="fill:#ceeeab;fill-opacity:1;stroke:none"
         inkscape:connector-curvature="0" />
    </clipPath>
    <clipPath
       id="clipPath5383-4"
       clipPathUnits="userSpaceOnUse">
      <path
         id="path5385-0"
         d="m 9,12.25 c 0,0 7.5,13 11.75,27.75 C 25,54.75 27,65.5 27,65.5 c 0,0 -5.5,12.75 -8.25,24.75 -2.75,12 -5.75,23 -5.75,23 0,0 5.75,16 9.25,30 3.5,14 3.75,24.25 3.75,24.25 0,0 -4,10.25 -7.5,24.25 -3.5,14 -5,30.75 -5,30.75 0,0 9.25,-2 28.5,1.25 19.25,3.25 32.25,6 32.25,6 0,0 12.75,-2.75 24,-6.25 11.25,-3.5 16.25,-6.5 16.25,-6.5 0,0 5.5,0.5 22.5,6.25 17,5.75 29.25,8.5 29.25,8.5 0,0 13,-2.75 26,-5.75 13,-3 26.5,-8 26.5,-8 0,0 -0.75,-5 4.25,-24.5 5,-19.5 8.75,-28 8.75,-28 0,0 -0.5,-4.5 -3.75,-19.75 C 224.75,130.5 218,116 218,116 c 0,0 1.75,-10.5 6.75,-23.75 C 229.75,79 235,65.5 235,65.5 c 0,0 -4.75,-15.25 -7.5,-29.75 C 224.75,21.25 219.25,10 219.25,10 c 0,0 -24.25,9 -31.75,10.5 -7.5,1.5 -21,5.25 -21,5.25 0,0 -9.75,-4.25 -22,-8.5 -12.25,-4.25 -29.75,-5.5 -29.75,-5.5 0,0 -3.25,3.5 -22,8 -18.75,4.5 -27.5,5.75 -27.5,5.75 0,0 -18.5,-9 -31.5,-11.5 -13,-2.5 -24,-2 -24.75,-1.75 z"
         style="fill:#ceeeab;fill-opacity:1;stroke:none"
         inkscape:connector-curvature="0" />
    </clipPath>
    <linearGradient
       id="linearGradient4744-9-7"
       inkscape:collect="always">
      <stop
         id="stop4746-3-15"
         offset="0"
         style="stop-color:#ffffff;stop-opacity:1;" />
      <stop
         id="stop4748-8-0"
         offset="1"
         style="stop-color:#ffffff;stop-opacity:0;" />
    </linearGradient>
    <linearGradient
       id="linearGradient4680-7-4">
      <stop
         id="stop4682-2-8"
         offset="0"
         style="stop-color:#000000;stop-opacity:1;" />
      <stop
         id="stop4684-7-7"
         offset="1"
         style="stop-color:#000000;stop-opacity:0;" />
    </linearGradient>
    <linearGradient
       id="linearGradient4680-5">
      <stop
         id="stop4682-38"
         offset="0"
         style="stop-color:#000000;stop-opacity:1;" />
      <stop
         id="stop4684-77"
         offset="1"
         style="stop-color:#000000;stop-opacity:0;" />
    </linearGradient>
    <linearGradient
       id="linearGradient6589-9"
       inkscape:collect="always">
      <stop
         id="stop6591-2"
         offset="0"
         style="stop-color:#ffffff;stop-opacity:1;" />
      <stop
         id="stop6593-68"
         offset="1"
         style="stop-color:#ffffff;stop-opacity:0;" />
    </linearGradient>
    <linearGradient
       id="linearGradient6846-3">
      <stop
         style="stop-color:#ffffff;stop-opacity:1;"
         offset="0"
         id="stop6848-5" />
      <stop
         id="stop6852-3"
         offset="0.5"
         style="stop-color:#ffffff;stop-opacity:0.93050194;" />
      <stop
         style="stop-color:#ffffff;stop-opacity:0;"
         offset="1"
         id="stop6850-2" />
    </linearGradient>
    <linearGradient
       id="linearGradient8729-1"
       inkscape:collect="always">
      <stop
         id="stop8731-7"
         offset="0"
         style="stop-color:#000000;stop-opacity:1;" />
      <stop
         id="stop8733-1"
         offset="1"
         style="stop-color:#000000;stop-opacity:0;" />
    </linearGradient>
    <linearGradient
       inkscape:collect="always"
       xlink:href="#linearGradient8729-1"
       id="linearGradient6720"
       gradientUnits="userSpaceOnUse"
       x1="122"
       y1="245.448"
       x2="122"
       y2="4.302" />
    <linearGradient
       inkscape:collect="always"
       xlink:href="#linearGradient4680-5"
       id="linearGradient6722"
       gradientUnits="userSpaceOnUse"
       gradientTransform="translate(1794.0119,160.94796)"
       x1="210.17188"
       y1="72.064125"
       x2="9"
       y2="-213.25346" />
    <linearGradient
       inkscape:collect="always"
       xlink:href="#linearGradient4744-9-7"
       id="linearGradient6724"
       gradientUnits="userSpaceOnUse"
       x1="214.25"
       y1="-161.35938"
       x2="166.5"
       y2="-113.71875" />
    <linearGradient
       inkscape:collect="always"
       xlink:href="#linearGradient4744-9-7"
       id="linearGradient6726"
       gradientUnits="userSpaceOnUse"
       x1="53.25"
       y1="-126.5"
       x2="57.65625"
       y2="-62.46875" />
    <linearGradient
       inkscape:collect="always"
       xlink:href="#linearGradient4744-9-7"
       id="linearGradient6728"
       gradientUnits="userSpaceOnUse"
       x1="39.5"
       y1="6.6250248"
       x2="75.71875"
       y2="-17.124975" />
    <linearGradient
       inkscape:collect="always"
       xlink:href="#linearGradient4744-9-7"
       id="linearGradient6730"
       gradientUnits="userSpaceOnUse"
       x1="102"
       y1="-162.34375"
       x2="85.3125"
       y2="-121.4375" />
    <linearGradient
       inkscape:collect="always"
       xlink:href="#linearGradient4744-9-7"
       id="linearGradient6732"
       gradientUnits="userSpaceOnUse"
       x1="117.75"
       y1="-78.09375"
       x2="63.5"
       y2="-14.75" />
    <linearGradient
       inkscape:collect="always"
       xlink:href="#linearGradient4744-9-7"
       id="linearGradient6734"
       gradientUnits="userSpaceOnUse"
       x1="180.68745"
       y1="-125.125"
       x2="133.93745"
       y2="-60.74995" />
    <linearGradient
       inkscape:collect="always"
       xlink:href="#linearGradient4744-9-7"
       id="linearGradient6736"
       gradientUnits="userSpaceOnUse"
       x1="170.75"
       y1="-23.5"
       x2="130.21875"
       y2="33.375" />
    <linearGradient
       inkscape:collect="always"
       xlink:href="#linearGradient4744-9-7"
       id="linearGradient6738"
       gradientUnits="userSpaceOnUse"
       x1="213.5"
       y1="-76"
       x2="181.75005"
       y2="-5.6563001" />
    <linearGradient
       inkscape:collect="always"
       xlink:href="#linearGradient4680-7-4"
       id="linearGradient6740"
       gradientUnits="userSpaceOnUse"
       x1="94.25"
       y1="-94.671967"
       x2="9"
       y2="-179.96893" />
    <linearGradient
       inkscape:collect="always"
       xlink:href="#linearGradient4680-7-4"
       id="linearGradient6742"
       gradientUnits="userSpaceOnUse"
       x1="50.75"
       y1="-114.4375"
       x2="35.75"
       y2="-30.4375" />
    <linearGradient
       inkscape:collect="always"
       xlink:href="#linearGradient4680-7-4"
       id="linearGradient6744"
       gradientUnits="userSpaceOnUse"
       x1="77.625"
       y1="-163.125"
       x2="115.25"
       y2="-74.625" />
    <linearGradient
       inkscape:collect="always"
       xlink:href="#linearGradient4680-7-4"
       id="linearGradient6746"
       gradientUnits="userSpaceOnUse"
       x1="56.5"
       y1="-50.4375"
       x2="125.71875"
       y2="7.0625" />
    <linearGradient
       inkscape:collect="always"
       xlink:href="#linearGradient4680-7-4"
       id="linearGradient6748"
       gradientUnits="userSpaceOnUse"
       x1="35"
       y1="-163.29688"
       x2="180.75"
       y2="-146.79688" />
    <linearGradient
       inkscape:collect="always"
       xlink:href="#linearGradient4680-7-4"
       id="linearGradient6750"
       gradientUnits="userSpaceOnUse"
       x1="57.000099"
       y1="-141.10941"
       x2="179"
       y2="-41.609402" />
    <linearGradient
       inkscape:collect="always"
       xlink:href="#linearGradient4680-7-4"
       id="linearGradient6752"
       gradientUnits="userSpaceOnUse"
       x1="156"
       y1="-26.5"
       x2="208.25"
       y2="39.75" />
    <linearGradient
       inkscape:collect="always"
       xlink:href="#linearGradient4680-7-4"
       id="linearGradient6754"
       gradientUnits="userSpaceOnUse"
       x1="142.75"
       y1="-169.29688"
       x2="235"
       y2="-77.296875" />
    <linearGradient
       inkscape:collect="always"
       xlink:href="#linearGradient4680-22-2-6"
       id="linearGradient6756"
       gradientUnits="userSpaceOnUse"
       gradientTransform="translate(0,192)"
       x1="210.17188"
       y1="72.064125"
       x2="9"
       y2="-213.25346" />
    <linearGradient
       inkscape:collect="always"
       xlink:href="#linearGradient4744-9-7-8-1"
       id="linearGradient6758"
       gradientUnits="userSpaceOnUse"
       x1="214.25"
       y1="-161.35938"
       x2="166.5"
       y2="-113.71875" />
    <linearGradient
       inkscape:collect="always"
       xlink:href="#linearGradient4744-9-7-8-1"
       id="linearGradient6760"
       gradientUnits="userSpaceOnUse"
       x1="53.25"
       y1="-126.5"
       x2="57.65625"
       y2="-62.46875" />
    <linearGradient
       inkscape:collect="always"
       xlink:href="#linearGradient4744-9-7-8-1"
       id="linearGradient6762"
       gradientUnits="userSpaceOnUse"
       x1="39.5"
       y1="6.6250248"
       x2="75.71875"
       y2="-17.124975" />
    <linearGradient
       inkscape:collect="always"
       xlink:href="#linearGradient4744-9-7-8-1"
       id="linearGradient6764"
       gradientUnits="userSpaceOnUse"
       x1="102"
       y1="-162.34375"
       x2="85.3125"
       y2="-121.4375" />
    <linearGradient
       inkscape:collect="always"
       xlink:href="#linearGradient4744-9-7-8-1"
       id="linearGradient6766"
       gradientUnits="userSpaceOnUse"
       x1="117.75"
       y1="-78.09375"
       x2="63.5"
       y2="-14.75" />
    <linearGradient
       inkscape:collect="always"
       xlink:href="#linearGradient4744-9-7-8-1"
       id="linearGradient6768"
       gradientUnits="userSpaceOnUse"
       x1="180.68745"
       y1="-125.125"
       x2="133.93745"
       y2="-60.74995" />
    <linearGradient
       inkscape:collect="always"
       xlink:href="#linearGradient4744-9-7-8-1"
       id="linearGradient6770"
       gradientUnits="userSpaceOnUse"
       x1="170.75"
       y1="-23.5"
       x2="130.21875"
       y2="33.375" />
    <linearGradient
       inkscape:collect="always"
       xlink:href="#linearGradient4744-9-7-8-1"
       id="linearGradient6772"
       gradientUnits="userSpaceOnUse"
       x1="213.5"
       y1="-76"
       x2="181.75005"
       y2="-5.6563001" />
    <linearGradient
       inkscape:collect="always"
       xlink:href="#linearGradient4680-7-3-6-8"
       id="linearGradient6774"
       gradientUnits="userSpaceOnUse"
       x1="94.25"
       y1="-94.671967"
       x2="9"
       y2="-179.96893" />
    <linearGradient
       inkscape:collect="always"
       xlink:href="#linearGradient4680-7-3-6-8"
       id="linearGradient6776"
       gradientUnits="userSpaceOnUse"
       x1="50.75"
       y1="-114.4375"
       x2="35.75"
       y2="-30.4375" />
    <linearGradient
       inkscape:collect="always"
       xlink:href="#linearGradient4680-7-3-6-8"
       id="linearGradient6778"
       gradientUnits="userSpaceOnUse"
       x1="77.625"
       y1="-163.125"
       x2="115.25"
       y2="-74.625" />
    <linearGradient
       inkscape:collect="always"
       xlink:href="#linearGradient4680-7-3-6-8"
       id="linearGradient6780"
       gradientUnits="userSpaceOnUse"
       x1="56.5"
       y1="-50.4375"
       x2="125.71875"
       y2="7.0625" />
    <linearGradient
       inkscape:collect="always"
       xlink:href="#linearGradient4680-7-3-6-8"
       id="linearGradient6782"
       gradientUnits="userSpaceOnUse"
       x1="35"
       y1="-163.29688"
       x2="180.75"
       y2="-146.79688" />
    <linearGradient
       inkscape:collect="always"
       xlink:href="#linearGradient4680-7-3-6-8"
       id="linearGradient6784"
       gradientUnits="userSpaceOnUse"
       x1="57.000099"
       y1="-141.10941"
       x2="179"
       y2="-41.609402" />
    <linearGradient
       inkscape:collect="always"
       xlink:href="#linearGradient4680-7-3-6-8"
       id="linearGradient6786"
       gradientUnits="userSpaceOnUse"
       x1="156"
       y1="-26.5"
       x2="208.25"
       y2="39.75" />
    <linearGradient
       inkscape:collect="always"
       xlink:href="#linearGradient4680-7-3-6-8"
       id="linearGradient6788"
       gradientUnits="userSpaceOnUse"
       x1="142.75"
       y1="-169.29688"
       x2="235"
       y2="-77.296875" />
    <linearGradient
       inkscape:collect="always"
       xlink:href="#linearGradient5862-1-55-6"
       id="linearGradient6790"
       gradientUnits="userSpaceOnUse"
       gradientTransform="matrix(0.9842718,0.9842718,-0.9842718,0.9842718,1861.0041,-80.267729)"
       x1="120"
       y1="186.5"
       x2="136"
       y2="186.5" />
    <radialGradient
       inkscape:collect="always"
       xlink:href="#linearGradient5745-3-7"
       id="radialGradient6792"
       gradientUnits="userSpaceOnUse"
       gradientTransform="matrix(1.0052137,1.0052137,1.0052137,-1.0052137,1753.1739,22.201254)"
       cx="128"
       cy="86"
       fx="128"
       fy="86"
       r="47" />
    <linearGradient
       inkscape:collect="always"
       xlink:href="#linearGradient5762-8-1"
       id="linearGradient6794"
       gradientUnits="userSpaceOnUse"
       gradientTransform="matrix(0.98427179,0.98427179,-0.98427179,0.98427179,1926.9503,-146.21394)"
       x1="128"
       y1="134.35938"
       x2="130.875"
       y2="143.35938" />
    <linearGradient
       inkscape:collect="always"
       xlink:href="#linearGradient5762-8-1"
       id="linearGradient6796"
       gradientUnits="userSpaceOnUse"
       gradientTransform="matrix(-0.98427179,-0.98427179,-0.98427179,0.98427179,2178.9238,105.75964)"
       x1="123"
       y1="150.375"
       x2="133"
       y2="150.375" />
    <linearGradient
       inkscape:collect="always"
       xlink:href="#linearGradient5862-3-7"
       id="linearGradient6798"
       gradientUnits="userSpaceOnUse"
       gradientTransform="matrix(0.98427179,0.98427179,-0.98427179,0.98427179,1926.9503,-146.21394)"
       x1="120"
       y1="186.5"
       x2="136"
       y2="186.5" />
    <linearGradient
       inkscape:collect="always"
       xlink:href="#linearGradient5762-9-4-0"
       id="linearGradient6800"
       gradientUnits="userSpaceOnUse"
       gradientTransform="matrix(-1.9685436,-1.9685436,-1.742074,1.742074,2390.1982,146.45885)"
       x1="123"
       y1="150.375"
       x2="133"
       y2="150.375" />
    <linearGradient
       inkscape:collect="always"
       xlink:href="#linearGradient4680-5"
       id="linearGradient6802"
       gradientUnits="userSpaceOnUse"
       gradientTransform="matrix(-1.9685436,-1.9685436,-1.742074,1.742074,2390.1982,146.45885)"
       x1="108.00327"
       y1="167.7272"
       x2="133"
       y2="150.375" />
    <linearGradient
       inkscape:collect="always"
       xlink:href="#linearGradient6589-9"
       id="linearGradient6804"
       gradientUnits="userSpaceOnUse"
       gradientTransform="translate(1794.0119,-31.052042)"
       x1="126.64295"
       y1="29.814894"
       x2="179.96115"
       y2="137.19565" />
    <radialGradient
       inkscape:collect="always"
       xlink:href="#linearGradient4744-9-9-14"
       id="radialGradient6806"
       gradientUnits="userSpaceOnUse"
       gradientTransform="matrix(1.2124778,0,0,0.83914637,1729.7506,282.55648)"
       cx="159.61317"
       cy="72.588303"
       fx="159.61317"
       fy="72.588303"
       r="38.416904" />
    <radialGradient
       inkscape:collect="always"
       xlink:href="#linearGradient6846-3"
       id="radialGradient6808"
       gradientUnits="userSpaceOnUse"
       gradientTransform="matrix(1.2124778,0,0,0.83914637,1729.322,281.27045)"
       cx="159.61317"
       cy="72.588303"
       fx="159.61317"
       fy="72.588303"
       r="38.416904" />
    <linearGradient
       inkscape:collect="always"
       xlink:href="#linearGradient6589-6-2"
       id="linearGradient6810"
       gradientUnits="userSpaceOnUse"
       gradientTransform="matrix(-0.50295302,0.19839946,0.19720153,-0.43253662,2070.1682,102.36525)"
       x1="126.64295"
       y1="29.814894"
       x2="179.96115"
       y2="137.19565" />
    <inkscape:perspective
       id="perspective2834"
       inkscape:persp3d-origin="372.04724 : 350.78739 : 1"
       inkscape:vp_z="744.09448 : 526.18109 : 1"
       inkscape:vp_y="0 : 1000 : 0"
       inkscape:vp_x="0 : 526.18109 : 1"
       sodipodi:type="inkscape:persp3d" />
    <inkscape:perspective
       id="perspective2724"
       inkscape:persp3d-origin="372.04724 : 350.78739 : 1"
       inkscape:vp_z="744.09448 : 526.18109 : 1"
       inkscape:vp_y="0 : 1000 : 0"
       inkscape:vp_x="0 : 526.18109 : 1"
       sodipodi:type="inkscape:persp3d" />
  </defs>
  <sodipodi:namedview
     id="base"
     pagecolor="#e1f3fa"
     bordercolor="#666666"
     borderopacity="1.0"
     gridtolerance="50"
     guidetolerance="10"
     objecttolerance="10"
     inkscape:pageopacity="1"
     inkscape:pageshadow="2"
     inkscape:zoom="1.3019512"
     inkscape:cx="406.03043"
     inkscape:cy="170.10702"
     inkscape:document-units="px"
     inkscape:current-layer="layer1"
     width="316mm"
     height="125mm"
     units="mm"
     showguides="false"
     inkscape:guide-bbox="true"
     inkscape:guide-points="true"
     inkscape:window-width="1920"
     inkscape:window-height="996"
     inkscape:window-x="1272"
     inkscape:window-y="-8"
     inkscape:object-points="false"
     inkscape:object-paths="false"
     inkscape:grid-bbox="false"
     showgrid="false"
     inkscape:window-maximized="1">
    <sodipodi:guide
       orientation="vertical"
       position="0"
       id="guide2160" />
    <sodipodi:guide
       orientation="vertical"
       position="17.716535"
       id="guide2162" />
    <sodipodi:guide
       orientation="vertical"
       position="35.433071"
       id="guide2164" />
    <sodipodi:guide
       orientation="vertical"
       position="297.6378"
       id="guide2166" />
    <sodipodi:guide
       orientation="vertical"
       position="559.84252"
       id="guide2168" />
    <sodipodi:guide
       orientation="vertical"
       position="822.04724"
       id="guide2170" />
    <sodipodi:guide
       orientation="vertical"
       position="1101.9685"
       id="guide2174" />
    <sodipodi:guide
       orientation="vertical"
       position="1119.685"
       id="guide2176" />
    <sodipodi:guide
       orientation="vertical"
       position="1084.252"
       id="guide2178" />
    <sodipodi:guide
       orientation="horizontal"
       position="0"
       id="guide2182" />
    <sodipodi:guide
       orientation="horizontal"
       position="17.716535"
       id="guide2184" />
    <sodipodi:guide
       orientation="horizontal"
       position="35.433071"
       id="guide2186" />
    <sodipodi:guide
       orientation="horizontal"
       position="407.48031"
       id="guide2188" />
    <sodipodi:guide
       orientation="horizontal"
       position="425.19685"
       id="guide2190" />
    <sodipodi:guide
       orientation="horizontal"
       position="442.91339"
       id="guide2192" />
    <sodipodi:guide
       orientation="horizontal"
       position="378"
       id="guide2549" />
    <sodipodi:guide
       orientation="vertical"
       position="49.606299"
       id="guide3686" />
    <sodipodi:guide
       orientation="vertical"
       position="283.46457"
       id="guide3688" />
    <sodipodi:guide
       orientation="horizontal"
       position="393.30709"
       id="guide3690" />
    <sodipodi:guide
       orientation="horizontal"
       position="49.606299"
       id="guide3692" />
    <sodipodi:guide
       orientation="vertical"
       position="574.01575"
       id="guide3927" />
    <sodipodi:guide
       orientation="vertical"
       position="545.66929"
       id="guide3929" />
    <sodipodi:guide
       orientation="vertical"
       position="808.62337"
       id="guide3931" />
    <sodipodi:guide
       orientation="vertical"
       position="311.81102"
       id="guide3933" />
    <sodipodi:guide
       position="0,0"
       orientation="0,1119.6851"
       id="guide3247" />
    <sodipodi:guide
       position="1119.6851,0"
       orientation="-442.91336,0"
       id="guide3249" />
    <sodipodi:guide
       position="1119.6851,442.91336"
       orientation="0,-1119.6851"
       id="guide3251" />
    <sodipodi:guide
       position="0,442.91336"
       orientation="442.91336,0"
       id="guide3253" />
    <inkscape:grid
       type="xygrid"
       id="grid3255"
       empspacing="5"
       visible="true"
       enabled="true"
       snapvisiblegridlinesonly="true" />
  </sodipodi:namedview>
  <metadata
     id="metadata7">
    <rdf:RDF>
      <cc:Work
         rdf:about="">
        <dc:format>image/svg+xml</dc:format>
        <dc:type
           rdf:resource="http://purl.org/dc/dcmitype/StillImage" />
        <dc:title />
      </cc:Work>
    </rdf:RDF>
  </metadata>
  <g
     inkscape:label="flyer"
     inkscape:groupmode="layer"
     id="layer1"
     style="display:inline"
     transform="translate(0,4.8974618e-4)">
    <image
       sodipodi:absref="D:\Users\Vincent\Documents\OpenStreetMap\SVN\misc\pr_material\french_flyer_2011_10\berlin-background-flyer.png"
       xlink:href="berlin-background-flyer.png"
       y="17.716511"
       x="-11.038116"
       id="image2738"
       height="407"
       width="354" />
    <image
       sodipodi:absref="D:\Users\Vincent\Documents\OpenStreetMap\SVN\misc\pr_material\german_flyer_2011_08\globe_part_halo.png"
       xlink:href="../german_flyer_2011_08/globe_part_halo.png"
       width="327.56903"
       height="396.18701"
       id="image2726"
       x="12.242859"
       y="24.243629" />
    <rect
       style="fill:none;stroke:#40406d;stroke-width:0.70866144;stroke-miterlimit:4;stroke-opacity:0;stroke-dasharray:none"
       id="rect5375"
       width="496.76749"
       height="271.0448"
       x="311.83521"
       y="49.630428"
       inkscape:export-filename="/tmp/1.png"
       inkscape:export-xdpi="400.01047"
       inkscape:export-ydpi="400.01047" />
    <rect
       style="fill:none;stroke:#40406d;stroke-width:0.70866144;stroke-miterlimit:4;stroke-opacity:0;stroke-dasharray:none"
       id="rect6286"
       width="94.723618"
       height="132.7984"
       x="49.6063"
       y="181.96637" />
    <text
       xml:space="preserve"
       style="font-size:18px;font-style:normal;font-variant:normal;font-weight:normal;font-stretch:normal;text-align:start;line-height:129.99999523%;writing-mode:lr-tb;text-anchor:start;fill:#000000;fill-opacity:1;stroke:none;font-family:FrobisherExtrabold"
       x="145.13062"
       y="331.23984"
       id="text3367"
       sodipodi:linespacing="130%"
       inkscape:export-filename="/tmp/1.png"
       inkscape:export-xdpi="400.01047"
       inkscape:export-ydpi="400.01047"><tspan
         sodipodi:role="line"
         x="145.13062"
         y="331.23984"
         id="tspan3236"
         style="font-style:normal;font-variant:normal;font-weight:bold;font-stretch:normal;font-family:Myriad Pro;-inkscape-font-specification:Myriad Pro Bold">La carte</tspan><tspan
         sodipodi:role="line"
         x="145.13062"
         y="354.63983"
         id="tspan3284"
         style="font-style:normal;font-variant:normal;font-weight:bold;font-stretch:normal;font-family:Myriad Pro;-inkscape-font-specification:Myriad Pro Bold">du monde</tspan><tspan
         sodipodi:role="line"
         x="145.13062"
         y="378.03983"
         id="tspan3286"
         style="font-style:normal;font-variant:normal;font-weight:bold;font-stretch:normal;font-family:Myriad Pro;-inkscape-font-specification:Myriad Pro Bold">coopérative libre</tspan></text>
    <text
       xml:space="preserve"
       style="font-size:41.35279083px;font-style:normal;font-variant:normal;font-weight:normal;font-stretch:normal;text-align:start;line-height:100%;writing-mode:lr-tb;text-anchor:start;fill:#000000;fill-opacity:1;stroke:none;font-family:FrobisherExtrabold"
       x="-393.36859"
       y="80.967041"
       id="text3363"
       sodipodi:linespacing="100%"
       inkscape:export-filename="/tmp/1.png"
       inkscape:export-xdpi="400.01047"
       inkscape:export-ydpi="400.01047"
       transform="matrix(0,-1,1,0,0,0)"><tspan
         sodipodi:role="line"
         id="tspan3365"
         x="-393.36859"
         y="80.967041"
         dx="0 0 0 0 2.651968 0 0 0 0 0 3.9779522">OpenStreetMap</tspan></text>
    <image
       sodipodi:absref="D:\Users\Vincent\Documents\OpenStreetMap\SVN\misc\pr_material\french_flyer_2011_10\osm.png"
       xlink:href="osm.png"
       inkscape:transform-center-y="0.0650818"
       inkscape:transform-center-x="1.7791254"
       transform="matrix(0.96837318,-0.24950629,0.24950629,0.96837318,0,0)"
       width="71.127243"
       height="71.127243"
       id="image2836"
       x="75.712448"
       y="79.688866" />
  </g>
  <g
     inkscape:groupmode="layer"
     id="layer3"
     inkscape:label="markings"
     style="display:inline"
     transform="translate(0,4.8974618e-4)">
    <path
       style="fill:none;stroke:#000000;stroke-width:1px;stroke-linecap:butt;stroke-linejoin:miter;stroke-opacity:1;display:inline"
       d="m 35.433071,-2.9404297e-5 0,17.716540404297"
       id="path2204"
       inkscape:export-filename="/tmp/1.png"
       inkscape:export-xdpi="400.01047"
       inkscape:export-ydpi="400.01047"
       inkscape:connector-curvature="0" />
    <path
       style="fill:none;stroke:#000000;stroke-width:1px;stroke-linecap:butt;stroke-linejoin:miter;stroke-opacity:1;display:inline"
       d="m 297.6378,-2.9404297e-5 0,17.716540404297"
       id="path2224"
       inkscape:export-filename="/tmp/1.png"
       inkscape:export-xdpi="400.01047"
       inkscape:export-ydpi="400.01047"
       inkscape:connector-curvature="0" />
    <path
       style="fill:none;stroke:#000000;stroke-width:1px;stroke-linecap:butt;stroke-linejoin:miter;stroke-opacity:1;display:inline"
       d="M 17.716535,35.433051 0,35.433051"
       id="path2206"
       inkscape:export-filename="/tmp/1.png"
       inkscape:export-xdpi="400.01047"
       inkscape:export-ydpi="400.01047"
       inkscape:connector-curvature="0" />
    <path
       style="fill:none;stroke:#000000;stroke-width:1px;stroke-linecap:butt;stroke-linejoin:miter;stroke-opacity:1;display:inline"
       d="M 17.716535,407.48029 0,407.48029"
       id="path2208"
       inkscape:export-filename="/tmp/1.png"
       inkscape:export-xdpi="400.01047"
       inkscape:export-ydpi="400.01047"
       inkscape:connector-curvature="0" />
    <path
       style="fill:none;stroke:#000000;stroke-width:1px;stroke-linecap:butt;stroke-linejoin:miter;stroke-opacity:1;display:inline"
       d="m 35.433071,425.19683 0,17.71653"
       id="path2210"
       inkscape:export-filename="/tmp/1.png"
       inkscape:export-xdpi="400.01047"
       inkscape:export-ydpi="400.01047"
       inkscape:connector-curvature="0" />
    <path
       style="fill:none;stroke:#000000;stroke-width:1px;stroke-linecap:butt;stroke-linejoin:miter;stroke-opacity:1;display:inline"
       d="m 297.6378,425.19683 0,17.71653"
       id="path2226"
       inkscape:export-filename="/tmp/1.png"
       inkscape:export-xdpi="400.01047"
       inkscape:export-ydpi="400.01047"
       inkscape:connector-curvature="0" />
    <path
       style="fill:none;stroke:#000000;stroke-width:1px;stroke-linecap:butt;stroke-linejoin:miter;stroke-opacity:1;display:inline"
       d="m 337.685,407.48029 -17.7165,0"
       id="path2214"
       inkscape:export-filename="/tmp/1.png"
       inkscape:export-xdpi="400.01047"
       inkscape:export-ydpi="400.01047"
       inkscape:connector-curvature="0" />
    <path
       style="fill:none;stroke:#000000;stroke-width:1px;stroke-linecap:butt;stroke-linejoin:miter;stroke-opacity:1;display:inline"
       d="m 337.685,35.433051 -17.7165,0"
       id="path2216"
       inkscape:export-filename="/tmp/1.png"
       inkscape:export-xdpi="400.01047"
       inkscape:export-ydpi="400.01047"
       inkscape:connector-curvature="0" />
  </g>
  <g
     inkscape:groupmode="layer"
     id="layer2"
     inkscape:label="mask_all"
     style="opacity:0.85;display:none"
     transform="translate(0,4.8974618e-4)">
    <path
       style="fill:#000000;fill-opacity:1;fill-rule:nonzero;stroke:none"
       d="m -200,-164.5625 0,106.78125 0,93.21875 0,437.6875 0,134.34375 1520,0 0,-125.25 0,-74.75 0,-372.03125 0,-146.09375 0,-53.90625 -1520,0 0,0 z m 235.4375,200 1048.8125,0 0,372.03125 -1048.8125,0 0,-372.03125 z"
       id="rect3834"
       inkscape:connector-curvature="0" />
  </g>
  <g
     inkscape:groupmode="layer"
     id="layer4"
     inkscape:label="mask_front"
     style="opacity:0.85;display:none"
     transform="translate(0,4.8974618e-4)">
    <path
       style="fill:#000000;fill-opacity:1;fill-rule:nonzero;stroke:none;display:inline"
       d="m -200,-164.5625 0,106.78125 0,93.21875 0,437.6875 0,134.34375 1520,0 0,-125.25 0,-74.75 0,-372.03125 0,-146.09375 0,-53.90625 -1520,0 z m 1022.0625,200 262.1875,0 0,372.03125 -262.1875,0 0,-372.03125 z"
       id="path3897"
       inkscape:connector-curvature="0" />
  </g>
</svg>
