<?xml version="1.0" encoding="UTF-8" standalone="no"?>
<!-- Generator: Adobe Illustrator 12.0.0, SVG Export Plug-In . SVG Version: 6.00 Build 51448)  -->
<svg
   xmlns:dc="http://purl.org/dc/elements/1.1/"
   xmlns:cc="http://creativecommons.org/ns#"
   xmlns:rdf="http://www.w3.org/1999/02/22-rdf-syntax-ns#"
   xmlns:svg="http://www.w3.org/2000/svg"
   xmlns="http://www.w3.org/2000/svg"
   xmlns:sodipodi="http://sodipodi.sourceforge.net/DTD/sodipodi-0.dtd"
   xmlns:inkscape="http://www.inkscape.org/namespaces/inkscape"
   version="1.1"
   id="Layer_1"
   width="750"
   height="600"
   viewBox="0 0 750 600"
   overflow="visible"
   enable-background="new 0 0 750 600"
   xml:space="preserve"
   sodipodi:version="0.32"
   inkscape:version="0.46"
   sodipodi:docname="shield-us.svg"
   inkscape:output_extension="org.inkscape.output.svg.inkscape"><metadata
   id="metadata3511"><rdf:RDF><cc:Work
       rdf:about=""><dc:format>image/svg+xml</dc:format><dc:type
         rdf:resource="http://purl.org/dc/dcmitype/StillImage" /></cc:Work></rdf:RDF></metadata><defs
   id="defs3509"><inkscape:perspective
   sodipodi:type="inkscape:persp3d"
   inkscape:vp_x="0 : 300 : 1"
   inkscape:vp_y="0 : 1000 : 0"
   inkscape:vp_z="750 : 300 : 1"
   inkscape:persp3d-origin="375 : 200 : 1"
   id="perspective3513" />
	
	
</defs><sodipodi:namedview
   inkscape:window-height="709"
   inkscape:window-width="641"
   inkscape:pageshadow="2"
   inkscape:pageopacity="0.0"
   guidetolerance="10.0"
   gridtolerance="10.0"
   objecttolerance="10.0"
   borderopacity="1.0"
   bordercolor="#666666"
   pagecolor="#ffffff"
   id="base"
   showgrid="false"
   inkscape:zoom="0.72"
   inkscape:cx="393.51704"
   inkscape:cy="300"
   inkscape:window-x="163"
   inkscape:window-y="195"
   inkscape:current-layer="Layer_1" />
<g
   id="g3492"
   inkscape:export-filename="/home/lars/projects/mapnik-osm/topomap/custom-symbols/shield-us.png"
   inkscape:export-xdpi="2.6400001"
   inkscape:export-ydpi="2.6400001">
		<path
   id="path3494"
   d="M 0,50 C 0,22.385742 22.385254,0 50,0 L 700,0 C 727.61426,0 750,22.385742 750,50 L 750,550 C 750,577.61523 727.61426,600 700,600 L 50,600 C 22.385254,600 0,577.61523 0,550 L 0,50 L 0,50 z" />
		<path
   id="path3496"
   d="" />
	</g><path
   style="fill:#ffffff;fill-rule:evenodd"
   id="path3498"
   d="M 375,29.446266 C 341.10813,50.40393 301.15756,62.499481 258.38125,62.499481 C 215.60495,62.499481 175.65392,50.402108 141.76251,29.444444 L 34.473262,136.73369 C 54.217363,164.79781 65.809084,199.01038 65.809084,235.9316 C 65.809084,262.57717 59.77133,287.81191 48.989563,310.34256 C 39.683752,329.81333 34.473262,351.61648 34.473262,374.63593 C 34.473262,457.0781 101.30309,523.90793 183.74526,523.90793 L 277.14776,523.90793 C 316.65191,523.90793 351.90813,542.09498 375,570.55361 C 398.09143,542.09498 433.34764,523.90793 472.85224,523.90793 L 566.25474,523.90793 C 648.69691,523.90793 715.52674,457.0781 715.52674,374.63593 C 715.52674,351.61648 710.31625,329.81333 701.00952,310.34256 C 690.22776,287.81191 684.19092,262.57717 684.19092,235.9316 C 684.19092,199.01038 695.78263,164.79781 715.52674,136.73369 L 608.23749,29.444444 C 574.34608,50.402108 534.39414,62.499481 491.61875,62.499481 C 448.84244,62.499481 408.89141,50.40393 375,29.446266 z"
   clip-rule="evenodd"
   inkscape:export-filename="/home/lars/projects/mapnik-osm/topomap/custom-symbols/shield-us.png"
   inkscape:export-xdpi="2.6400001"
   inkscape:export-ydpi="2.6400001" />

</svg>