<?xml version="1.0" encoding="UTF-8" standalone="no"?>
<!DOCTYPE svg PUBLIC "-//W3C//DTD SVG 20010904//EN"
"http://www.w3.org/TR/2001/REC-SVG-20010904/DTD/svg10.dtd">
<!-- Created with Inkscape (http://www.inkscape.org/) -->
<svg
   width="15.000000cm"
   height="10.000000cm"
   id="svg2455"
   sodipodi:version="0.32"
   inkscape:version="0.40"
   sodipodi:docbase="/home/matt/projects/opencheesemap/openstreetmap/html/images"
   sodipodi:docname="osm_tshirt_iow.svg"
   inkscape:export-filename="/home/matt/projects/opencheesemap/icon/OSM_Tshirt_IoW.png"
   inkscape:export-xdpi="72.000000"
   inkscape:export-ydpi="72.000000"
   xmlns="http://www.w3.org/2000/svg"
   xmlns:cc="http://web.resource.org/cc/"
   xmlns:inkscape="http://www.inkscape.org/namespaces/inkscape"
   xmlns:sodipodi="http://sodipodi.sourceforge.net/DTD/sodipodi-0.dtd"
   xmlns:rdf="http://www.w3.org/1999/02/22-rdf-syntax-ns#"
   xmlns:xml="http://www.w3.org/XML/1998/namespace"
   xmlns:dc="http://purl.org/dc/elements/1.1/"
   xmlns:xlink="http://www.w3.org/1999/xlink">
  <defs
     id="defs3">
    <linearGradient
       inkscape:collect="always"
       id="linearGradient1914">
      <stop
         style="stop-color:#000000;stop-opacity:1;"
         offset="0"
         id="stop1915" />
      <stop
         style="stop-color:#000000;stop-opacity:0;"
         offset="1"
         id="stop1916" />
    </linearGradient>
    <linearGradient
       id="linearGradient2419">
      <stop
         style="stop-color:#000000;stop-opacity:0.50515461;"
         offset="0.0000000"
         id="stop2420" />
      <stop
         style="stop-color:#000000;stop-opacity:0.0000000;"
         offset="1.0000000"
         id="stop2421" />
    </linearGradient>
    <linearGradient
       id="linearGradient2411">
      <stop
         style="stop-color:#ffffff;stop-opacity:1.0000000;"
         offset="0.0000000"
         id="stop2412" />
      <stop
         style="stop-color:#ffffff;stop-opacity:0.0000000;"
         offset="1.0000000"
         id="stop2413" />
    </linearGradient>
    <linearGradient
       id="linearGradient1767">
      <stop
         style="stop-color:#3f3318;stop-opacity:1.0000000;"
         offset="0.0000000"
         id="stop1768" />
      <stop
         style="stop-color:#815f0e;stop-opacity:1.0000000;"
         offset="1.0000000"
         id="stop1769" />
    </linearGradient>
    <linearGradient
       id="linearGradient1754">
      <stop
         style="stop-color:#747474;stop-opacity:1.0000000;"
         offset="0.0000000"
         id="stop1755" />
      <stop
         style="stop-color:#bebebe;stop-opacity:1.0000000;"
         offset="0.50000000"
         id="stop1757" />
      <stop
         style="stop-color:#d5d5d5;stop-opacity:1.0000000;"
         offset="0.62500000"
         id="stop1759" />
      <stop
         style="stop-color:#818181;stop-opacity:1.0000000;"
         offset="0.75000000"
         id="stop1758" />
      <stop
         style="stop-color:#c3c3c3;stop-opacity:1.0000000;"
         offset="1.0000000"
         id="stop1756" />
    </linearGradient>
    <pattern
       patternUnits="userSpaceOnUse"
       width="28.945312"
       height="33.076172"
       patternTransform="translate(190.4901,70.84341)"
       id="pattern2568">
      <text
         xml:space="preserve"
         style="font-size:12.000000;font-style:normal;font-weight:normal;fill:#000000;fill-opacity:1.0000000;stroke:none;stroke-width:1.0000000pt;stroke-linecap:butt;stroke-linejoin:miter;stroke-opacity:1.0000000;font-family:Bitstream Vera Sans"
         x="189.69904"
         y="67.749657"
         id="text2569"
         transform="translate(-190.4901,-70.84341)"><tspan
           sodipodi:role="line"
           id="tspan2570"
           x="189.69904"
           y="67.749657"></tspan><tspan
           sodipodi:role="line"
           id="tspan2576"
           x="189.69904"
           y="79.749657">0010</tspan><tspan
           sodipodi:role="line"
           id="tspan2578"
           x="189.69904"
           y="91.749657">0100</tspan><tspan
           sodipodi:role="line"
           id="tspan2580"
           x="189.69904"
           y="103.74966">0111</tspan><tspan
           sodipodi:role="line"
           id="tspan2582"
           x="189.69904"
           y="115.74966"></tspan></text>
    </pattern>
    <pattern
       patternUnits="userSpaceOnUse"
       width="32.232422"
       height="37.876175"
       patternTransform="translate(183.7668,59.46841)"
       id="pattern2606">
      <text
         xml:space="preserve"
         style="font-size:12.000000;font-style:normal;font-weight:bold;fill:#000000;fill-opacity:1.0000000;stroke:none;stroke-width:1.0000000pt;stroke-linecap:butt;stroke-linejoin:miter;stroke-opacity:1.0000000;font-family:Bitstream Vera Sans;font-stretch:normal;font-variant:normal;text-anchor:middle;writing-mode:lr;"
         x="189.69904"
         y="67.749657"
         id="text2607"
         transform="translate(-173.5858,-58.84341)"
         sodipodi:linespacing="120%"><tspan
           x="189.69904"
           y="67.749657"
           sodipodi:role="line"
           id="tspan2608">0010</tspan><tspan
           x="189.69904"
           y="82.149657"
           sodipodi:role="line"
           id="tspan2610">0100</tspan><tspan
           x="189.69904"
           y="96.549658"
           sodipodi:role="line"
           id="tspan2612">0111</tspan></text>
    </pattern>
    <pattern
       patternUnits="userSpaceOnUse"
       width="32.232422"
       height="28.276169"
       patternTransform="translate(183.7668,59.46841)"
       id="pattern2623">
      <text
         xml:space="preserve"
         style="font-size:12.000000;font-style:normal;font-variant:normal;font-weight:bold;font-stretch:normal;fill:#000000;fill-opacity:1.0000000;stroke:none;stroke-width:1.0000000pt;stroke-linecap:butt;stroke-linejoin:miter;stroke-opacity:1.0000000;font-family:Bitstream Vera Sans;text-anchor:middle;writing-mode:lr;"
         x="189.69904"
         y="67.749657"
         id="text2624"
         transform="translate(-173.5858,-58.84341)"
         sodipodi:linespacing="80%"><tspan
           x="189.69904"
           y="67.749657"
           sodipodi:role="line"
           id="tspan2625">0010</tspan><tspan
           x="189.69904"
           y="77.349657"
           sodipodi:role="line"
           id="tspan2627">0100</tspan><tspan
           x="189.69904"
           y="86.949657"
           sodipodi:role="line"
           id="tspan2629">0111</tspan></text>
    </pattern>
    <pattern
       patternUnits="userSpaceOnUse"
       width="32.232422"
       height="25.876175"
       patternTransform="translate(183.7668,59.46841)"
       id="pattern2639">
      <text
         xml:space="preserve"
         style="font-size:12.000000;font-style:normal;font-variant:normal;font-weight:bold;font-stretch:normal;fill:#000000;fill-opacity:1.0000000;stroke:none;stroke-width:1.0000000pt;stroke-linecap:butt;stroke-linejoin:miter;stroke-opacity:1.0000000;font-family:Bitstream Vera Sans;text-anchor:middle;writing-mode:lr;"
         x="189.69904"
         y="67.749657"
         id="text2640"
         transform="translate(-173.5858,-58.84341)"
         sodipodi:linespacing="70%"><tspan
           x="189.69904"
           y="67.749657"
           sodipodi:role="line"
           id="tspan2641">0010</tspan><tspan
           x="189.69904"
           y="76.149656"
           sodipodi:role="line"
           id="tspan2643">0100</tspan><tspan
           x="189.69904"
           y="84.549656"
           sodipodi:role="line"
           id="tspan2645">0111</tspan></text>
    </pattern>
    <pattern
       patternUnits="userSpaceOnUse"
       width="96.697266"
       height="77.628510"
       patternTransform="translate(151.5402,41.65591)"
       id="pattern2692">
      <text
         xml:space="preserve"
         style="font-size:36.000000;font-style:normal;font-variant:normal;font-weight:bold;font-stretch:normal;fill:#000000;fill-opacity:1.0000000;stroke:none;stroke-width:1.0000000pt;stroke-linecap:butt;stroke-linejoin:miter;stroke-opacity:1.0000000;font-family:Bitstream Vera Sans;text-anchor:middle;writing-mode:lr;"
         x="189.69904"
         y="67.749657"
         id="text2693"
         transform="translate(-141.3592,-41.03091)"
         sodipodi:linespacing="70%"><tspan
           x="189.69904"
           y="67.749657"
           sodipodi:role="line"
           id="tspan2694">0010</tspan><tspan
           x="189.69904"
           y="92.949656"
           sodipodi:role="line"
           id="tspan2696">0100</tspan><tspan
           x="189.69904"
           y="118.14965"
           sodipodi:role="line"
           id="tspan2698">0111</tspan></text>
    </pattern>
    <linearGradient
       inkscape:collect="always"
       xlink:href="#linearGradient1914"
       id="linearGradient1917"
       gradientTransform="matrix(1.195930,0.000000,0.000000,0.836169,56.27461,-1.200808)"
       x1="156.33753"
       y1="184.92068"
       x2="264.56920"
       y2="184.92068"
       gradientUnits="userSpaceOnUse" />
    <linearGradient
       inkscape:collect="always"
       xlink:href="#linearGradient1914"
       id="linearGradient1919"
       gradientUnits="userSpaceOnUse"
       gradientTransform="matrix(-1.195930,0.000000,0.000000,-0.836169,477.3431,239.6148)"
       x1="156.33753"
       y1="184.92068"
       x2="264.56920"
       y2="184.92068" />
    <pattern
       patternUnits="userSpaceOnUse"
       width="96.697266"
       height="84.828522"
       patternTransform="translate(73.76358,47.05894)"
       id="pattern1941">
      <text
         xml:space="preserve"
         style="font-size:36.000000;font-style:normal;font-variant:normal;font-weight:bold;font-stretch:normal;fill:none;fill-opacity:1.0000000;stroke:#000000;stroke-width:1.0000000pt;stroke-linecap:butt;stroke-linejoin:miter;stroke-opacity:1.0000000;font-family:Bitstream Vera Sans;text-anchor:middle;writing-mode:lr;"
         x="189.69904"
         y="67.749657"
         id="text1942"
         transform="translate(-141.3592,-41.03091)"
         sodipodi:linespacing="80%"><tspan
           x="189.69904"
           y="67.749657"
           sodipodi:role="line"
           id="tspan1943">0010</tspan><tspan
           x="189.69904"
           y="96.549658"
           sodipodi:role="line"
           id="tspan1945">0100</tspan><tspan
           x="189.69904"
           y="125.34966"
           sodipodi:role="line"
           id="tspan1947">0111</tspan></text>
    </pattern>
  </defs>
  <sodipodi:namedview
     id="base"
     pagecolor="#ffffff"
     bordercolor="#666666"
     borderopacity="1.0"
     inkscape:pageopacity="0.0"
     inkscape:pageshadow="2"
     inkscape:zoom="1.3581568"
     inkscape:cx="319.91859"
     inkscape:cy="102.81174"
     inkscape:current-layer="layer4"
     showgrid="true"
     inkscape:grid-bbox="true"
     inkscape:grid-points="false"
     inkscape:window-width="1016"
     inkscape:window-height="697"
     inkscape:window-x="0"
     inkscape:window-y="0"
     showguides="true"
     inkscape:guide-bbox="true" />
  <metadata
     id="metadata4">
    <rdf:RDF
       id="RDF5">
      <cc:Work
         rdf:about=""
         id="Work6">
        <dc:format
           id="format7">image/svg+xml</dc:format>
        <dc:type
           id="type9"
           rdf:resource="http://purl.org/dc/dcmitype/StillImage" />
      </cc:Work>
    </rdf:RDF>
  </metadata>
  <g
     inkscape:groupmode="layer"
     id="layer4"
     inkscape:label="Map"
     style="display:block"
     sodipodi:insensitive="1">
    <path
       style="fill:#bdff77;fill-opacity:1.0000000;fill-rule:evenodd;stroke:#000000;stroke-width:7.2510791;stroke-linecap:butt;stroke-linejoin:bevel;stroke-miterlimit:4.0000000;stroke-opacity:1.0000000"
       d="M 12.829190,161.73186 L 19.316424,159.90212 L 37.191274,158.23872 L 34.785987,151.58515 L 41.938581,148.75739 L 57.408144,145.92961 L 60.901271,141.43845 L 62.231985,136.11559 L 67.055828,134.95122 L 70.049936,132.28978 L 71.546991,129.29568 L 69.218239,124.80450 L 74.208421,121.64406 L 80.861996,119.31531 L 81.693693,117.48558 L 95.666201,119.48165 L 102.81880,118.48361 L 113.13184,119.14897 L 128.26872,116.15487 L 134.09060,114.99049 L 145.06900,109.33495 L 171.84964,99.520920 L 179.00223,99.021910 L 184.82411,100.68530 L 188.81625,100.68530 L 188.64991,104.34477 L 186.82019,105.84182 L 188.98259,106.34084 L 186.32117,110.00031 L 190.31331,110.00031 L 191.81036,106.83985 L 195.46982,106.50717 L 196.13518,104.67745 L 197.96492,104.67745 L 200.29366,107.83789 L 206.11554,108.66959 L 203.95314,106.83985 L 206.78090,103.34673 L 200.62634,102.18236 L 199.46198,101.18432 L 202.28974,100.51896 L 201.45804,99.354580 L 198.63028,100.35262 L 194.30545,100.35262 L 193.47375,102.68138 L 191.31134,102.18236 L 191.31134,100.01994 L 194.97081,99.021910 L 236.88834,87.877170 L 245.53798,87.378150 L 253.52227,78.229491 L 253.52227,74.403677 L 262.83728,71.243236 L 269.98986,68.249120 L 273.64934,65.587699 L 275.14639,62.260904 L 282.79799,60.098501 L 294.60810,59.765822 L 299.26560,61.262865 L 304.08944,67.251096 L 304.42212,71.076896 L 303.92310,74.237337 L 305.42016,78.728511 L 306.91722,82.387971 L 308.41426,83.219670 L 308.41426,87.544490 L 310.90936,88.043510 L 313.23811,93.366370 L 315.06784,96.526820 L 314.23615,98.023880 L 312.90543,104.01209 L 310.24400,107.00619 L 308.08158,111.66371 L 307.74891,114.32513 L 311.24204,110.00031 L 312.07373,106.83985 L 315.73319,102.84771 L 315.89953,100.85164 L 317.89561,99.188250 L 317.89561,95.029760 L 316.23221,93.200030 L 314.56882,93.366370 L 315.06784,90.704940 L 310.90936,86.879130 L 310.57668,83.219670 L 307.74891,80.225554 L 305.58650,74.403677 L 306.58454,69.247159 L 308.41426,64.090641 L 319.89169,60.264841 L 326.71160,61.429205 L 337.02464,67.251096 L 339.51974,71.575916 L 349.16741,75.069036 L 350.33179,77.065113 L 356.81903,82.387971 L 366.13403,83.718689 L 374.28466,87.045470 L 381.60359,87.378150 L 381.43725,89.873250 L 378.77582,91.702980 L 390.75227,91.203960 L 411.87736,92.701020 L 415.53683,91.370300 L 418.86361,92.701020 L 432.00442,92.534680 L 430.34103,89.207890 L 431.17273,86.213790 L 434.33318,86.380130 L 433.33514,90.039590 L 434.66586,93.033690 L 439.82238,92.867360 L 441.31944,94.697080 L 444.64622,94.697080 L 446.47595,96.194140 L 454.95925,98.855580 L 462.27819,98.356560 L 475.41900,103.51307 L 481.40722,103.51307 L 485.06669,106.00816 L 484.73401,107.83789 L 487.56177,111.99639 L 490.05687,113.65977 L 490.88857,117.48558 L 494.71437,119.98067 L 494.38169,122.64210 L 492.55197,124.63818 L 492.55197,127.13326 L 495.04705,128.79666 L 494.71437,130.46006 L 491.05491,130.62640 L 490.05687,128.79666 L 488.06079,128.63032 L 487.06275,129.79470 L 486.23107,128.46398 L 485.23303,130.46006 L 491.88661,133.78684 L 495.37973,133.95318 L 498.54018,130.95908 L 497.37581,129.29568 L 508.52054,130.29372 L 518.50091,135.61657 L 521.49501,139.44237 L 519.16626,142.60283 L 505.52644,147.92569 L 505.02742,149.92177 L 498.87286,151.25247 L 494.88071,153.58123 L 495.21339,155.90998 L 497.54214,156.74167 L 496.37777,158.73774 L 494.21535,158.73774 L 493.21731,160.40114 L 481.73990,158.40506 L 466.60302,160.40114 L 465.43864,161.39918 L 453.79489,163.72792 L 441.31944,170.04882 L 439.65604,171.71222 L 441.48578,172.37757 L 434.99854,173.54195 L 426.18255,182.02527 L 423.85379,192.33830 L 419.02995,201.48696 L 422.68943,207.47519 L 417.69923,212.13269 L 420.19433,214.96045 L 413.87343,222.94475 L 409.71496,225.77252 L 400.23360,226.43788 L 393.74637,229.59832 L 389.58789,230.09734 L 385.92841,229.09930 L 383.26699,230.76270 L 360.31215,236.75092 L 354.32393,239.57869 L 349.33375,239.91136 L 347.17134,241.40841 L 344.50991,241.07574 L 338.52170,242.73913 L 330.03838,241.90743 L 324.54919,242.24011 L 322.71945,243.23815 L 314.56882,245.06789 L 310.07766,244.40253 L 301.26168,247.39663 L 288.95255,243.57083 L 284.79407,237.08360 L 266.99576,225.43984 L 242.87655,213.62975 L 237.05468,213.96243 L 230.23476,207.14251 L 209.27600,195.66508 L 189.64795,188.84517 L 175.17642,186.18375 L 167.69116,183.02329 L 158.37615,182.19161 L 150.55820,177.53409 L 147.39775,177.36775 L 144.73632,173.37561 L 136.75203,172.04489 L 133.42524,167.38740 L 125.77363,162.72990 L 117.29032,157.57336 L 110.13773,156.57534 L 95.167183,156.24266 L 93.171110,154.08024 L 91.507717,156.40900 L 75.206457,157.40703 L 65.558773,160.06846 L 62.564664,159.40310 L 54.081356,161.56552 L 45.431708,161.56552 L 35.285006,165.39132 L 27.467055,165.22498 L 21.977855,162.56356 L 15.656958,162.23088 L 13.494547,163.06258 L 12.829190,161.73186 z "
       id="path1198" />
  </g>
  <g
     inkscape:groupmode="layer"
     id="layer5"
     inkscape:label="Data"
     style="display:block"
     sodipodi:insensitive="1">
    <path
       sodipodi:type="arc"
       style="opacity:0.32926825;fill:none;fill-opacity:1.0000000;stroke:none;stroke-width:1.2500000;stroke-linecap:butt;stroke-linejoin:round;stroke-miterlimit:4.0000000;stroke-dasharray:10.000000 1.2500000 ;stroke-dashoffset:0.0000000;stroke-opacity:1.0000000"
       id="path2538"
       sodipodi:cx="224.91193"
       sodipodi:cy="118.61269"
       sodipodi:rx="100.89618"
       sodipodi:ry="100.89618"
       d="M 325.80811 118.61269 A 100.89618 100.89618 0 1 1  124.01575,118.61269 A 100.89618 100.89618 0 1 1  325.80811 118.61269 z"
       transform="translate(10.18107,0.625001)" />
    <path
       sodipodi:type="arc"
       style="fill:url(#pattern1941);fill-opacity:1.0000000;stroke:none;stroke-width:1.2500000;stroke-linecap:butt;stroke-linejoin:round;stroke-miterlimit:4.0000000;stroke-dasharray:10.000000 1.2500000 ;stroke-dashoffset:0.0000000;stroke-opacity:1.0000000"
       id="path2615"
       sodipodi:cx="224.91193"
       sodipodi:cy="118.61269"
       sodipodi:rx="100.89618"
       sodipodi:ry="100.89618"
       d="M 325.80811 118.61269 A 100.89618 100.89618 0 1 1  124.01575,118.61269 A 100.89618 100.89618 0 1 1  325.80811 118.61269 z"
       transform="translate(67.08068,-1.200807)" />
    <rect
       style="fill:none;stroke:none"
       width="32.232422"
       height="37.876175"
       x="183.76682"
       y="59.468407"
       id="rect2614" />
    <rect
       style="fill:none;stroke:none"
       width="32.232422"
       height="28.276169"
       x="183.76675"
       y="59.468407"
       id="rect2631" />
    <rect
       style="opacity:0.35975608;fill:none;fill-opacity:1.0000000;stroke:none;stroke-width:2.5000000;stroke-linecap:butt;stroke-linejoin:round;stroke-miterlimit:4.0000000;stroke-dashoffset:0.0000000;stroke-opacity:1.0000000"
       id="rect2684"
       width="74.524620"
       height="53.149605"
       x="379.39807"
       y="159.44879" />
    <path
       sodipodi:type="arc"
       style="opacity:0.35975608;fill:none;fill-opacity:1.0000000;stroke:none;stroke-width:1.2500000;stroke-linecap:butt;stroke-linejoin:round;stroke-miterlimit:4.0000000;stroke-dasharray:10.000000 1.2500000 ;stroke-dashoffset:0.0000000;stroke-opacity:1.0000000"
       id="path1933"
       sodipodi:cx="224.91193"
       sodipodi:cy="118.61269"
       sodipodi:rx="100.89618"
       sodipodi:ry="100.89618"
       d="M 325.80811 118.61269 A 100.89618 100.89618 0 1 1  124.01575,118.61269 A 100.89618 100.89618 0 1 1  325.80811 118.61269 z"
       transform="translate(-77.77661,5.403034)" />
  </g>
  <g
     inkscape:groupmode="layer"
     id="layer2"
     inkscape:label="Image"
     style="display:block"
     sodipodi:insensitive="1" />
  <g
     inkscape:label="MagnifyingGlass"
     inkscape:groupmode="layer"
     id="layer1"
     style="display:block"
     sodipodi:insensitive="1">
    <path
       style="fill:#ffffff;fill-opacity:1.0000000;stroke:#000000;stroke-width:6.2500019;stroke-linecap:butt;stroke-linejoin:miter;stroke-miterlimit:4.0000000;stroke-opacity:1.0000000;display:block"
       d="M 368.20404,43.354530 C 326.71301,1.8634992 259.36855,1.8413993 217.87751,43.332433 C 180.66470,80.545247 176.93676,138.51980 206.47541,180.02505 L 180.29036,206.21011 L 205.34846,231.26822 L 231.53352,205.08316 C 273.03877,234.62182 331.01334,230.89389 368.22614,193.68106 C 409.71717,152.19003 409.69507,84.845560 368.20404,43.354530 z M 355.67499,55.883582 C 390.25085,90.459446 390.27295,146.57614 355.69709,181.15201 C 321.12123,215.72788 264.98243,215.72787 230.40656,181.15201 C 195.83069,146.57615 195.83070,90.437348 230.40656,55.861485 C 264.98242,21.285615 321.09912,21.307718 355.67499,55.883582 z "
       id="path1736" />
    <rect
       style="fill:#bbab32;fill-opacity:1.0000000;stroke:#000000;stroke-width:7.6123080;stroke-linecap:butt;stroke-linejoin:round;stroke-miterlimit:4.0000000;stroke-opacity:1.0000000;display:block"
       id="rect1762"
       width="70.866165"
       height="157.65285"
       x="255.58301"
       y="15.505433"
       rx="20.000006"
       ry="20.000006"
       transform="matrix(0.707107,0.707107,-0.707107,0.707107,0.000000,0.000000)" />
    <path
       style="fill:none;fill-opacity:1.0000000;stroke:url(#linearGradient1917);stroke-width:3.7500000;stroke-linecap:butt;stroke-linejoin:miter;stroke-miterlimit:4.0000000;stroke-opacity:1.0000000;display:block"
       d="M 371.33711,108.17419 C 355.97164,150.24869 315.70869,180.36169 268.33711,180.36169 C 259.69236,180.36169 251.31362,179.25423 243.24336,177.36169 C 256.99471,190.52560 275.59334,198.67419 296.11836,198.67419 C 338.37788,198.67419 372.68087,164.37121 372.68086,122.11169 C 372.68086,117.35047 372.17017,112.69561 371.33711,108.17419 z "
       id="path2416" />
  </g>
</svg>
