<?xml version="1.0" encoding="utf-8"?>
<svg xmlns="http://www.w3.org/2000/svg">
    <defs>
<symbol id="symbol-bus_station" viewBox="226 352 452.7 703.7">
    <path fill="#0202AA" d="M452.7,308.5H21V34.7h431.7V308.5z"/>
    <path fill="none" stroke="#919191" stroke-width="36.5077" d="M18.3,0v703.7"/>
    <path fill="#FFFFFF" d="M62.1,202.6L75.8,84l350.5-0.9l-0.9,12.8l-11-1.8l0.9,40.2l7.3-0.9l0.9,70.3H355c0,0,5.5-35.6-34.7-35.6c-40.2,0-39.2,33.8-39.2,33.8H146c0,0,1.8-35.6-39.2-35.6c-31.9,0-31.9,34.7-31.9,34.7L62.1,202.6z"/>
    <path fill="#0202AA" d="M148.8,138.7h-52V104h52V138.7z"/>
    <path fill="#0202AA" d="M213.9,138.7h-52V104h52V138.7z"/>
    <path fill="#0202AA" d="M279.1,138.7h-52V104h52V138.7z"/>
    <path fill="#0202AA" d="M344.2,138.7h-52V104h52V138.7z"/>
    <path fill="#0202AA" d="M402.5,138.7h-38.3V104h38.3V138.7z"/>
    <path fill="#FFFFFF" d="M135.3,202.2c0,13.5-11,24.5-24.5,24.5s-24.5-10.9-24.5-24.5c0-13.5,11-24.5,24.5-24.5S135.3,188.7,135.3,202.2z"/>
    <path fill="#FFFFFF" d="M345.4,202.2c0,13.5-11,24.5-24.5,24.5c-13.5,0-24.5-10.9-24.5-24.5c0-13.5,11-24.5,24.5-24.5C334.4,177.7,345.4,188.7,345.4,202.2z"/>
</symbol>
    </defs>
</svg>
