<?xml version="1.0" encoding="utf-8"?>
<svg xmlns="http://www.w3.org/2000/svg">
    <defs>
        <symbol id="symbol-courthouse" viewBox="50 50 100 100">
            <g stroke='#000000' fill="none" stroke-width="6">
                <path d="M 5.5,17.6 L 87.9,17.7" />
                <path d="M 49,7.1 L 49,84.3" />
                <path d="M 2.2,65.8 L 33.1,65.9 C 30.2,73.3 28.0,81.0 17.8,81.8 C 7.1,81.0 5,72.6 2.2,65.8 z " fill='#000000' />
                <path d="M 11.0,65.9 L 16.3,17.7 L 25.7,66.5 L 25.7,66.5 L 25.7,66.5" />
                <path d="M 63.1,65.9 L 94.0,66 C 91.0,73.4 88.9,81.1 78.7,81.9 C 67.9,81.1 65.8,72.7 63.1,65.9 z " fill='#000000' />
                <path d="M 71.9,66.0 L 77.2,17.8 L 86.6,66.6 L 86.6,66.6 L 86.6,66.6" />
            </g>
        </symbol> 
    </defs>
</svg>
