/* XPM */
static char *compass[] = {
/* columns rows colors chars-per-pixel */
"63 64 256 2",
"   c #010101",
".  c #0B0003",
"X  c #01000B",
"o  c #0B0208",
"O  c #0B0C0C",
"+  c #180407",
"@  c #05021C",
"#  c #0A0B14",
"$  c #141414",
"%  c #1C1010",
"&  c #1A1A1A",
"*  c #17171C",
"=  c #240000",
"-  c #2D0000",
";  c #24070C",
":  c #370407",
">  c #2B1F0F",
",  c #261919",
"<  c #281416",
"1  c #3B1213",
"2  c #3A150A",
"3  c #183002",
"4  c #192614",
"5  c #213F04",
"6  c #27251B",
"7  c #3C381B",
"8  c #010124",
"9  c #090924",
"0  c #03032E",
"q  c #191924",
"w  c #01013D",
"e  c #0E0F33",
"r  c #211F24",
"t  c #232324",
"y  c gray17",
"u  c #352A27",
"i  c #3D3929",
"p  c #333333",
"a  c #3D3D3C",
"s  c #383B36",
"d  c #2C2C37",
"f  c #440102",
"g  c #4C0001",
"h  c #520001",
"j  c #5B0407",
"k  c #5F001C",
"l  c #4A1313",
"z  c #610000",
"x  c #6C0505",
"c  c #7B0302",
"v  c #700009",
"b  c #61110E",
"n  c #4A2216",
"m  c #65270E",
"M  c #4B0029",
"N  c #412328",
"B  c #422F35",
"V  c #403131",
"C  c #493D2A",
"Z  c #64312A",
"A  c #7B2323",
"S  c #3B5D25",
"D  c #6D651E",
"F  c #7B711E",
"G  c #5C5626",
"H  c #5C5738",
"J  c #645E3F",
"K  c #4D603B",
"L  c #55713A",
"P  c #766E2D",
"I  c #797420",
"U  c #756F3B",
"Y  c #7A7338",
"T  c #030344",
"R  c #0D0D4C",
"E  c #05054F",
"W  c #1D1D4D",
"Q  c #030354",
"!  c #01015C",
"~  c #090955",
"^  c #121354",
"/  c #1D1D5A",
"(  c #1F2242",
")  c #3A3A43",
"_  c #23235D",
"`  c #373458",
"'  c #000066",
"]  c #0F0D62",
"[  c #02026B",
"{  c #0E0D6A",
"}  c #000074",
"|  c #00007C",
" . c #1F2265",
".. c #423D41",
"X. c #434343",
"o. c #4A4A4A",
"O. c #454647",
"+. c #4F4F57",
"@. c #514E53",
"#. c #545453",
"$. c #5A5A5A",
"%. c #585557",
"&. c #58544A",
"*. c #7B4242",
"=. c #645C54",
"-. c #765C5C",
";. c #5A6351",
":. c #6E644C",
">. c #706C4B",
",. c #636457",
"<. c #727654",
"1. c #494867",
"2. c #5A5D61",
"3. c #5F6066",
"4. c #626262",
"5. c #6C6C6E",
"6. c #686965",
"7. c #6D6D7C",
"8. c #736F77",
"9. c #747374",
"0. c #797E7E",
"q. c #796968",
"w. c #860000",
"e. c #8B0000",
"r. c #9C0101",
"t. c #A40000",
"y. c #AF0000",
"u. c #B10102",
"i. c #BF0000",
"p. c #8C3413",
"a. c #C30000",
"s. c #CA0001",
"d. c #D10303",
"f. c #DC0000",
"g. c #E20000",
"h. c #ED0000",
"j. c #FC0000",
"k. c #877F1C",
"l. c #854B4A",
"z. c #837F55",
"x. c #867F7F",
"c. c #548E1C",
"v. c #79BE37",
"b. c #7CC138",
"n. c #6B8651",
"m. c #798F65",
"M. c #799262",
"N. c #9B8F16",
"B. c #9D9116",
"V. c #8E841A",
"C. c #A89A13",
"Z. c #B0A111",
"A. c #8F8325",
"S. c #9B9137",
"D. c #CEBA08",
"F. c #C3B10B",
"G. c #D2BE07",
"H. c #D6C008",
"J. c #E6CF01",
"K. c #EBD300",
"L. c #F3D900",
"P. c #928C5A",
"I. c #B3A94A",
"U. c #85877A",
"Y. c #9F9B7C",
"T. c #8BA66B",
"R. c #A5B26D",
"E. c #88C949",
"W. c #97D15E",
"Q. c #99CF65",
"!. c #9CD16A",
"~. c #99C272",
"^. c #A0D26F",
"/. c #A5D677",
"(. c #A7D57A",
"). c #DCD078",
"_. c #FCEB66",
"`. c #FEF07C",
"'. c #000085",
"]. c #000089",
"[. c #000096",
"{. c #00009C",
"}. c #0E0E98",
"|. c #0000A5",
" X c #0000AA",
".X c #0000B3",
"XX c #848484",
"oX c #8C8C8C",
"OX c #898887",
"+X c #939393",
"@X c #9D9C9C",
"#X c #949891",
"$X c #9A9582",
"%X c #ACA880",
"&X c #B4AF8D",
"*X c #A4A4A4",
"=X c #ACACAC",
"-X c #A5A7A9",
";X c #B3B3B3",
":X c #BCBBBB",
">X c #B7BABA",
",X c #ADD982",
"<X c #B2DD8C",
"1X c #BADF97",
"2X c #BFE19F",
"3X c #B5E58E",
"4X c #BBC1B4",
"5X c #BFD1B1",
"6X c #DACE97",
"7X c #E3D981",
"8X c #C0E39E",
"9X c #FAED86",
"0X c #FDF08C",
"qX c #FFF684",
"wX c #F6EC93",
"eX c #FFF591",
"rX c #FDF29C",
"tX c #FFF999",
"yX c #CCC8AC",
"uX c #CDE7B4",
"iX c #FDF3A4",
"pX c #FEF5AB",
"aX c #FFFFAE",
"sX c #FFFFB4",
"dX c #FCF5B9",
"fX c #F4EBB1",
"gX c #BEC5C5",
"hX c #C4C4C4",
"jX c #CBCBCB",
"kX c #C7C8C9",
"lX c #D1D2D2",
"zX c #DCDDDC",
"xX c #D5D8D7",
"cX c #CBCFD2",
"vX c #E0DFDF",
"bX c #DEEECD",
"nX c #DBE5D7",
"mX c #F0EECE",
"MX c #FFFBCA",
"NX c #E0E0DF",
"BX c #E7F4D4",
"VX c #FFFCD3",
"CX c #FEFCDE",
"ZX c #F6F3DA",
"AX c #DBDEE0",
"SX c #E2E2E2",
"DX c #ECECEC",
"FX c #FFFDE5",
"GX c #F1F8EA",
"HX c #FFFDE9",
"JX c #F3F3F3",
"KX c #F7FDF1",
"LX c #FFFFF6",
"PX c #FCFCFC",
"IX c #F5F8F8",
"UX c None",
/* pixels */
"UXUXUXUXUXUXUXUXUXUXUXUXUXUXUXUXUXUXUXUXUXUXUXUXUXUXUXUXUXUXUXUXUXUXUXUXUXUXUXUXUXUXUXUXUXUXUXUXUXUXUXUXUXUXUXUXUXUXUXUXUXUXUX",
"UXUXUXUXUXUXUXUXUXUXUXUXUXUXUXUXUXUXUXUXUXUXUXUXUXUXUXUXUXUXUXUXUXUXUXUXUXUXUXUXUXUXUXUXUXUXUXUXUXUXUXUXUXUXUXUXUXUXUXUXUXUXUX",
"UXUXUXUXUXUXUXUXUXUXUXUXUXUXUXUXUXUXUXUXUXUXUXUXUXUXUXUXUXUXUXUXUXUXUXUX@Xo.PXUXUXUXUXUXUXUXUXUXUXUXUXUXUXUXUXUXUXUXUXUXUXUXUX",
"UXUXUXUXUXUXUXUXUXUXUXUXUXUXUXUXUXUXUXUXUXUXUXUXUXUXUXUXUX4.  . UXUXUXIXSXUXUXUXUXUXUXUXUXUXUXUXUXUXUXUXUXUXUXUXUXUXUXUXUXUXUX",
"UXUXUXUXUXUXUXUXUXUXUXUXUXUXUXUXUXUXUXUXUXUXUXUXUXUXUXUX#.IXPX  @XUXUXp UXUXUXUXUXUXUXUXUXUXUXUXUXUXUXUXUXUXUXUXUXUXUXUXUXUXUX",
"UXUXUXUXUXUXUXUXUXUXUXUXUXUXUXUXUXUXUXUXUXUXUXUXUXUXUXUX& UXUX;X$ UXUXt UXUXUXUXUXUXUXUXUXUXUXUXUXUXUXUXUXUXUXUXUXUXUXUXUXUXUX",
"UXUXUXUXUXUXUXUXUXUXUXUXUXUXUXUXUXUXUXUXUXUXUXUXUXUXUXUX$ UXlXPX  UXUXhXUXUXUXUXUXUXUXUXUXUXUXUXUXUXUXUXUXUXUXUXUXUXUXUXUXUXUX",
"UXUXUXUXUXUXUXUXUXUXUXUXUXUXUXUXUXUXUXUXUXUXUXUXUXUXUXUXUXUXp UXt JX=XUXUXUXUXUXUXUXUXUXUXUXUXUXUXUXUXUXUXUXUXUXUXUXUXUXUXUXUX",
"UXUXUXUXUXUXUXUXUXUXUXUXUXUXUXUXUXUXUXUXUXUXUXUXUXUXUXUXUXUX>XUXkXy p UXUXUXUXUXUXUXUXUXUXUXUXUXUXUXUXUXUXUXUXUXUXUXUXUXUXUXUX",
"UXUXUXUXUXUXUXUXUXUXUXUXUXUXUXUXUXUXUXUXUXUXUXUXUXUXUXIXoXo.UXUXUX  a UXUXUXUXUXUXUXUXUXUXUXUXUXUXUXUXUXUXUXUXUXUXUXUXUXUXUXUX",
"UXUXUXUXUXUXUXUXUXUXUXUXUXUXUXUXUXUXUXUXUXUXUXUXUXUXUX:XzXPXUXUXUX#.a UXUXUXUXUXUXUXUXUXUXUXUXUXUXUXUXUXUXUXUXUXUXUXUXUXUXUXUX",
"UXUXUXUXUXUXUXUXUXUXUXUXUXUXUXUXUXUXUXUXUXUXUXUXUXUXUXUXUXUXUXUXUXPX$ =XUX*XUXUXUXUXUXUXUXUXUXUXUXUXUXUXUXUXUXUXUXUXUXUXUXUXUX",
"UXUXUXUXUXUXUXUXUXUXUXUXUXUXUXUXUXUXUXUXUXUXUXUXUXUXUXUXUXUXUXUXUXUXUXzX=XcXUXUXUXUXUXUXUXUXUXUXUXUXUXUXUXUXUXUXUXUXUXUXUXUXUX",
"UXUXUXUXUXUXUXUXUXUXUXUXUXUXUXUXUXUXUXUXUXUXUXUXUXUXUXUXUXUXUXUXUX=.UXUXUXUXUXUXUXUXUXUXUXUXUXUXUXUXUXUXUXUXUXUXUXUXUXUXUXUXUX",
"UXUXUXUXUXUXUXUXUXUXUXUXUXUXUXUXUXUXUXUXUXUXUXUXUXUXUXUXUXUXUXUX*X+ UXUXUXUXUXUXUXUXUXUXUXUXUXUXUXUXUXUXUXUXUXUXUXUXUXUXUXUXUX",
"UXUXUXUXUXUXUXUXUXUXUXUXUXUXUXUXUXUXUXUXUXUXUXUXUXUXUXUXUXUXUXUX, g UXUXUXUXUXUXUXUXUXUXUXUXUXUXUXUXUXUXUXUXUXUXUXUXUXUXUXUXUX",
"UXUXUXUXUXUXUXUXUXUXUXUXUXUXUXUXUXUXUXUXUXUXUXUXUXUXUXUXUXUXUXUXb j IXUXUXUXUXUXUXUXUXUXUXUXUXUXUXUXUXUXUXUXUXUXUXUXUXUXUXUXUX",
"UXUXUXUXUXUXUXUXUXUXUXUXUXUXUXUXUXUXUXUXUXUXUXUXUXUXUXUXUXUXUXUXf.: x.UXUXUXUXUXUXUXUXUXUXUXUXUXUXUXUXUXUXUXUXUXUXUXUXUXUXUXUX",
"UXUXUXUXUXUXUXUXUXUXUXUXUXUXUXUXUXUXUXUXUXUXUXUXUXUXUXUXUXUXUX:Xg.; % UXUXUXUXUXUXUXUXUXUXUXUXUXUXUXUXUXUXUXUXUXUXUXUXUXUXUXUX",
"UXUXUXUXUXUXUXUXUXUXUXUXUXUXUXUXUXUXUXUXUXUXUXUXUXUXUXUXUXUXUXV s.o c UXUXUXUXUXUXUXUXUXUXUXUXUXUXUXUXUXUXUXUXUXUXUXUXUXUXUXUX",
"UXUXUXUXUXUXUXUXUXUXUXUXUXUXUXUXUXUXUXUXUXoXzXUXUXUXUXUXUXUXUXl y.o h.UXUXUXUXUXUXUXUXUXJXUXUXUXUXUXUXUXUXUXUXUXUXUXUXUXUXUXUX",
"UXUXUXUXUXUXUXUXUXUXUXUXUXUXUXUXUXUXUXUXUXUXX $.UXUXUXUXUXDX6.- 1 @ f 4.UXUXUXUXUXUXUXO.oXUXUXUXUXUXUXUXUXUXUXUXUXUXUXUXUXUXUX",
"UXUXUXUXUXUXUXUXUXUXUXUXUXUXUXUXUXUXUXUXUXUXkX[.W NXUX>X;.:XZXUX%.R sXSXM.o.PXUXUX:X~ 9 UXUXUXUXUXUXUXUXUXUXUXUXUXUXUXUXUXUXUX",
"UXUXUXUXUXUXUXUXUXUXUXUXUXUXUXUXUXUXUXUXUXUXUXa  X} a yXUX1XUXFXq ' _.UXb.UXS.#X#.'.' JXUXUXUXUXUXUXUXUXUXUXUXUXUXUXUXUXUXUXUX",
"UXUXUXUXUXUXUXUXUXUXUXUXUXUXUXUXUXUXUXUXUXUXUXUXT  X|.).UXE.UXrX# ].0XKXGXFXHXE  X XXXUXUXUXUXUXUXUXUXUXUXUXUXUXUXUXUXUXUXUXUX",
"UXUXUXUXUXUXUXUXUXUXUXUXUXUXUXUXUXUXUXUXUXUXUXUXt | Q 9.qXPX4XG 0  X<.v.UX0XUX]..X8 UXUXUXUXUXUXUXUXUXUXUXUXUXUXUXUXUXUXUXUXUX",
"UXUXUXUXUXUXUXUXUXUXUXUXUXUXUXUXUXUXUXUXUXUXUX@X9XcXyXg Z ,.c.tX~  XzXU.<.NXl o +.P.UXUXUXUXUXUXUXUXUXUXUXUXUXUXUXUXUXUXUXUXUX",
"UXUXUXUXUXUXUXUXUXUXUXUXa @XUXUXUXUXUXUXUXUXUX9.UXrXVX@.j r.<.FX'. XM.FX&.z f wXMXUXO.UXUXUXUXUXUXUXUXUXUXUXUXUXUXUXUXUXUXUXUX",
"UXUXUX=XXXXXSXUXPX=XUXUXOX9.UXUXUXUXUXUXUXUX:X,X(.UXCXC h h g.C  X X4 m u.r.i UXBXQ.m.UXUXUXUXUXUXUXUXUXUXUXUXoX9.4.XX$.zXUXUX",
"UXUX$.SXUX  UXUX& +XUXUXy DXUXUXUXUXUXUXUXxXr UXPX<Xn.bX6Xf.h p.:.` @ a.t.N n./.uXUXUXjXUXUXUXUXUXUXUXUXUXjX=XDX$ UXUX@XIXUXUX",
"UXUX& UXjX& UX+XX.=XUXUXy UXUXUXUXhX0.J e.a.:.sXaXpX6 T.L O s K.Z.D.D.n c <XBXY.tXrXpXu XXxXUXUXUXUXUXUXUX  UXUX  UXUXUXUXUXUX",
"UXUXy UX0.9.PX@Xp jXUXXXUXSX9.B . : c v k M / ] ' ' } ].|.}.G.F N.N.D.D R H P 6 -XjXDX; j.i.e.l.XXjXUXUXUX& UXJXO hXkXUXUXUXUX",
"UXUXUXUXy jXX.UX& vXDXlXUXJX@Xq.l f c r.w.w.+.1._ Q ! ' ].{ K.G V.C.Z.H  X.X.X.X{.].! T 0 @ X + : -   u UXUXUX#.+XjXJXUXUXUXUX",
"UXUXUXUX  #XUXUX  PX5.UXUXUXUXUXUXIX-X9.A e.XXLXVXsX>.iXR.c I F.N.k.L.X.! ^ ` t P z.@X: f.f.t.w.l.OXlXUXUXUXUX  UXUXUXUXJXUXUX",
"UXUXUXUX  *XUXUX  X.UXUXUXUXUXUXUXUXUXUXUXUX7 dXFXUX4 /.> d.b A.L.H.G y.,.3X<X5XUXVXiX2 -.OXAXUXUXUXUXUXUXUXIX*XUXUXUX#.zXUXUX",
"UXUXUXUXo.UXUXUXy PXUXUXUXUXUXUXUXUXUXUXUXUX4.GX,X!.NXU.a.e.e.^  .( d.g d.).) uX/.2XDXUXUXUXUXUXUXUXUXUXUXkXp $.#.#.o.=XUXUXUX",
"UXUXUXUXUXUXUXUXUXUXUXUXUXUXUXUXUXUXUXUXUXUXIX~.UXPXwXz v Z mXe  X9 S t.h h dXpXUXGX3 UXUXUXUXUXUXUXUXUXUXUXUXUXUXUXUXUXUXUXUX",
"UXUXUXUXUXUXUXUXUXUXUXUXUXUXUXUXUXUXUXUXUXUXUXp fX7X< = 2.I.W.O  X* GXnXh h %.UXeXCX:XUXUXUXUXUXUXUXUXUXUXUXUXUXUXUXUXUXUXUXUX",
"UXUXUXUXUXUXUXUXUXUXUXUXUXUXUXUXUXUXUXUXUXUXUXIX0 ' X SXeXlXK & |.d oX5 CX=.= 7.2.V UXUXUXUXUXUXUXUXUXUXUXUXUXUXUXUXUXUXUXUXUX",
"UXUXUXUXUXUXUXUXUXUXUXUXUXUXUXUXUXUXUXUXUXUXUXXX X X# HXFXuXUXU  XOXsX8XUX`.)  X[.xXUXUXUXUXUXUXUXUXUXUXUXUXUXUXUXUXUXUXUXUXUX",
"UXUXUXUXUXUXUXUXUXUXUXUXUXUXUXUXUXUXUXUXUXUXIX} |.R 9.qXUXv.UX%X XyX_.UX2XUXG |  Xw UXUXUXUXUXUXUXUXUXUXUXUXUXUXUXUXUXUXUXUXUX",
"UXUXUXUXUXUXUXUXUXUXUXUXUXUXUXUXUXUXUXUXUXUX9 | $.UXzX5.xXGXPXnX|.IX0XUXE.=X+.:X~  XO.UXUXUXUXUXUXUXUXUXUXUXUXUXUXUXUXUXUXUXUX",
"UXUXUXUXUXUXUXUXUXUXUXUXUXUXUXUXUXUXUXUXUX+X^ jXUXUXUXUX#X$.Y.>X{.kX&XOX@.DXUXUXUXo.} lXUXUXUXUXUXUXUXUXUXUXUXUXUXUXUXUXUXUXUX",
"UXUXUXUXUXUXUXUXUXUXUXUXUXUXUXUXUXUXUXUXUXo.UXUXUXUXUXUXUXUX, j.[ f.u UXUXUXUXUXUXUX;X  UXUXUXUXUXUXUXUXUXUXUXUXUXUXUXUXUXUXUX",
"UXUXUXUXUXUXUXUXUXUXUXUXUXUXUXUXUXUXUXUXUXUXUXUXUXUXUXUXUXUX@Xj.T j.>XUXUXUXUXUXUXUXUXUXUXUXUXUXUXUXUXUXUXUXUXUXUXUXUXUXUXUXUX",
"UXUXUXUXUXUXUXUXUXUXUXUXUXUXUXUXUXUXUXUXUXUXUXUXUXUXUXUXUXUXUXh.8 f.UXUXUXUXUXUXUXUXUXUXUXUXUXUXUXUXUXUXUXUXUXUXUXUXUXUXUXUXUX",
"UXUXUXUXUXUXUXUXUXUXUXUXUXUXUXUXUXUXUXUXUXUXUXUXUXUXUXUXUXUXUXc   x UXUXUXUXUXUXUXUXUXUXUXUXUXUXUXUXUXUXUXUXUXUXUXUXUXUXUXUXUX",
"UXUXUXUXUXUXUXUXUXUXUXUXUXUXUXUXUXUXUXUXUXUXUXUXUXUXUXUXUXUXUX%   , UXUXUXUXUXUXUXUXUXUXUXUXUXUXUXUXUXUXUXUXUXUXUXUXUXUXUXUXUX",
"UXUXUXUXUXUXUXUXUXUXUXUXUXUXUXUXUXUXUXUXUXUXUXUXUXUXUXUXUXUXUXXX  @XUXUXUXUXUXUXUXUXUXUXUXUXUXUXUXUXUXUXUXUXUXUXUXUXUXUXUXUXUX",
"UXUXUXUXUXUXUXUXUXUXUXUXUXUXUXUXUXUXUXUXUXUXUXUXUXUXUXUXUXUXUXIX  PXUXUXUXUXUXUXUXUXUXUXUXUXUXUXUXUXUXUXUXUXUXUXUXUXUXUXUXUXUX",
"UXUXUXUXUXUXUXUXUXUXUXUXUXUXUXUXUXUXUXUXUXUXUXUXUXUXUXUXUXUXUXUX  UXUXUXUXUXUXUXUXUXUXUXUXUXUXUXUXUXUXUXUXUXUXUXUXUXUXUXUXUXUX",
"UXUXUXUXUXUXUXUXUXUXUXUXUXUXUXUXUXUXUXUXUXUXUXUXUXUXUXUXUXUXUXUXy UXUXUXUXUXUXUXUXUXUXUXUXUXUXUXUXUXUXUXUXUXUXUXUXUXUXUXUXUXUX",
"UXUXUXUXUXUXUXUXUXUXUXUXUXUXUXUXUXUXUXUXUXUXUXUXUXUXUXUXUXUXUXUXUXUXUXUXUXUXUXUXUXUXUXUXUXUXUXUXUXUXUXUXUXUXUXUXUXUXUXUXUXUXUX",
"UXUXUXUXUXUXUXUXUXUXUXUXUXUXUXUXUXUXUXUXUXUXUXUXUXUXUXUXUXUXUXUX*X$ ;XUXUXUXUXUXUXUXUXUXUXUXUXUXUXUXUXUXUXUXUXUXUXUXUXUXUXUXUX",
"UXUXUXUXUXUXUXUXUXUXUXUXUXUXUXUXUXUXUXUXUXUXUXUXUXUXUXUXUXUXUX6.UXUX+XUXUXUXUXUXUXUXUXUXUXUXUXUXUXUXUXUXUXUXUXUXUXUXUXUXUXUXUX",
"UXUXUXUXUXUXUXUXUXUXUXUXUXUXUXUXUXUXUXUXUXUXUXUXUXUXUXUXUXUXUXO UXUXUXUXUXUXUXUXUXUXUXUXUXUXUXUXUXUXUXUXUXUXUXUXUXUXUXUXUXUXUX",
"UXUXUXUXUXUXUXUXUXUXUXUXUXUXUXUXUXUXUXUXUXUXUXUXUXUXUXUXUXUXUX  =XUXUXUXUXUXUXUXUXUXUXUXUXUXUXUXUXUXUXUXUXUXUXUXUXUXUXUXUXUXUX",
"UXUXUXUXUXUXUXUXUXUXUXUXUXUXUXUXUXUXUXUXUXUXUXUXUXUXUXUXUXUXUXIX  +XUXUXUXUXUXUXUXUXUXUXUXUXUXUXUXUXUXUXUXUXUXUXUXUXUXUXUXUXUX",
"UXUXUXUXUXUXUXUXUXUXUXUXUXUXUXUXUXUXUXUXUXUXUXUXUXUXUXUXUXUXUXUXIX  UXUXUXUXUXUXUXUXUXUXUXUXUXUXUXUXUXUXUXUXUXUXUXUXUXUXUXUXUX",
"UXUXUXUXUXUXUXUXUXUXUXUXUXUXUXUXUXUXUXUXUXUXUXUXUXUXUXUXSXPXUXUXPX$.UXUXUXUXUXUXUXUXUXUXUXUXUXUXUXUXUXUXUXUXUXUXUXUXUXUXUXUXUX",
"UXUXUXUXUXUXUXUXUXUXUXUXUXUXUXUXUXUXUXUXUXUXUXUXUXUXUXUX& #.IXIXs UXUXUXUXUXUXUXUXUXUXUXUXUXUXUXUXUXUXUXUXUXUXUXUXUXUXUXUXUXUX",
"UXUXUXUXUXUXUXUXUXUXUXUXUXUXUXUXUXUXUXUXUXUXUXUXUXUXUXUXUXOX9.SXUXUXUXUXUXUXUXUXUXUXUXUXUXUXUXUXUXUXUXUXUXUXUXUXUXUXUXUXUXUXUX",
"UXUXUXUXUXUXUXUXUXUXUXUXUXUXUXUXUXUXUXUXUXUXUXUXUXUXUXUXUXUXUXUXUXUXUXUXUXUXUXUXUXUXUXUXUXUXUXUXUXUXUXUXUXUXUXUXUXUXUXUXUXUXUX",
"UXUXUXUXUXUXUXUXUXUXUXUXUXUXUXUXUXUXUXUXUXUXUXUXUXUXUXUXUXUXUXUXUXUXUXUXUXUXUXUXUXUXUXUXUXUXUXUXUXUXUXUXUXUXUXUXUXUXUXUXUXUXUX"
};
