<?xml version="1.0" encoding="UTF-8" standalone="no"?>
<!-- Created with Inkscape (http://www.inkscape.org/) -->
<svg
   xmlns:dc="http://purl.org/dc/elements/1.1/"
   xmlns:cc="http://creativecommons.org/ns#"
   xmlns:rdf="http://www.w3.org/1999/02/22-rdf-syntax-ns#"
   xmlns:svg="http://www.w3.org/2000/svg"
   xmlns="http://www.w3.org/2000/svg"
   xmlns:sodipodi="http://sodipodi.sourceforge.net/DTD/sodipodi-0.dtd"
   xmlns:inkscape="http://www.inkscape.org/namespaces/inkscape"
   width="20"
   height="20"
   id="svg2385"
   sodipodi:version="0.32"
   inkscape:version="0.46"
   version="1.0"
   sodipodi:docname="atm.svg"
   inkscape:output_extension="org.inkscape.output.svg.inkscape">
  <defs
     id="defs2387">
    <inkscape:perspective
       sodipodi:type="inkscape:persp3d"
       inkscape:vp_x="0 : 526.18109 : 1"
       inkscape:vp_y="0 : 1000 : 0"
       inkscape:vp_z="744.09448 : 526.18109 : 1"
       inkscape:persp3d-origin="372.04724 : 350.78739 : 1"
       id="perspective2393" />
    <inkscape:perspective
       id="perspective2413"
       inkscape:persp3d-origin="372.04724 : 350.78739 : 1"
       inkscape:vp_z="744.09448 : 526.18109 : 1"
       inkscape:vp_y="0 : 1000 : 0"
       inkscape:vp_x="0 : 526.18109 : 1"
       sodipodi:type="inkscape:persp3d" />
  </defs>
  <sodipodi:namedview
     id="base"
     pagecolor="#ffffff"
     bordercolor="#666666"
     borderopacity="1.0"
     gridtolerance="10000"
     guidetolerance="10"
     objecttolerance="10"
     inkscape:pageopacity="0.0"
     inkscape:pageshadow="2"
     inkscape:zoom="31.678384"
     inkscape:cx="7.9558806"
     inkscape:cy="9.6235738"
     inkscape:document-units="px"
     inkscape:current-layer="layer1"
     showgrid="false"
     inkscape:window-width="1146"
     inkscape:window-height="882"
     inkscape:window-x="249"
     inkscape:window-y="273" />
  <metadata
     id="metadata2390">
    <rdf:RDF>
      <cc:Work
         rdf:about="">
        <dc:format>image/svg+xml</dc:format>
        <dc:type
           rdf:resource="http://purl.org/dc/dcmitype/StillImage" />
      </cc:Work>
    </rdf:RDF>
  </metadata>
  <g
     inkscape:label="Layer 1"
     inkscape:groupmode="layer"
     id="layer1">
    <path
       style="fill:#000000;fill-opacity:1;fill-rule:evenodd;stroke:#000000;stroke-width:0.10947382;stroke-linecap:butt;stroke-linejoin:miter;stroke-miterlimit:4;stroke-dasharray:none;stroke-opacity:1"
       d="M 4.9278227,4.4824438 L 2.8457825,17.656773 L 16.915327,17.656773 L 14.864833,4.4445865 L 4.9278227,4.4824438 z"
       id="path2425" />
    <rect
       style="stroke-width:2.49099994;stroke-linecap:round;stroke-miterlimit:4;stroke-dasharray:none"
       id="rect2397"
       width="14.015866"
       height="3.0304577"
       x="2.841054"
       y="1.4384469" />
    <path
       style="fill:#ffffff;stroke:none"
       d="M 9.4571335,15.333227 C 8.7115335,15.333227 6.6238535,15.034987 6.7729735,13.692907 C 6.9220935,12.350827 8.4132935,13.096427 9.4571335,13.245547 L 9.4571335,11.306987 C 8.2641735,11.008747 6.7729735,10.114027 6.7729735,8.4737071 C 6.7729735,6.8333871 8.2641735,5.7895471 9.4571335,5.7895471 C 9.4571335,4.8948271 9.4571335,4.5965871 9.9044935,4.5965871 C 10.351854,4.5965871 10.351854,4.8948271 10.351854,5.7895471 C 11.246573,5.7895471 13.334253,6.0877871 12.886893,7.1316271 C 12.439533,8.1754671 11.097454,7.7281071 10.351854,7.5789871 L 10.351854,9.5175471 C 11.693933,9.8157871 13.185133,10.710507 13.185133,12.350827 C 13.185133,13.991147 11.843053,15.333227 10.351854,15.333227 C 10.351854,16.227947 10.351854,16.526187 9.9044935,16.526187 C 9.4571335,16.526187 9.4571335,16.227947 9.4571335,15.333227 z M 9.4571335,9.2193071 L 9.4571335,7.5789871 C 8.4132935,7.7281071 8.4132935,9.0701871 9.4571335,9.2193071 z M 10.351854,11.605227 L 10.351854,13.245547 C 11.395693,13.096427 11.395693,11.754347 10.351854,11.605227 z"
       id="path5" />
  </g>
</svg>
