<?xml version="1.0" encoding="UTF-8" standalone="no"?>
<svg
   xmlns:svg="http://www.w3.org/2000/svg"
   xmlns="http://www.w3.org/2000/svg"
   version="1.0"
   width="16"
   height="16"
   id="svg2482">
  <defs
     id="defs2484" />
  <g
     id="layer1">
    <path
       d="M 12.447258,11.875855 C 10.555437,11.644165 9.3084028,9.8338722 9.7779778,8.0008932 C 9.9975228,7.1439242 10.485886,6.5245772 11.363302,5.9904262 C 11.397062,5.9698572 11.397157,5.9613302 11.364481,5.8834122 C 11.344949,5.8368512 11.321727,5.8029502 11.312888,5.8080972 C 11.304058,5.8132492 10.371997,6.1211722 9.2416588,6.4923902 C 8.1113268,6.8635952 7.0131028,7.2267072 6.8011508,7.2992802 C 6.5892028,7.3718852 6.3875292,7.4312542 6.3529695,7.4312542 C 6.2799433,7.4312542 6.2261098,7.3782272 6.0695702,7.1520272 C 5.6944996,6.6100342 5.2238541,6.1426012 4.7798899,5.8711102 C 4.4707468,5.6820682 4.2387692,5.5853512 3.8245471,5.4728142 C 3.6106885,5.4147082 2.8158297,5.4148042 2.5624164,5.4729752 C 2.1511129,5.5673862 1.761979,5.7112052 1.4130431,5.8977862 L 1.2242273,5.9987462 L 1.1393953,5.8424052 C 1.0927393,5.7564182 1.0545633,5.6822272 1.0545633,5.6775092 C 1.0545633,5.6591562 1.4575506,5.4587172 1.6800447,5.3664152 C 2.1707897,5.1628172 2.5856888,5.0674052 3.0650368,5.0478892 C 4.0550457,5.0075722 4.9420009,5.3788142 5.723983,6.1607872 C 5.9467877,6.3836002 6.2476481,6.7451862 6.365667,6.9320142 C 6.3994009,6.9854032 6.4325831,7.0291072 6.4393984,7.0291252 C 6.4462187,7.0291462 6.5185752,7.0065472 6.6001688,6.9789062 L 6.7485338,6.9286452 L 6.3492394,6.1579652 L 5.9499354,5.3872712 L 5.5273541,5.3812172 C 4.9708931,5.3732532 5.0002148,5.3989312 4.9899865,4.9108532 C 4.9857103,4.7065862 4.9924938,4.5277642 5.006268,4.4815692 C 5.0407472,4.3659832 5.2508588,4.1474892 5.3275345,4.1474892 C 5.3607853,4.1474892 5.7423948,4.2885962 6.1755476,4.4610732 C 6.7506418,4.6900682 6.9748238,4.7894662 7.0064768,4.8295242 C 7.0688768,4.9084952 7.1529998,5.1260672 7.1529998,5.2084672 C 7.1529998,5.2532772 7.1341568,5.2966662 7.1012878,5.3275352 C 7.0529038,5.3730112 7.0279208,5.3761122 6.7103748,5.3761122 C 6.5238038,5.3761122 6.3711578,5.3814852 6.3711578,5.3880512 C 6.3711578,5.3974852 7.0808298,6.7783372 7.0969998,6.8003722 C 7.1033568,6.8090212 11.137862,5.4844042 11.156836,5.4674452 C 11.172698,5.4532682 10.459284,3.8363082 10.436777,3.8354222 C 10.430643,3.8351872 10.325086,3.9152932 10.202218,4.0134562 C 10.004744,4.1712262 9.9681648,4.1919372 9.8869818,4.1920502 C 9.8092218,4.1921482 8.5868218,3.9133512 8.5637258,3.8902552 C 8.5482178,3.8747612 8.6359228,3.5443462 8.6555248,3.5443462 C 8.6665258,3.5443462 8.9277528,3.6046662 9.2360038,3.6783872 C 9.5442618,3.7520922 9.8112048,3.8124042 9.8292028,3.8124042 C 9.8472048,3.8124042 9.9818178,3.7161862 10.128325,3.5985652 C 10.274847,3.4809572 10.422617,3.3750272 10.456676,3.3631372 C 10.553925,3.3292362 10.62835,3.3707072 10.690182,3.4932172 C 10.737487,3.5869512 11.379524,5.0065652 11.488299,5.2579082 L 11.52899,5.3519112 L 11.692127,5.2963652 C 12.095098,5.1591102 12.634245,5.0961482 13.101765,5.1317302 C 13.76515,5.1822042 14.345363,5.3787752 14.882876,5.7351622 C 15.268073,5.9905572 15.702245,6.4676772 15.960376,6.9192252 L 16.018812,7.0214922 L 15.859205,7.1127002 L 15.699614,7.2039112 L 15.597568,7.0327872 C 15.207235,6.3781062 14.612676,5.8969572 13.899262,5.6584492 C 13.445084,5.5066012 12.813445,5.4495252 12.357896,5.5191882 C 12.126963,5.5545122 11.739205,5.6549472 11.702419,5.6889862 C 11.687845,5.7024532 11.710822,5.7759092 11.742405,5.8168262 C 11.744582,5.8196322 11.862982,5.7924692 12.005542,5.7564692 C 12.948165,5.5184072 13.945843,5.7193132 14.697121,6.2984712 C 15.322538,6.7806272 15.757886,7.5228432 15.878027,8.3117492 C 16.081708,9.6493602 15.376698,10.985653 14.156147,11.575331 C 13.85875,11.719028 13.707556,11.770885 13.408598,11.831811 C 13.145673,11.885378 12.694047,11.906076 12.447258,11.875855 z M 13.265178,11.484645 C 14.373542,11.291358 15.259194,10.429217 15.487669,9.3211082 C 15.541212,9.0614452 15.551622,8.5926282 15.509557,8.3359882 C 15.349214,7.3575092 14.635923,6.4997512 13.718618,6.1823242 C 13.430323,6.0825652 13.223076,6.0441942 12.898827,6.0305472 C 12.582245,6.0172122 12.382846,6.0385122 12.082405,6.1177172 C 11.944102,6.1541772 11.909542,6.1714122 11.917417,6.1999882 C 11.922885,6.2198852 12.116378,6.6556852 12.347365,7.1684682 L 12.767365,8.1007882 L 12.847462,8.1141492 C 13.048325,8.1476852 13.197285,8.2430852 13.294565,8.4004682 C 13.504042,8.7394122 13.274996,9.2165502 12.873956,9.2766922 C 12.566493,9.3227952 12.255716,9.0843802 12.212356,8.7691252 C 12.192083,8.6216502 12.248965,8.4359532 12.348047,8.3262922 L 12.425756,8.2402732 L 12.000376,7.2946312 C 11.766405,6.7745472 11.567681,6.3419082 11.558759,6.3332322 C 11.535603,6.3107082 11.284538,6.4671692 11.069445,6.6381552 C 10.561541,7.0419752 10.203178,7.6467952 10.091524,8.2886382 C 10.047283,8.5430272 10.047302,9.0004542 10.091602,9.2544182 C 10.26271,10.235644 10.968517,11.055668 11.922298,11.381393 C 12.032877,11.419152 12.203763,11.464528 12.302047,11.482204 C 12.546618,11.526212 13.019966,11.527411 13.265178,11.484645 z M 12.940422,8.8403072 C 13.071302,8.7094282 12.999427,8.5134042 12.811302,8.4881652 C 12.728127,8.4770122 12.709738,8.4833132 12.649382,8.5436692 C 12.556378,8.6366902 12.555302,8.7490312 12.646565,8.8403072 C 12.736701,8.9304302 12.850298,8.9304302 12.940422,8.8403072 z M 6.5230492,5.0067862 C 6.4945383,4.9782662 5.4023046,4.5520622 5.3850675,4.5627252 C 5.3745352,4.5692322 5.3659216,4.6744852 5.3659216,4.7966272 L 5.3659216,5.0187072 L 5.9504409,5.0187072 C 6.2719234,5.0187072 6.5296149,5.0133322 6.5230492,5.0067862 z M 2.5959231,11.786965 C 1.4730852,11.588851 0.53330622,10.782708 0.17437902,9.7098052 C 0.054570124,9.3516682 0.017374624,9.1085642 0.018854324,8.6933932 C 0.020794224,8.1503242 0.11235912,7.7696452 0.35651722,7.2895732 C 0.88953332,6.2415322 1.9341186,5.6003072 3.1115091,5.5984052 C 3.4686835,5.5978292 3.6617507,5.6235172 3.9809207,5.7140942 C 4.464236,5.8512522 4.9192293,6.1158922 5.2896348,6.4752702 C 5.7155248,6.8884682 6.0044898,7.3838662 6.1483968,7.9475252 C 6.1726227,8.0424052 6.1924433,8.1458122 6.1924433,8.1773252 C 6.1924433,8.2188682 6.20625,8.2373502 6.2427034,8.2446272 C 6.2703573,8.2501492 6.6347468,8.2651482 7.0524838,8.2779722 C 7.6049648,8.2949322 7.8480348,8.3107722 7.9442058,8.3360712 C 8.3232768,8.4358452 8.6240018,8.7227072 8.7498428,9.1045912 C 8.8051208,9.2723242 8.8058858,9.5922442 8.7514158,9.7531912 C 8.6262178,10.123028 8.3455408,10.394337 7.9700018,10.508525 C 7.9021468,10.529148 7.7760018,10.542547 7.6556218,10.541908 C 7.4716318,10.540906 7.3891498,10.522612 6.6838948,10.326388 C 6.2600098,10.208468 5.9099928,10.121588 5.9060855,10.133325 C 5.9021526,10.145066 5.8435279,10.242955 5.7757835,10.350868 C 5.1833903,11.294426 4.2037976,11.835546 3.0985463,11.829758 C 2.9433855,11.828933 2.7316927,11.810931 2.5959231,11.786965 z M 3.6757569,11.404468 C 4.4131327,11.259312 5.0787861,10.790449 5.4746404,10.137377 C 5.5145549,10.071546 5.544115,10.015066 5.54033,10.011891 C 5.5365444,10.008701 4.9604707,9.8480922 4.2601558,9.6549742 C 3.5598417,9.4618552 2.9388033,9.2832502 2.8800825,9.2580682 C 2.7503534,9.2024352 2.5921186,9.0331892 2.5554673,8.9108772 C 2.4640655,8.6058112 2.5926593,8.3221062 2.8765824,8.2024712 C 3.0201496,8.1419892 3.1933845,8.1405322 4.5381285,8.1884852 C 5.2438893,8.2136522 5.8244358,8.2311522 5.8282139,8.2273672 C 5.8392505,8.2163342 5.7488506,7.8781072 5.6990105,7.7440052 C 5.6353432,7.5726452 5.4727473,7.2713872 5.3565572,7.1095242 C 4.9891339,6.5975872 4.4438182,6.2183692 3.8444763,6.0579722 C 2.2740929,5.6377122 0.69751972,6.6468182 0.41772062,8.2513122 C 0.37452222,8.4990282 0.37530452,8.9304852 0.41941132,9.1848492 C 0.56562812,10.027988 1.110061,10.766311 1.8727071,11.155732 C 2.4484342,11.449711 3.0349105,11.530612 3.6757569,11.404468 z M 7.9441008,10.133029 C 8.3215228,9.9918282 8.5236218,9.5429312 8.3805378,9.1636322 C 8.3198448,9.0027652 8.1701818,8.8352502 8.0134808,8.7527972 C 7.9164208,8.7017482 7.8743218,8.6937952 7.7002978,8.6937232 C 7.5217768,8.6936502 7.4845828,8.7010442 7.3682868,8.7598032 C 6.9349408,8.9787462 6.8042988,9.5713252 7.1122488,9.9211722 C 7.3149968,10.151508 7.6599418,10.239348 7.9441008,10.133029 z M 6.6838948,9.9268182 C 6.6838948,9.9233482 6.6621838,9.8605062 6.6356628,9.7872052 C 6.6046138,9.7014282 6.5837608,9.5802052 6.5771288,9.4469492 C 6.5638138,9.1791762 6.6179288,8.9980672 6.7727228,8.7924682 C 6.8322638,8.7134092 6.8793538,8.6471762 6.8773608,8.6452852 C 6.8642778,8.6328052 3.6623552,8.5242302 3.650715,8.5358852 C 3.6455812,8.5410112 3.6534692,8.5818122 3.6682357,8.6265492 C 3.7006913,8.7248712 3.6826048,8.8678702 3.6229046,8.9849652 C 3.5990356,9.0317922 3.5848556,9.0754582 3.5914112,9.0820052 C 3.6019224,9.0925252 5.1897906,9.5346352 5.8461994,9.7098302 C 5.9813405,9.7459082 6.2125435,9.8100682 6.3599827,9.8524312 C 6.6138088,9.9253512 6.6838948,9.9414542 6.6838948,9.9268182 z M 3.1995207,8.9165492 C 3.2805252,8.8746542 3.3107635,8.8202012 3.3107635,8.7161862 C 3.3107635,8.5984052 3.2310113,8.5258532 3.1015481,8.5258532 C 3.0178043,8.5258532 2.9928128,8.5367722 2.9441632,8.5945862 C 2.8621951,8.6919982 2.8678912,8.7799382 2.9622814,8.8743332 C 3.0457496,8.9578112 3.1007957,8.9675912 3.1995207,8.9165492 z"
       id="path3326"
       style="fill:#000000;display:inline" />
  </g>
</svg>
