<?xml version="1.0" encoding="UTF-8" standalone="no"?>
<!-- Created with Inkscape (http://www.inkscape.org/) -->
<svg
   xmlns:svg="http://www.w3.org/2000/svg"
   xmlns="http://www.w3.org/2000/svg"
   version="1.0"
   width="15.999155"
   height="16.000898"
   id="svg2"
   style="display:inline">
  <defs
     id="defs4">
    <symbol
       viewBox="244.5 110 489 219.9"
       id="symbol-curling">
      <path
         d="M 79,43 L 136,162 C 136,162 157,66 240,66 C 323,66 364,172 364,172 L 407,39 L 489,22 L 0,17 L 79,43 z"
         id="path4460" />
      <path
         d="M 94,176 L 73,215"
         id="path4462"
         style="fill:none;stroke:#000000;stroke-width:20" />
      <path
         d="M 300,19 C 300,29.5 277.4,38 249.5,38 C 221.6,38 199,29.5 199,19 C 199,8.5 221.6,0 249.5,0 C 277.4,0 300,8.5 300,19 z"
         id="path4464" />
      <path
         d="M 112,216 L 96,178 L 64,88 C 64,88 55,80 60,53 C 65,26 76,29 76,29"
         id="path4466"
         style="stroke:#000000;stroke-width:20" />
    </symbol>
  </defs>
  <g
     transform="matrix(48.14969,0,0,48.14969,-536.27372,-597.3063)"
     id="layer3"
     style="stroke:#757575;stroke-opacity:1;display:none">
    <rect
       width="10"
       height="10"
       x="1"
       y="1"
       id="rect4134"
       style="fill:none;stroke:#757575;stroke-width:0.1;stroke-miterlimit:4;stroke-dasharray:none;stroke-opacity:1;display:inline" />
    <rect
       width="8"
       height="8"
       x="2"
       y="2"
       id="rect4136"
       style="fill:none;stroke:#757575;stroke-width:0.1;stroke-miterlimit:4;stroke-dasharray:none;stroke-opacity:1;display:inline" />
  </g>
  <g
     transform="matrix(2.5955276e-2,0,0,2.5913051e-2,0.452451,0.4776129)"
     id="g3194">
    <path
       d="M 67.122779,1.6484778 C 25.787779,1.6484778 2.5517791,23.019478 2.5517791,66.684478 L 2.5517791,516.80748 C 2.5517791,557.65148 23.446779,579.03648 64.743779,579.03648 L 516.76778,579.03648 C 558.07478,579.03648 578.99678,558.72148 578.99678,516.80748 L 578.99678,66.684478 C 578.99678,24.083478 558.07478,1.6484778 515.47578,1.6484778 C 515.47178,1.6484778 66.980779,1.5054778 67.122779,1.6484778 z"
       id="path1329"
       style="fill:none;stroke:#000000;stroke-width:40;stroke-miterlimit:4;stroke-dasharray:none;stroke-opacity:1" />
    <g
       id="g3188">
      <rect
         width="118.49619"
         height="18.15666"
         x="406.64481"
         y="467.6058"
         id="rect1873"
         style="fill:#000000;fill-opacity:1;fill-rule:nonzero;stroke:none;stroke-width:3.12500119;stroke-linecap:butt;stroke-linejoin:miter;stroke-miterlimit:4;stroke-dasharray:none;stroke-opacity:1" />
      <rect
         width="116.92729"
         height="63.109482"
         rx="31.117723"
         ry="31.554741"
         x="407.42923"
         y="445.12936"
         id="rect2780"
         style="fill:none;fill-opacity:1;fill-rule:nonzero;stroke:#000000;stroke-width:10;stroke-linecap:butt;stroke-linejoin:miter;stroke-miterlimit:4;stroke-dasharray:none;stroke-opacity:1" />
      <path
         d="M 432.74572,445.14884 L 449.94678,445.14884 L 467.14785,445.14884 L 484.34892,445.14884 C 484.34892,431.44683 480.58149,429.63641 475.01444,429.63641 L 444.18435,429.63641 C 437.39209,429.63641 433.44408,426.06557 433.44408,421.63173 C 433.44408,416.37088 437.9171,414.63494 444.05397,414.63494 L 483.74131,414.63494 C 492.8433,414.63494 501.55,430.68041 501.55,445.14884 C 510.28526,445.14884 511.47978,448.66503 517.17978,454.36502 L 417.11594,454.36502 C 422.81594,448.66503 424.01044,445.14884 432.74572,445.14884 z"
         id="rect2782"
         style="fill:#000000;fill-opacity:1;fill-rule:nonzero;stroke:none;stroke-width:10;stroke-linecap:butt;stroke-linejoin:bevel;stroke-miterlimit:4;stroke-opacity:1" />
    </g>
    <path
       d="M 267.64551,411.10309 L 251.19524,480.56512 C 248.1946,492.03268 252.11833,501.04502 262.96646,507.60213 C 270.48892,511.96784 278.39075,512.56847 286.67197,509.40402 C 294.95263,506.2394 300.18692,500.44888 302.37485,492.03244 L 322.2028,408.10552 C 324.17499,399.17444 322.02693,391.5173 315.75865,385.13406 L 269.71734,336.39983 L 331.23405,288.62775 L 339.79808,318.80555 C 340.35237,321.57816 341.86133,324.10283 344.32495,326.37952 L 404.22677,373.82535 C 405.73371,375.2836 407.2116,376.30988 408.66043,376.90419 C 413.73503,378.98672 418.90364,378.77908 424.16624,376.28124 C 429.42802,373.78349 433.10035,369.99709 435.18328,364.92202 C 438.89866,355.86663 437.00011,348.10517 429.48761,341.63762 L 377.92533,300.17171 L 355.44528,228.06675 C 352.2581,218.2977 345.41991,210.20162 334.9307,203.77849 C 316.5598,192.85587 299.06329,193.71804 282.4411,206.36499 L 197.97002,271.40097 C 192.4759,275.50259 188.27804,281.60858 185.37643,289.71899 L 142.62289,398.53703 L 72.117263,463.58722 C 69.330363,466.25455 67.315403,468.59919 66.072383,470.62118 C 62.151159,477.06027 61.105992,483.7236 62.936898,490.6112 C 64.767699,497.49864 68.902703,502.903 75.341913,506.82426 C 86.189733,513.3812 95.974093,512.73904 104.69508,504.89779 L 182.139,433.80036 C 184.92567,431.13298 187.0609,427.99151 188.54468,424.37597 L 215.43047,357.29707 L 267.64551,411.10309 z M 359.22864,208.03255 C 369.01347,212.04802 378.97669,212.00891 389.11836,207.91521 C 399.25927,203.82196 406.41014,196.70573 410.57098,186.5665 C 414.58584,176.78157 414.45941,166.77928 410.19169,156.55961 C 405.92318,146.34048 398.89653,139.22314 389.11174,135.20759 C 378.96133,131.0429 368.86669,131.13467 358.8278,135.48288 C 348.78821,139.83167 341.76097,146.89851 337.74603,156.6834 C 333.58526,166.82266 333.58806,176.87434 337.75447,186.83847 C 341.9202,196.8031 349.07827,203.86777 359.22864,208.03255 L 359.22864,208.03255 z"
       id="path4705"
       style="font-size:40px;font-style:normal;font-variant:normal;font-weight:normal;font-stretch:normal;text-align:start;line-height:125%;writing-mode:lr-tb;text-anchor:start;fill:#000000;fill-opacity:1;stroke:none;stroke-width:1px;stroke-linecap:butt;stroke-linejoin:miter;stroke-opacity:1;display:inline;font-family:NPSPICT3;-inkscape-font-specification:NPSPICT3" />
  </g>
</svg>
