<?xml version="1.0" encoding="UTF-8" standalone="no"?>
<!-- Created with Inkscape (http://www.inkscape.org/) -->
<svg
   xmlns:dc="http://purl.org/dc/elements/1.1/"
   xmlns:cc="http://creativecommons.org/ns#"
   xmlns:rdf="http://www.w3.org/1999/02/22-rdf-syntax-ns#"
   xmlns:svg="http://www.w3.org/2000/svg"
   xmlns="http://www.w3.org/2000/svg"
   xmlns:sodipodi="http://sodipodi.sourceforge.net/DTD/sodipodi-0.dtd"
   xmlns:inkscape="http://www.inkscape.org/namespaces/inkscape"
   width="20"
   height="21"
   id="svg2"
   sodipodi:version="0.32"
   inkscape:version="0.46"
   sodipodi:docname="fastfood.svg"
   inkscape:output_extension="org.inkscape.output.svg.inkscape"
   version="1.0">
  <defs
     id="defs4">
    <inkscape:perspective
       sodipodi:type="inkscape:persp3d"
       inkscape:vp_x="0 : 526.18109 : 1"
       inkscape:vp_y="0 : 1000 : 0"
       inkscape:vp_z="744.09448 : 526.18109 : 1"
       inkscape:persp3d-origin="372.04724 : 350.78739 : 1"
       id="perspective10" />
    <inkscape:perspective
       id="perspective2390"
       inkscape:persp3d-origin="372.04724 : 350.78739 : 1"
       inkscape:vp_z="744.09448 : 526.18109 : 1"
       inkscape:vp_y="0 : 1000 : 0"
       inkscape:vp_x="0 : 526.18109 : 1"
       sodipodi:type="inkscape:persp3d" />
    <inkscape:perspective
       id="perspective2431"
       inkscape:persp3d-origin="372.04724 : 350.78739 : 1"
       inkscape:vp_z="744.09448 : 526.18109 : 1"
       inkscape:vp_y="0 : 1000 : 0"
       inkscape:vp_x="0 : 526.18109 : 1"
       sodipodi:type="inkscape:persp3d" />
  </defs>
  <sodipodi:namedview
     id="base"
     pagecolor="#ffffff"
     bordercolor="#666666"
     borderopacity="1.0"
     gridtolerance="10000"
     guidetolerance="10"
     objecttolerance="10"
     inkscape:pageopacity="0.0"
     inkscape:pageshadow="2"
     inkscape:zoom="44.8"
     inkscape:cx="14.888654"
     inkscape:cy="8.5629978"
     inkscape:document-units="px"
     inkscape:current-layer="layer1"
     showgrid="false"
     inkscape:window-width="1920"
     inkscape:window-height="1181"
     inkscape:window-x="-4"
     inkscape:window-y="-4" />
  <metadata
     id="metadata7">
    <rdf:RDF>
      <cc:Work
         rdf:about="">
        <dc:format>image/svg+xml</dc:format>
        <dc:type
           rdf:resource="http://purl.org/dc/dcmitype/StillImage" />
      </cc:Work>
    </rdf:RDF>
  </metadata>
  <g
     inkscape:label="Layer 1"
     inkscape:groupmode="layer"
     id="layer1">
    <path
       style="fill:#000000;fill-opacity:1;fill-rule:evenodd;stroke:#000000;stroke-width:0.07853948px;stroke-linecap:butt;stroke-linejoin:miter;stroke-opacity:1"
       d="M 4.7704932,5.7308535 L 4.7491622,5.398899 L 13.943099,5.4173411 L 13.921768,5.7492956 L 4.7704932,5.7308535 z"
       id="path3219" />
    <path
       style="fill:#000000;fill-opacity:1;fill-rule:evenodd;stroke:#000000;stroke-width:0.07853948px;stroke-linecap:butt;stroke-linejoin:miter;stroke-opacity:1"
       d="M 10.956669,5.1222706 L 11.553955,5.1222706 L 12.684532,0.49335315 L 12.151241,0.40114369 L 10.956669,5.1222706 z"
       id="path3221" />
    <g
       id="g3384"
       transform="matrix(8.446899e-2,0,0,7.302621e-2,-20.592828,-25.715203)"
       style="stroke:#ffffff;stroke-opacity:1;stroke-width:2.54648994;stroke-miterlimit:4;stroke-dasharray:none">
      <path
         d="M 469.78406,612.37761 L 361.12954,612.44075 C 361.12954,612.44075 364.41253,627.84557 375.01913,629.86588 L 456.27328,629.80274 C 466.56421,627.97183 469.78406,612.37761 469.78406,612.37761 z"
         style="fill:#000000;fill-opacity:1;fill-rule:evenodd;stroke:#ffffff;stroke-width:2.54648994;stroke-linecap:butt;stroke-linejoin:miter;stroke-opacity:1;stroke-miterlimit:4;stroke-dasharray:none"
         id="path3225"
         sodipodi:nodetypes="ccccc" />
    </g>
    <g
       id="g3417"
       transform="matrix(8.446899e-2,0,0,7.1973653e-2,-20.592828,-25.080303)">
      <path
         id="path3415"
         style="fill:#000000;fill-opacity:1;fill-rule:evenodd;stroke:#000000;stroke-width:0.99539524px;stroke-linecap:butt;stroke-linejoin:miter;stroke-opacity:1"
         d="M 399.4036,593.0403 L 408.60901,434.39906 L 300.51808,434.6516 L 310.00185,592.42205 C 319.99812,606.17973 390.06838,604.90794 399.4036,593.0403 z"
         sodipodi:nodetypes="ccccc" />
    </g>
    <g
       id="g3237"
       style="fill:#000000;fill-opacity:1;stroke:#ffffff;stroke-width:2.29666944;stroke-miterlimit:4;stroke-dasharray:none;stroke-opacity:1"
       transform="matrix(8.4325274e-2,0,0,8.9930135e-2,-20.533086,-35.763483)">
      <path
         id="path3233"
         d="M 472.75139,586.17678 C 472.75139,586.17678 480.32754,590.97501 479.56992,597.28846 C 478.81231,603.60191 472.49885,607.89506 472.49885,607.89506"
         style="fill:#000000;fill-opacity:1;fill-rule:evenodd;stroke:#ffffff;stroke-width:2.29666944;stroke-linecap:butt;stroke-linejoin:miter;stroke-miterlimit:4;stroke-dasharray:none;stroke-opacity:1" />
      <path
         id="path3235"
         d="M 473.50901,586.42932 L 358.63078,586.42932 C 358.63078,586.42932 351.05463,591.22755 351.81225,597.541 C 352.56986,603.85445 358.88332,608.1476 358.88332,608.1476 L 472.75139,607.89506"
         style="fill:#000000;fill-opacity:1;fill-rule:evenodd;stroke:#ffffff;stroke-width:2.29666944;stroke-linecap:butt;stroke-linejoin:miter;stroke-miterlimit:4;stroke-dasharray:none;stroke-opacity:1" />
    </g>
    <g
       id="g3283"
       style="stroke:#ffffff;stroke-width:2.54648994;stroke-miterlimit:4;stroke-dasharray:none;stroke-opacity:1"
       transform="matrix(8.446899e-2,0,0,7.302621e-2,-20.592828,-25.715203)">
      <path
         style="fill:none;fill-rule:evenodd;stroke:#ffffff;stroke-width:2.54648994;stroke-linecap:butt;stroke-linejoin:miter;stroke-miterlimit:4;stroke-dasharray:none;stroke-opacity:1"
         d="M 245.71961,516.98133 L 262.8922,619.25928"
         id="path3279" />
      <path
         style="fill:#000000;fill-opacity:1;fill-rule:evenodd;stroke:#ffffff;stroke-width:2.54648994;stroke-linecap:butt;stroke-linejoin:miter;stroke-miterlimit:4;stroke-dasharray:none;stroke-opacity:1"
         d="M 262.38712,619.25928 C 293.44931,626.83542 319.96582,619.00674 319.96582,619.00674 L 336.3808,516.72879 C 335.62318,516.72879 295.46962,560.67043 245.71961,516.47626"
         id="path3281" />
    </g>
    <path
       id="path3265"
       style="fill:#000000;fill-opacity:1;fill-rule:evenodd;stroke:#ffffff;stroke-width:0.2;stroke-linecap:butt;stroke-linejoin:miter;stroke-miterlimit:4;stroke-dasharray:none;stroke-opacity:1"
       d="M 12.898227,14.048122 L 16.102545,14.035265 C 18.965639,14.551019 19.093599,16.822228 19.098931,16.82696 L 9.8805148,16.841155 C 9.8911782,16.831692 9.8911782,16.831692 9.8911782,16.831692 C 9.8911782,16.831692 10.019139,14.559144 12.898227,14.048122 z"
       sodipodi:nodetypes="cccccc" />
    <path
       style="fill:#000000;fill-opacity:1;fill-rule:evenodd;stroke:#ffffff;stroke-width:0.08159832px;stroke-linecap:butt;stroke-linejoin:miter;stroke-opacity:1"
       d="M 0.82452262,12.286435 L 0.22849844,10.171891 L 0.90966905,9.992355 L 1.7824195,12.88489 C 1.7824195,12.88489 1.5269803,12.844992 0.82452262,12.286435 z"
       id="path3318" />
    <path
       style="fill:#000000;fill-opacity:1;fill-rule:evenodd;stroke:#ffffff;stroke-width:0.08041666px;stroke-linecap:butt;stroke-linejoin:miter;stroke-opacity:1"
       d="M 2.5095742,13.125016 L 3.6389069,9.2346007 L 3.0209706,8.8668495 L 1.8064045,12.873397 C 1.8064045,12.873397 2.3178009,13.163727 2.5095742,13.125016 z"
       id="path3320" />
    <path
       style="fill:#000000;fill-opacity:1;fill-rule:evenodd;stroke:#ffffff;stroke-width:0.08056697px;stroke-linecap:butt;stroke-linejoin:miter;stroke-opacity:1"
       d="M 2.7877416,13.248256 L 3.5971927,9.789015 L 4.3214383,9.8084487 L 3.5545899,13.364859 C 3.5545899,13.364859 3.1711649,13.345425 2.7877416,13.248256 z"
       id="path3322" />
    <path
       style="fill:#000000;fill-opacity:1;fill-rule:evenodd;stroke:#ffffff;stroke-width:0.15;stroke-linecap:butt;stroke-linejoin:miter;stroke-opacity:1;stroke-miterlimit:4;stroke-dasharray:none"
       d="M 7.3512252,12.248309 L 7.7557329,9.708903 L 6.9467176,9.4940307 L 6.54221,12.75619 L 7.3512252,12.248309 z"
       id="path3324" />
    <path
       style="fill:#000000;fill-opacity:1;fill-rule:evenodd;stroke:#ffffff;stroke-width:0.15619853;stroke-linecap:butt;stroke-linejoin:miter;stroke-miterlimit:4;stroke-dasharray:none;stroke-opacity:1"
       d="M 5.7353623,13.08496 L 5.6891732,10.299604 L 6.4513052,10.142681 L 6.4513052,12.771117 L 5.7353623,13.08496 z"
       id="path3326" />
    <path
       style="fill:#000000;fill-opacity:1;fill-rule:evenodd;stroke:#ffffff;stroke-width:0.1555775;stroke-linecap:butt;stroke-linejoin:miter;stroke-miterlimit:4;stroke-dasharray:none;stroke-opacity:1"
       d="M 5.6452278,13.148145 L 5.392971,8.9065434 L 4.4756731,9.0614872 L 4.8884564,13.380561 L 5.6452278,13.148145 z"
       id="path3328" />
    <path
       style="fill:#000000;fill-opacity:1;fill-rule:evenodd;stroke:#ffffff;stroke-width:0.08043166px;stroke-linecap:butt;stroke-linejoin:miter;stroke-opacity:1"
       d="M 3.7049295,13.364922 L 4.1307479,10.962027 L 4.7694753,10.72949 L 4.4501116,13.345543 L 3.7049295,13.364922 z"
       id="path3330" />
  </g>
</svg>
