<?xml version="1.0" encoding="UTF-8" standalone="no"?>
<svg
   xmlns:svg="http://www.w3.org/2000/svg"
   xmlns="http://www.w3.org/2000/svg"
   version="1.0"
   width="18"
   height="18"
   id="parking">
  <defs
     id="defs8" />
  <g
     transform="scale(0.5,0.5)"
     id="g3">
    <path
       d="M 2,0 L 34,0 C 35.108,0 36,0.892 36,2 L 36,34 C 36,35.108 35.108,36 34,36 L 2,36 C 0.892,36 0,35.108 0,34 L 0,2 C 0,0.892 0.892,0 2,0 z "
       style="fill:#0000ff"
       id="path4276" />
    <path
       d="M 15.7,21.4 L 15.76,30.7 L 7.8,30.7 L 7.8,5.1 L 18.7,5.1 C 21.4,5.1 23.5,5.4 24.9,6 C 26.4,6.7 27.5,7.6 28.3,8.9 C 29.1,10.2 29.4,11.7 29.6,13.3 C 29.6,15.7 28.7,17.7 27,19.2 C 25.3,20.6 23,21.4 20.2,21.4 L 15.8,21.4 L 15.7,21.4 z M 15.6,15.9 L 18.3,15.9 C 20.6,15.9 21.7,15 21.7,13.1 C 21.7,11.8 20.7,11 18.5,11 L 15.64,11 L 15.6,15.9 z "
       style="fill:#ffffff"
       id="path4278" />
  </g>
</svg>
