<?xml version="1.0" encoding="UTF-8" standalone="no"?>
<svg
   xmlns:dc="http://purl.org/dc/elements/1.1/"
   xmlns:cc="http://web.resource.org/cc/"
   xmlns:rdf="http://www.w3.org/1999/02/22-rdf-syntax-ns#"
   xmlns:svg="http://www.w3.org/2000/svg"
   xmlns="http://www.w3.org/2000/svg"
   xmlns:sodipodi="http://sodipodi.sourceforge.net/DTD/sodipodi-0.dtd"
   xmlns:inkscape="http://www.inkscape.org/namespaces/inkscape"
   version="1.1"
   baseProfile="full"
   width="32.620000000000005"
   id="symbol-railway-crossing"
   viewBox="0 0 600 600"
   height="32.620000000000005"
   sodipodi:version="0.32"
   inkscape:version="0.45.1"
   sodipodi:docname="railway-crossing-small.svg"
   inkscape:output_extension="org.inkscape.output.svg.inkscape"
   sodipodi:docbase="C:\Users\Heiko Jacobs\Documents\osm\osmarender\stylesheets\symbols">
  <metadata
     id="metadata12">
    <rdf:RDF>
      <cc:Work
         rdf:about="">
        <dc:format>image/svg+xml</dc:format>
        <dc:type
           rdf:resource="http://purl.org/dc/dcmitype/StillImage" />
      </cc:Work>
    </rdf:RDF>
  </metadata>
  <defs
     id="defs10" />
  <sodipodi:namedview
     inkscape:window-height="575"
     inkscape:window-width="825"
     inkscape:pageshadow="2"
     inkscape:pageopacity="0.0"
     guidetolerance="10.0"
     gridtolerance="10.0"
     objecttolerance="10.0"
     borderopacity="1.0"
     bordercolor="#666666"
     pagecolor="#ffffff"
     id="base"
     inkscape:zoom="11.557327"
     inkscape:cx="16.309999"
     inkscape:cy="16.309999"
     inkscape:window-x="69"
     inkscape:window-y="69"
     inkscape:current-layer="symbol-railway-crossing" />
  <g
     transform="matrix(0.5,0,0,0.5,179.75,219.84375)"
     id="g3">
    <path
       d="M 1.5,4.5 L 67.5,6 L 257.5,97.4 L 456,0 L 519,4.5 L 504,52.5 L 319.5,139.5 L 495,220.5 L 510,271.5 L 451.5,277.5 L 258,178.5 C 258,178.5 69,274.5 64.5,277.5 C 60,280.5 0,279 0,279 L 6,228 L 178.5,142.5 L 12,63 L 1.5,4.5 z "
       id="path5"
       style="fill:#ff0000" />
    <path
       d="M 49.5,21 L 33,49.5 L 219,141 L 36,237 L 52.5,262.5 L 258,156 L 454.5,261 L 475.5,228 L 286.5,136.5 L 475.5,49.5 L 454.5,19.5 L 257.8,116.2 L 49.5,21 z "
       id="path7"
       style="fill:#ffffff" />
  </g>
</svg>
