<?xml version="1.0" encoding="UTF-8"?>
<svg xmlns="http://www.w3.org/2000/svg" xmlns:xlink="http://www.w3.org/1999/xlink" width="6.73pt" height="18.64pt" viewBox="0 0 173 479" version="1.1">

<g id="surface0" clip-path="url(#clip0)">
<path style="fill: none; stroke-width: 0.1; stroke-linecap: butt; stroke-linejoin: miter; stroke: rgb(100%,100%,100%); opacity: 1;stroke-miterlimit: 10;" d="M 0 0 L 173 0 L 173 30.209351 C 172.882584 25.882492 172.647736 17.22876 172.530304 12.901886 C 171.100174 6.696594 165.411743 1.652588 158.958267 1.532028 C 145.975098 1.450104 132.988495 1.530502 120.004257 1.501587 C 119.997116 47.167252 119.99704 92.832733 120.004318 138.498459 C 132.714081 138.479782 145.425079 138.52887 158.134506 138.482742 C 163.753799 138.496735 169.188431 134.93486 171.400635 129.769073 C 173.932983 124.598572 172.138123 118.612839 173 113.117493 L 173 371.968964 C 172.884613 367.712036 172.653839 359.198151 172.538452 354.941208 C 171.119751 348.690964 165.378845 343.615204 158.883713 343.528549 C 145.925293 343.454361 132.96376 343.52742 120.004395 343.501617 C 119.996918 388.167114 119.997192 432.832581 120.004257 477.498489 C 132.360489 477.472595 144.717957 477.542236 157.073883 477.471298 C 162.395111 477.599457 167.839935 475.099411 170.571701 470.412415 C 174.143097 464.980057 172.157257 458.107269 173 452.05925 L 173 479 L 0 479 L 0 0 Z M 0 0 " transform="matrix(1,0,0,1,0,0)"/>
<path style="stroke: none; fill-rule: nonzero; fill: rgb(100%,100%,100%); opacity: 1;" d="M 0 0 L 173 0 L 173 30.209351 C 172.882584 25.882492 172.647736 17.22876 172.530304 12.901886 C 171.100174 6.696594 165.411743 1.652588 158.958267 1.532028 C 145.975098 1.450104 132.988495 1.530502 120.004257 1.501587 C 119.997116 47.167252 119.99704 92.832733 120.004318 138.498459 C 132.714081 138.479782 145.425079 138.52887 158.134506 138.482742 C 163.753799 138.496735 169.188431 134.93486 171.400635 129.769073 C 173.932983 124.598572 172.138123 118.612839 173 113.117493 L 173 371.968964 C 172.884613 367.712036 172.653839 359.198151 172.538452 354.941208 C 171.119751 348.690964 165.378845 343.615204 158.883713 343.528549 C 145.925293 343.454361 132.96376 343.52742 120.004395 343.501617 C 119.996918 388.167114 119.997192 432.832581 120.004257 477.498489 C 132.360489 477.472595 144.717957 477.542236 157.073883 477.471298 C 162.395111 477.599457 167.839935 475.099411 170.571701 470.412415 C 174.143097 464.980057 172.157257 458.107269 173 452.05925 L 173 479 L 0 479 L 0 0 Z M 0 0 "/>
<path style="fill: none; stroke-width: 0.1; stroke-linecap: butt; stroke-linejoin: miter; stroke: rgb(0%,0%,0%); opacity: 1;stroke-miterlimit: 10;" d="M 84.363907 11.295609 C 92.083313 6.477264 100.590714 2.740402 109.62088 1.291367 C 109.94046 40.918396 109.622604 80.558365 109.779312 120.189346 C 110.122437 126.281006 110.045029 132.389557 109.91452 138.487595 C 103.803436 138.339203 97.721039 141.269257 94.183487 146.276611 C 88.513687 153.934097 86.57933 163.535248 84.970322 172.730469 C 81.552536 194.993317 80.777908 217.57225 80.993576 240.06543 C 81.280548 263.589554 83.321548 287.098129 86.932571 310.344925 C 88.624313 319.337692 90.181915 328.846069 95.590469 336.472687 C 98.794678 341.142807 104.391037 343.586227 109.973816 343.560104 C 110.028046 388.144745 109.994263 432.729874 109.990707 477.315094 C 100.642349 476.818481 91.836472 472.948593 83.962402 468.100037 C 63.764801 455.453552 48.771179 435.988434 37.636765 415.207657 C 18.488693 378.914978 9.911789 338.0634 5.856659 297.522781 C 3.744461 275.322998 2.980682 253.001648 3.340149 230.712372 C 4.230377 185.177231 9.030319 139.116104 24.083618 95.885666 C 30.69426 77.176758 39.374237 59.060379 51.160141 43.034683 C 60.233765 30.619522 71.280746 19.474518 84.363907 11.295609 Z M 84.363907 11.295609 " transform="matrix(1,0,0,1,0,0)"/>
<path style="stroke: none; fill-rule: nonzero; fill: rgb(0%,0%,0%); opacity: 1;" d="M 84.363907 11.295609 C 92.083313 6.477264 100.590714 2.740402 109.62088 1.291367 C 109.94046 40.918396 109.622604 80.558365 109.779312 120.189346 C 110.122437 126.281006 110.045029 132.389557 109.91452 138.487595 C 103.803436 138.339203 97.721039 141.269257 94.183487 146.276611 C 88.513687 153.934097 86.57933 163.535248 84.970322 172.730469 C 81.552536 194.993317 80.777908 217.57225 80.993576 240.06543 C 81.280548 263.589554 83.321548 287.098129 86.932571 310.344925 C 88.624313 319.337692 90.181915 328.846069 95.590469 336.472687 C 98.794678 341.142807 104.391037 343.586227 109.973816 343.560104 C 110.028046 388.144745 109.994263 432.729874 109.990707 477.315094 C 100.642349 476.818481 91.836472 472.948593 83.962402 468.100037 C 63.764801 455.453552 48.771179 435.988434 37.636765 415.207657 C 18.488693 378.914978 9.911789 338.0634 5.856659 297.522781 C 3.744461 275.322998 2.980682 253.001648 3.340149 230.712372 C 4.230377 185.177231 9.030319 139.116104 24.083618 95.885666 C 30.69426 77.176758 39.374237 59.060379 51.160141 43.034683 C 60.233765 30.619522 71.280746 19.474518 84.363907 11.295609 Z M 84.363907 11.295609 "/>
<path style="fill: none; stroke-width: 0.1; stroke-linecap: butt; stroke-linejoin: miter; stroke: rgb(0%,0%,0%); opacity: 1;stroke-miterlimit: 10;" d="M 120.004257 1.501587 C 132.988495 1.530502 145.975098 1.450104 158.958267 1.532028 C 165.411743 1.652588 171.100174 6.696594 172.530304 12.901886 C 172.647736 17.22876 172.882584 25.882492 173 30.209351 L 173 113.117493 C 172.138123 118.612839 173.932983 124.598572 171.400635 129.769073 C 169.188431 134.93486 163.753799 138.496735 158.134506 138.482742 C 145.425079 138.52887 132.714081 138.479782 120.004318 138.498459 C 119.99704 92.832733 119.997116 47.167252 120.004257 1.501587 Z M 120.004257 1.501587 " transform="matrix(1,0,0,1,0,0)"/>
<path style="stroke: none; fill-rule: nonzero; fill: rgb(0%,0%,0%); opacity: 1;" d="M 120.004257 1.501587 C 132.988495 1.530502 145.975098 1.450104 158.958267 1.532028 C 165.411743 1.652588 171.100174 6.696594 172.530304 12.901886 C 172.647736 17.22876 172.882584 25.882492 173 30.209351 L 173 113.117493 C 172.138123 118.612839 173.932983 124.598572 171.400635 129.769073 C 169.188431 134.93486 163.753799 138.496735 158.134506 138.482742 C 145.425079 138.52887 132.714081 138.479782 120.004318 138.498459 C 119.99704 92.832733 119.997116 47.167252 120.004257 1.501587 Z M 120.004257 1.501587 "/>
<path style="fill: none; stroke-width: 0.1; stroke-linecap: butt; stroke-linejoin: miter; stroke: rgb(0%,0%,0%); opacity: 1;stroke-miterlimit: 10;" d="M 120.004395 343.501617 C 132.96376 343.52742 145.925293 343.454361 158.883713 343.528549 C 165.378845 343.615204 171.119751 348.690964 172.538452 354.941208 C 172.653839 359.198151 172.884613 367.712036 173 371.968964 L 173 452.05925 C 172.157257 458.107269 174.143097 464.980057 170.571701 470.412415 C 167.839935 475.099411 162.395111 477.599457 157.073883 477.471298 C 144.717957 477.542236 132.360489 477.472595 120.004257 477.498489 C 119.997192 432.832581 119.996918 388.167114 120.004395 343.501617 Z M 120.004395 343.501617 " transform="matrix(1,0,0,1,0,0)"/>
<path style="stroke: none; fill-rule: nonzero; fill: rgb(0%,0%,0%); opacity: 1;" d="M 120.004395 343.501617 C 132.96376 343.52742 145.925293 343.454361 158.883713 343.528549 C 165.378845 343.615204 171.119751 348.690964 172.538452 354.941208 C 172.653839 359.198151 172.884613 367.712036 173 371.968964 L 173 452.05925 C 172.157257 458.107269 174.143097 464.980057 170.571701 470.412415 C 167.839935 475.099411 162.395111 477.599457 157.073883 477.471298 C 144.717957 477.542236 132.360489 477.472595 120.004257 477.498489 C 119.997192 432.832581 119.996918 388.167114 120.004395 343.501617 Z M 120.004395 343.501617 "/>
</g>
</svg>
