<?xml version="1.0" encoding="UTF-8" standalone="no"?>
<!DOCTYPE svg PUBLIC "-//W3C//DTD SVG 20010904//EN"
"http://www.w3.org/TR/2001/REC-SVG-20010904/DTD/svg10.dtd">
<!-- Created with Inkscape (http://www.inkscape.org/) -->
<svg
   width="10.000000cm"
   height="10.000000cm"
   id="svg2455"
   sodipodi:version="0.32"
   inkscape:version="0.40"
   sodipodi:docbase="/home/matt/projects/opencheesemap/openstreetmap/html/images"
   sodipodi:docname="osm_tshirt_2colour.svg"
   inkscape:export-filename="/home/matt/projects/opencheesemap/icon/mag_map.png"
   inkscape:export-xdpi="130.04802"
   inkscape:export-ydpi="130.04802"
   xmlns="http://www.w3.org/2000/svg"
   xmlns:cc="http://web.resource.org/cc/"
   xmlns:inkscape="http://www.inkscape.org/namespaces/inkscape"
   xmlns:sodipodi="http://sodipodi.sourceforge.net/DTD/sodipodi-0.dtd"
   xmlns:rdf="http://www.w3.org/1999/02/22-rdf-syntax-ns#"
   xmlns:xml="http://www.w3.org/XML/1998/namespace"
   xmlns:dc="http://purl.org/dc/elements/1.1/"
   xmlns:xlink="http://www.w3.org/1999/xlink">
  <defs
     id="defs3">
    <linearGradient
       inkscape:collect="always"
       id="linearGradient1914">
      <stop
         style="stop-color:#000000;stop-opacity:1;"
         offset="0"
         id="stop1915" />
      <stop
         style="stop-color:#000000;stop-opacity:0;"
         offset="1"
         id="stop1916" />
    </linearGradient>
    <linearGradient
       id="linearGradient2419">
      <stop
         style="stop-color:#000000;stop-opacity:0.50515461;"
         offset="0.0000000"
         id="stop2420" />
      <stop
         style="stop-color:#000000;stop-opacity:0.0000000;"
         offset="1.0000000"
         id="stop2421" />
    </linearGradient>
    <linearGradient
       id="linearGradient2411">
      <stop
         style="stop-color:#ffffff;stop-opacity:1.0000000;"
         offset="0.0000000"
         id="stop2412" />
      <stop
         style="stop-color:#ffffff;stop-opacity:0.0000000;"
         offset="1.0000000"
         id="stop2413" />
    </linearGradient>
    <linearGradient
       id="linearGradient1767">
      <stop
         style="stop-color:#3f3318;stop-opacity:1.0000000;"
         offset="0.0000000"
         id="stop1768" />
      <stop
         style="stop-color:#815f0e;stop-opacity:1.0000000;"
         offset="1.0000000"
         id="stop1769" />
    </linearGradient>
    <linearGradient
       id="linearGradient1754">
      <stop
         style="stop-color:#747474;stop-opacity:1.0000000;"
         offset="0.0000000"
         id="stop1755" />
      <stop
         style="stop-color:#bebebe;stop-opacity:1.0000000;"
         offset="0.50000000"
         id="stop1757" />
      <stop
         style="stop-color:#d5d5d5;stop-opacity:1.0000000;"
         offset="0.62500000"
         id="stop1759" />
      <stop
         style="stop-color:#818181;stop-opacity:1.0000000;"
         offset="0.75000000"
         id="stop1758" />
      <stop
         style="stop-color:#c3c3c3;stop-opacity:1.0000000;"
         offset="1.0000000"
         id="stop1756" />
    </linearGradient>
    <pattern
       patternUnits="userSpaceOnUse"
       width="28.945312"
       height="33.076172"
       patternTransform="translate(190.4901,70.84341)"
       id="pattern2568">
      <text
         xml:space="preserve"
         style="font-size:12.000000;font-style:normal;font-weight:normal;fill:#000000;fill-opacity:1.0000000;stroke:none;stroke-width:1.0000000pt;stroke-linecap:butt;stroke-linejoin:miter;stroke-opacity:1.0000000;font-family:Bitstream Vera Sans"
         x="189.69904"
         y="67.749657"
         id="text2569"
         transform="translate(-190.4901,-70.84341)"><tspan
           sodipodi:role="line"
           id="tspan2570"
           x="189.69904"
           y="67.749657"></tspan><tspan
           sodipodi:role="line"
           id="tspan2576"
           x="189.69904"
           y="79.749657">0010</tspan><tspan
           sodipodi:role="line"
           id="tspan2578"
           x="189.69904"
           y="91.749657">0100</tspan><tspan
           sodipodi:role="line"
           id="tspan2580"
           x="189.69904"
           y="103.74966">0111</tspan><tspan
           sodipodi:role="line"
           id="tspan2582"
           x="189.69904"
           y="115.74966"></tspan></text>
    </pattern>
    <pattern
       patternUnits="userSpaceOnUse"
       width="32.232422"
       height="37.876175"
       patternTransform="translate(183.7668,59.46841)"
       id="pattern2606">
      <text
         xml:space="preserve"
         style="font-size:12.000000;font-style:normal;font-weight:bold;fill:#000000;fill-opacity:1.0000000;stroke:none;stroke-width:1.0000000pt;stroke-linecap:butt;stroke-linejoin:miter;stroke-opacity:1.0000000;font-family:Bitstream Vera Sans;font-stretch:normal;font-variant:normal;text-anchor:middle;writing-mode:lr;"
         x="189.69904"
         y="67.749657"
         id="text2607"
         transform="translate(-173.5858,-58.84341)"
         sodipodi:linespacing="120%"><tspan
           x="189.69904"
           y="67.749657"
           sodipodi:role="line"
           id="tspan2608">0010</tspan><tspan
           x="189.69904"
           y="82.149657"
           sodipodi:role="line"
           id="tspan2610">0100</tspan><tspan
           x="189.69904"
           y="96.549658"
           sodipodi:role="line"
           id="tspan2612">0111</tspan></text>
    </pattern>
    <pattern
       patternUnits="userSpaceOnUse"
       width="32.232422"
       height="28.276169"
       patternTransform="translate(183.7668,59.46841)"
       id="pattern2623">
      <text
         xml:space="preserve"
         style="font-size:12.000000;font-style:normal;font-variant:normal;font-weight:bold;font-stretch:normal;fill:#000000;fill-opacity:1.0000000;stroke:none;stroke-width:1.0000000pt;stroke-linecap:butt;stroke-linejoin:miter;stroke-opacity:1.0000000;font-family:Bitstream Vera Sans;text-anchor:middle;writing-mode:lr;"
         x="189.69904"
         y="67.749657"
         id="text2624"
         transform="translate(-173.5858,-58.84341)"
         sodipodi:linespacing="80%"><tspan
           x="189.69904"
           y="67.749657"
           sodipodi:role="line"
           id="tspan2625">0010</tspan><tspan
           x="189.69904"
           y="77.349657"
           sodipodi:role="line"
           id="tspan2627">0100</tspan><tspan
           x="189.69904"
           y="86.949657"
           sodipodi:role="line"
           id="tspan2629">0111</tspan></text>
    </pattern>
    <pattern
       patternUnits="userSpaceOnUse"
       width="32.232422"
       height="25.876175"
       patternTransform="translate(183.7668,59.46841)"
       id="pattern2639">
      <text
         xml:space="preserve"
         style="font-size:12.000000;font-style:normal;font-variant:normal;font-weight:bold;font-stretch:normal;fill:#000000;fill-opacity:1.0000000;stroke:none;stroke-width:1.0000000pt;stroke-linecap:butt;stroke-linejoin:miter;stroke-opacity:1.0000000;font-family:Bitstream Vera Sans;text-anchor:middle;writing-mode:lr;"
         x="189.69904"
         y="67.749657"
         id="text2640"
         transform="translate(-173.5858,-58.84341)"
         sodipodi:linespacing="70%"><tspan
           x="189.69904"
           y="67.749657"
           sodipodi:role="line"
           id="tspan2641">0010</tspan><tspan
           x="189.69904"
           y="76.149656"
           sodipodi:role="line"
           id="tspan2643">0100</tspan><tspan
           x="189.69904"
           y="84.549656"
           sodipodi:role="line"
           id="tspan2645">0111</tspan></text>
    </pattern>
    <pattern
       patternUnits="userSpaceOnUse"
       width="96.697266"
       height="77.628510"
       patternTransform="translate(151.5402,41.65591)"
       id="pattern2692">
      <text
         xml:space="preserve"
         style="font-size:36.000000;font-style:normal;font-variant:normal;font-weight:bold;font-stretch:normal;fill:#000000;fill-opacity:1.0000000;stroke:none;stroke-width:1.0000000pt;stroke-linecap:butt;stroke-linejoin:miter;stroke-opacity:1.0000000;font-family:Bitstream Vera Sans;text-anchor:middle;writing-mode:lr;"
         x="189.69904"
         y="67.749657"
         id="text2693"
         transform="translate(-141.3592,-41.03091)"
         sodipodi:linespacing="70%"><tspan
           x="189.69904"
           y="67.749657"
           sodipodi:role="line"
           id="tspan2694">0010</tspan><tspan
           x="189.69904"
           y="92.949656"
           sodipodi:role="line"
           id="tspan2696">0100</tspan><tspan
           x="189.69904"
           y="118.14965"
           sodipodi:role="line"
           id="tspan2698">0111</tspan></text>
    </pattern>
    <linearGradient
       inkscape:collect="always"
       xlink:href="#linearGradient1914"
       id="linearGradient1917"
       gradientTransform="scale(1.195930,0.836169)"
       x1="156.33753"
       y1="184.92068"
       x2="264.56920"
       y2="184.92068"
       gradientUnits="userSpaceOnUse" />
    <linearGradient
       inkscape:collect="always"
       xlink:href="#linearGradient1914"
       id="linearGradient1919"
       gradientUnits="userSpaceOnUse"
       gradientTransform="matrix(-1.195930,0.000000,0.000000,-0.836169,477.3431,239.6148)"
       x1="156.33753"
       y1="184.92068"
       x2="264.56920"
       y2="184.92068" />
    <pattern
       patternUnits="userSpaceOnUse"
       width="96.697266"
       height="84.828522"
       patternTransform="translate(73.76358,47.05894)"
       id="pattern1941">
      <text
         xml:space="preserve"
         style="font-size:36.000000;font-style:normal;font-variant:normal;font-weight:bold;font-stretch:normal;fill:none;fill-opacity:1.0000000;stroke:#000000;stroke-width:1.0000000pt;stroke-linecap:butt;stroke-linejoin:miter;stroke-opacity:1.0000000;font-family:Bitstream Vera Sans;text-anchor:middle;writing-mode:lr;"
         x="189.69904"
         y="67.749657"
         id="text1942"
         transform="translate(-141.3592,-41.03091)"
         sodipodi:linespacing="80%"><tspan
           x="189.69904"
           y="67.749657"
           sodipodi:role="line"
           id="tspan1943">0010</tspan><tspan
           x="189.69904"
           y="96.549658"
           sodipodi:role="line"
           id="tspan1945">0100</tspan><tspan
           x="189.69904"
           y="125.34966"
           sodipodi:role="line"
           id="tspan1947">0111</tspan></text>
    </pattern>
  </defs>
  <sodipodi:namedview
     id="base"
     pagecolor="#ffffff"
     bordercolor="#666666"
     borderopacity="1.0"
     inkscape:pageopacity="0.0"
     inkscape:pageshadow="2"
     inkscape:zoom="1.9207238"
     inkscape:cx="184.15644"
     inkscape:cy="139.33747"
     inkscape:current-layer="layer1"
     showgrid="true"
     inkscape:grid-bbox="true"
     inkscape:grid-points="true"
     inkscape:window-width="1016"
     inkscape:window-height="697"
     inkscape:window-x="0"
     inkscape:window-y="0"
     showguides="true"
     inkscape:guide-bbox="true" />
  <metadata
     id="metadata4">
    <rdf:RDF
       id="RDF5">
      <cc:Work
         rdf:about=""
         id="Work6">
        <dc:format
           id="format7">image/svg+xml</dc:format>
        <dc:type
           id="type9"
           rdf:resource="http://purl.org/dc/dcmitype/StillImage" />
      </cc:Work>
    </rdf:RDF>
  </metadata>
  <g
     inkscape:groupmode="layer"
     id="layer4"
     inkscape:label="Map"
     style="display:block"
     sodipodi:insensitive="1">
    <path
       style="fill:#ffffff;fill-opacity:1.0000000;fill-rule:evenodd;stroke:#000000;stroke-width:6.2500000;stroke-linecap:butt;stroke-linejoin:miter;stroke-miterlimit:4.0000000;stroke-opacity:1.0000000"
       d="M 17.614910,18.292406 L 88.582677,35.433051 L 159.44882,17.716515 L 230.31496,35.433051 L 301.18110,17.716515 L 318.89764,88.582657 L 301.18110,159.44880 L 318.89764,230.31494 L 301.18110,301.18108 L 230.31496,318.89762 L 159.44882,301.18108 L 88.582677,318.89762 L 17.716535,301.18108 L 35.433071,230.31494 L 17.716535,159.44880 L 35.433071,88.582657 L 17.614910,18.292406 z "
       id="path2522"
       sodipodi:nodetypes="ccccccccccccccccc" />
    <path
       style="fill:#bdff77;fill-opacity:1.0000000;fill-rule:evenodd;stroke:#000000;stroke-width:0.25000000pt;stroke-linecap:butt;stroke-linejoin:miter;stroke-opacity:1.0000000;"
       d="M 19.647400,302.16346 L 35.433071,230.31494 L 17.716535,159.44880 L 35.433071,88.582657 L 17.716535,17.716515 L 88.582677,35.433051 L 159.44882,17.716515 L 230.31496,35.433051 L 301.18110,17.716515 L 318.89764,88.582657 L 301.18110,159.44880 L 318.89764,230.31494 L 301.18110,301.18108 L 230.31496,318.89762 L 159.44882,301.18108 L 88.582677,318.89762 L 19.647400,302.16346 z "
       id="path1278" />
    <g
       id="g1956">
      <path
         style="fill:none;fill-opacity:0.75000000;fill-rule:evenodd;stroke:#ffffff;stroke-width:2.5000000;stroke-linecap:butt;stroke-linejoin:miter;stroke-miterlimit:4.0000000;stroke-opacity:1.0000000;stroke-dasharray:none;"
         d="M 17.716535,159.44880 C 15.536826,150.48476 36.167024,159.44880 45.392268,159.44880 C 61.447424,159.44880 44.647709,177.16533 60.974688,177.16533 C 70.177351,177.16533 79.380014,177.16533 88.582677,177.16533 C 90.187689,177.16533 83.787935,159.44880 96.882005,159.44880 C 104.66707,159.44880 103.20723,124.01573 113.14192,124.01573 C 116.70051,124.01573 116.89475,102.31693 117.20690,98.914494 C 118.85911,80.905420 141.73228,73.689901 141.73228,46.069764 C 141.73228,36.618681 141.73228,33.942563 141.73228,24.491480"
         id="path1903"
         sodipodi:nodetypes="ccccccccc" />
      <path
         style="fill:none;fill-opacity:0.75000000;fill-rule:evenodd;stroke:#ffffff;stroke-width:2.5000000;stroke-linecap:butt;stroke-linejoin:miter;stroke-miterlimit:4.0000000;stroke-opacity:1.0000000;stroke-dasharray:none;"
         d="M 25.067372,141.73226 C 25.067372,129.76316 49.005583,141.73226 60.974688,141.73226 C 85.481220,141.73226 73.116804,135.51556 88.582677,130.75683 C 102.01771,126.62298 72.648838,106.29919 96.204508,106.29919 C 99.223782,106.29919 92.127469,88.582657 106.29921,88.582657 C 120.69601,88.582657 106.29921,59.789064 106.29921,45.392268 C 106.29921,42.072529 106.29921,38.752790 106.29921,35.433051"
         id="path1904"
         sodipodi:nodetypes="ccccccc" />
      <path
         style="fill:none;fill-opacity:0.75000000;fill-rule:evenodd;stroke:#ffffff;stroke-width:2.5000000;stroke-linecap:butt;stroke-linejoin:miter;stroke-miterlimit:4.0000000;stroke-opacity:1.0000000;stroke-dasharray:none;"
         d="M 177.16535,17.716515 C 177.16535,26.715934 177.16535,35.715353 177.16535,44.714771 C 177.16535,63.269426 159.44882,43.478141 159.44882,60.297192 C 159.44882,71.107216 159.07359,77.416902 151.08173,81.299584 C 144.68546,84.407078 139.74647,101.34730 134.14431,106.29919 C 122.78633,116.33880 117.20690,104.03122 117.20690,124.01573 C 117.20690,128.27316 124.01575,130.56438 124.01575,134.82181 C 124.01575,158.44417 106.29921,150.47140 106.29921,168.69664 C 106.29921,179.64767 88.582677,175.51083 88.582677,194.88187 C 88.582677,201.31965 77.188086,201.35571 70.866142,202.57146 C 69.714450,202.79294 66.899622,212.59841 53.149606,212.59841 C 52.795681,212.59841 56.037170,194.88187 43.359778,194.88187 C 37.311239,194.88187 27.863071,184.72905 26.422365,177.16533 C 26.413630,177.11948 24.532362,177.16533 24.389875,177.16533"
         id="path1905" />
      <path
         style="fill:none;fill-opacity:0.75000000;fill-rule:evenodd;stroke:#ffffff;stroke-width:2.5000000;stroke-linecap:butt;stroke-linejoin:miter;stroke-miterlimit:4.0000000;stroke-opacity:1.0000000;stroke-dasharray:none;"
         d="M 35.433071,248.03148 C 33.832389,239.62788 49.511607,265.74801 60.297192,265.74801 C 74.115170,265.74801 79.500559,268.35153 88.582677,258.80368 C 91.559171,255.67455 97.392815,251.14174 99.591991,248.03148 C 106.69472,237.98618 106.29921,275.70718 106.29921,275.74109 C 106.29921,281.36799 118.27199,290.96395 124.01575,292.67850 C 132.83600,295.31141 144.14453,291.84833 152.43672,291.32351 C 154.76942,291.17587 157.11145,291.32351 159.44882,291.32351 C 162.73468,291.32351 159.44882,297.89522 159.44882,301.18108"
         id="path1906" />
      <path
         style="fill:none;fill-opacity:0.75000000;fill-rule:evenodd;stroke:#ffffff;stroke-width:2.5000000;stroke-linecap:butt;stroke-linejoin:miter;stroke-miterlimit:4.0000000;stroke-opacity:1.0000000;stroke-dasharray:none;"
         d="M 167.68040,301.18108 C 174.56829,301.18108 181.45616,301.18108 183.60156,301.18108 C 193.39581,301.18108 201.86365,293.62789 212.59843,290.64601 C 214.90492,290.00532 212.59843,285.85837 212.59843,283.46455 C 212.59843,276.82884 230.31496,281.02181 230.31496,274.38610 C 230.31496,241.11193 243.50852,255.85763 265.74803,239.12239 C 274.79830,232.31206 280.95699,246.70871 283.46457,221.50749 C 283.67812,219.36139 299.02440,230.31494 301.18110,230.31494 C 315.45560,230.31494 296.91612,201.97502 292.67850,188.34404 C 291.33429,184.02014 300.24443,178.17905 301.18110,177.16533"
         id="path1907"
         sodipodi:nodetypes="cccccccccc" />
      <path
         style="fill:none;fill-opacity:0.75000000;fill-rule:evenodd;stroke:#ffffff;stroke-width:2.5000000;stroke-linecap:butt;stroke-linejoin:miter;stroke-miterlimit:4.0000000;stroke-opacity:1.0000000;stroke-dasharray:none;"
         d="M 212.59843,312.32590 C 210.99182,307.15799 268.23795,265.74801 276.41859,265.74801 C 287.48436,265.74801 298.55014,265.74801 309.61592,265.74801"
         id="path1908" />
    </g>
    <g
       id="g1970">
      <path
         style="opacity:1.0000000;fill:none;fill-opacity:0.75000000;fill-rule:evenodd;stroke:#000000;stroke-width:1.2500000;stroke-linecap:butt;stroke-linejoin:miter;stroke-miterlimit:4.0000000;stroke-dasharray:10.000000 1.2500000;stroke-dashoffset:0.0000000;stroke-opacity:1.0000000;"
         d="M 35.907316,88.752046 L 106.29921,106.29919 L 177.16535,88.582657 L 248.03150,106.29919 L 318.89764,88.582657"
         id="path2523" />
      <path
         style="opacity:1.0000000;fill:none;fill-opacity:0.75000000;fill-rule:evenodd;stroke:#000000;stroke-width:1.2500000;stroke-linecap:butt;stroke-linejoin:miter;stroke-miterlimit:4.0000000;stroke-dasharray:10.000000 1.2500000;stroke-dashoffset:0.0000000;stroke-opacity:1.0000000;"
         d="M 87.397053,36.584813 L 106.29921,106.29919 L 88.582677,177.16533 L 106.29921,248.03148 L 88.582677,318.89762"
         id="path2524" />
      <path
         style="opacity:1.0000000;fill:none;fill-opacity:0.75000000;fill-rule:evenodd;stroke:#000000;stroke-width:1.2500000;stroke-linecap:butt;stroke-linejoin:miter;stroke-miterlimit:4.0000000;stroke-dasharray:10.000000 1.2500000;stroke-dashoffset:0.0000000;stroke-opacity:1.0000000;"
         d="M 158.10695,18.868282 L 177.00910,88.582659 L 159.29257,159.44880 L 177.00910,230.31495 L 159.29257,301.18109"
         id="path2525" />
      <path
         style="opacity:1.0000000;fill:none;fill-opacity:0.75000000;fill-rule:evenodd;stroke:#000000;stroke-width:1.2500000;stroke-linecap:butt;stroke-linejoin:miter;stroke-miterlimit:4.0000000;stroke-dasharray:10.000000 1.2500000;stroke-dashoffset:0.0000000;stroke-opacity:1.0000000;"
         d="M 229.12935,36.584816 L 248.03150,106.29919 L 230.31497,177.16533 L 248.03150,248.03148 L 230.31497,318.89762"
         id="path2526" />
      <path
         style="opacity:1.0000000;fill:none;fill-opacity:0.75000000;fill-rule:evenodd;stroke:#000000;stroke-width:1.2500000;stroke-linecap:butt;stroke-linejoin:miter;stroke-miterlimit:4.0000000;stroke-dasharray:10.000000 1.2500000;stroke-dashoffset:0.0000000;stroke-opacity:1.0000000;"
         d="M 17.716535,159.77444 L 88.108429,177.32158 L 158.97457,159.60505 L 229.84072,177.32158 L 300.70686,159.60505"
         id="path2527" />
      <path
         style="opacity:1.0000000;fill:none;fill-opacity:0.75000000;fill-rule:evenodd;stroke:#000000;stroke-width:1.2500000;stroke-linecap:butt;stroke-linejoin:miter;stroke-miterlimit:4.0000000;stroke-dasharray:10.000000 1.2500000;stroke-dashoffset:0.0000000;stroke-opacity:1.0000000;"
         d="M 35.433071,230.31494 L 105.82496,247.86208 L 176.69111,230.14555 L 247.55726,247.86208 L 318.42340,230.14555"
         id="path2528" />
      <path
         style="fill:none;fill-opacity:1.0000000;fill-rule:evenodd;stroke:#000000;stroke-width:6.2500000;stroke-linecap:butt;stroke-linejoin:miter;stroke-miterlimit:4.0000000;stroke-opacity:1.0000000;opacity:1.0000000;"
         d="M 17.614910,18.292406 L 88.582677,35.433051 L 159.44882,17.716515 L 230.31496,35.433051 L 301.18110,17.716515 L 318.89764,88.582657 L 301.18110,159.44880 L 318.89764,230.31494 L 301.18110,301.18108 L 230.31496,318.89762 L 159.44882,301.18108 L 88.582677,318.89762 L 17.716535,301.18108 L 35.433071,230.31494 L 17.716535,159.44880 L 35.433071,88.582657 L 17.614910,18.292406 z "
         id="path2670"
         sodipodi:nodetypes="ccccccccccccccccc" />
    </g>
  </g>
  <g
     inkscape:groupmode="layer"
     id="layer5"
     inkscape:label="Data"
     style="display:block"
     sodipodi:insensitive="true">
    <path
       sodipodi:type="arc"
       style="opacity:0.32926825;fill:none;fill-opacity:1.0000000;stroke:none;stroke-width:1.2500000;stroke-linecap:butt;stroke-linejoin:round;stroke-miterlimit:4.0000000;stroke-dasharray:10.000000 1.2500000 ;stroke-dashoffset:0.0000000;stroke-opacity:1.0000000"
       id="path2538"
       sodipodi:cx="224.91193"
       sodipodi:cy="118.61269"
       sodipodi:rx="100.89618"
       sodipodi:ry="100.89618"
       d="M 325.80811 118.61269 A 100.89618 100.89618 0 1 1  124.01575,118.61269 A 100.89618 100.89618 0 1 1  325.80811 118.61269 z"
       transform="translate(10.18107,0.625001)" />
    <path
       sodipodi:type="arc"
       style="fill:url(#pattern1941);fill-opacity:1.0000000;stroke:none;stroke-width:1.2500000;stroke-linecap:butt;stroke-linejoin:round;stroke-miterlimit:4.0000000;stroke-dasharray:10.000000 1.2500000 ;stroke-dashoffset:0.0000000;stroke-opacity:1.0000000"
       id="path2615"
       sodipodi:cx="224.91193"
       sodipodi:cy="118.61269"
       sodipodi:rx="100.89618"
       sodipodi:ry="100.89618"
       d="M 325.80811 118.61269 A 100.89618 100.89618 0 1 1  124.01575,118.61269 A 100.89618 100.89618 0 1 1  325.80811 118.61269 z"
       transform="translate(10.80607,6.608137e-7)" />
    <rect
       style="fill:none;stroke:none"
       width="32.232422"
       height="37.876175"
       x="183.76682"
       y="59.468407"
       id="rect2614" />
    <rect
       style="fill:none;stroke:none"
       width="32.232422"
       height="28.276169"
       x="183.76675"
       y="59.468407"
       id="rect2631" />
    <rect
       style="opacity:0.35975608;fill:none;fill-opacity:1.0000000;stroke:none;stroke-width:2.5000000;stroke-linecap:butt;stroke-linejoin:round;stroke-miterlimit:4.0000000;stroke-dashoffset:0.0000000;stroke-opacity:1.0000000"
       id="rect2684"
       width="74.524620"
       height="53.149605"
       x="379.39807"
       y="159.44879" />
    <path
       sodipodi:type="arc"
       style="opacity:0.35975608;fill:none;fill-opacity:1.0000000;stroke:none;stroke-width:1.2500000;stroke-linecap:butt;stroke-linejoin:round;stroke-miterlimit:4.0000000;stroke-dasharray:10.000000 1.2500000 ;stroke-dashoffset:0.0000000;stroke-opacity:1.0000000"
       id="path1933"
       sodipodi:cx="224.91193"
       sodipodi:cy="118.61269"
       sodipodi:rx="100.89618"
       sodipodi:ry="100.89618"
       d="M 325.80811 118.61269 A 100.89618 100.89618 0 1 1  124.01575,118.61269 A 100.89618 100.89618 0 1 1  325.80811 118.61269 z"
       transform="translate(-77.77661,5.403034)" />
  </g>
  <g
     inkscape:label="MagnifyingGlass"
     inkscape:groupmode="layer"
     id="layer1"
     style="display:block">
    <g
       id="g1985">
      <path
         style="stroke-width:6.2500000;stroke-linecap:butt;stroke-linejoin:miter;stroke-miterlimit:4.0000000;fill:#ffffff;fill-opacity:1.0000000;stroke:#000000;stroke-opacity:1.0000000;display:block;"
         d="M 248.03125,35.437500 C 189.35409,35.437500 141.71875,83.041586 141.71875,141.71875 C 141.71875,194.34560 180.07689,237.97584 230.31250,246.43750 L 230.31250,283.46875 L 265.75000,283.46875 L 265.75000,246.43750 C 315.98562,237.97584 354.34377,194.34560 354.34375,141.71875 C 354.34375,83.041586 306.70841,35.437500 248.03125,35.437500 z M 248.03125,53.156250 C 296.92889,53.156250 336.62500,92.821111 336.62500,141.71875 C 336.62501,190.61639 296.92889,230.31250 248.03125,230.31250 C 199.13361,230.31251 159.43750,190.61639 159.43750,141.71875 C 159.43749,92.821111 199.13361,53.156250 248.03125,53.156250 z "
         id="path1736"
         transform="matrix(0.707107,0.707107,-0.707107,0.707107,161.6029,-155.8874)" />
      <rect
         style="stroke-width:7.6123056;stroke-linecap:butt;stroke-linejoin:round;stroke-miterlimit:4.0000000;fill:#ffffff;fill-opacity:1.0000000;stroke:#000000;stroke-opacity:1.0000000;display:block;"
         id="rect1762"
         width="70.866142"
         height="157.65280"
         x="212.59842"
         y="280.64615"
         rx="20.000000"
         ry="20.000000"
         transform="matrix(0.707107,0.707107,-0.707107,0.707107,161.6029,-155.8874)" />
    </g>
    <path
       style="fill:none;fill-opacity:1.0000000;stroke:url(#linearGradient1917);stroke-width:3.7500000;stroke-linecap:butt;stroke-linejoin:miter;stroke-miterlimit:4.0000000;stroke-opacity:1.0000000;display:block;"
       d="M 315.06250,109.37500 C 299.69703,151.44950 259.43408,181.56250 212.06250,181.56250 C 203.41775,181.56250 195.03901,180.45504 186.96875,178.56250 C 200.72010,191.72641 219.31873,199.87500 239.84375,199.87500 C 282.10327,199.87500 316.40626,165.57202 316.40625,123.31250 C 316.40625,118.55128 315.89556,113.89642 315.06250,109.37500 z "
       id="path2416" />
  </g>
</svg>
