<?xml version="1.0" encoding="UTF-8" standalone="no"?>
<!-- Created with Inkscape (http://www.inkscape.org/) -->
<svg
   xmlns:dc="http://purl.org/dc/elements/1.1/"
   xmlns:cc="http://web.resource.org/cc/"
   xmlns:rdf="http://www.w3.org/1999/02/22-rdf-syntax-ns#"
   xmlns:svg="http://www.w3.org/2000/svg"
   xmlns="http://www.w3.org/2000/svg"
   xmlns:sodipodi="http://sodipodi.sourceforge.net/DTD/sodipodi-0.dtd"
   xmlns:inkscape="http://www.inkscape.org/namespaces/inkscape"
   width="300"
   height="130"
   id="svg13591"
   sodipodi:version="0.32"
   inkscape:version="0.45.1"
   version="1.0"
   sodipodi:docbase="/home/john/OSGeo/marketing/logo/svg"
   sodipodi:docname="OSGeo_logo.svg"
   inkscape:output_extension="org.inkscape.output.svg.inkscape">
  <defs
     id="defs13593" />
  <sodipodi:namedview
     id="base"
     pagecolor="#ffffff"
     bordercolor="#666666"
     borderopacity="1.0"
     gridtolerance="10000"
     guidetolerance="10"
     objecttolerance="10"
     inkscape:pageopacity="0.0"
     inkscape:pageshadow="2"
     inkscape:zoom="1.9503623"
     inkscape:cx="162.85714"
     inkscape:cy="62.857143"
     inkscape:document-units="px"
     inkscape:current-layer="layer1"
     width="300px"
     height="130px"
     showgrid="false"
     inkscape:window-width="859"
     inkscape:window-height="750"
     inkscape:window-x="0"
     inkscape:window-y="198" />
  <metadata
     id="metadata13596">
    <rdf:RDF>
      <cc:Work
         rdf:about="">
        <dc:format>image/svg+xml</dc:format>
        <dc:type
           rdf:resource="http://purl.org/dc/dcmitype/StillImage" />
      </cc:Work>
    </rdf:RDF>
  </metadata>
  <g
     inkscape:label="Layer 1"
     inkscape:groupmode="layer"
     id="layer1">
    <g
       transform="translate(1.9392276,4.0277947)"
       id="Compass">
	<path
   clip-rule="evenodd"
   d="M 54.232,117.368 C 28.032,116.453 7.532,94.47 8.447,68.269 C 9.361,42.065 31.345,21.569 57.546,22.484 C 75.658,23.117 91.043,33.819 98.515,49.021 C 99.665,49.057 100.817,49.06 101.976,48.846 C 94.225,31.979 77.475,20 57.657,19.308 C 29.667,18.33 6.187,40.227 5.209,68.219 C 4.233,96.205 26.127,119.687 54.118,120.665 C 61.711,120.929 68.969,119.499 75.539,116.731 C 75.222,115.748 75.025,114.623 74.698,113.516 C 68.439,116.223 61.5,117.621 54.232,117.368 z "
   id="path11941"
   style="fill:#49a942;fill-rule:evenodd" />

	<g
   id="g11943">
		<circle
   cx="55.669998"
   cy="70.192001"
   r="31.707001"
   id="circle11945"
   sodipodi:cx="55.669998"
   sodipodi:cy="70.192001"
   sodipodi:rx="31.707001"
   sodipodi:ry="31.707001"
   style="fill:#a0ce67" />

	</g>

	<polygon
   stroke-miterlimit="6"
   points="61.494,53.061 26.327,4.407 38.873,63.876 3.379,93.238 49.515,86.588 78.884,121.407 72.411,75.859 107.593,46.548 61.494,53.061 "
   id="polygon11947"
   style="fill:#ffffff;stroke:#a0ce67;stroke-width:2;stroke-miterlimit:6" />

	<g
   id="g11949">
		<polygon
   clip-rule="evenodd"
   points="58.606,66.663 76.371,60.624 60.143,69.772 69.983,74.904 59.123,73.172 65.45,91.554 55.707,74.987 50.335,84.403 51.976,73.643 34.388,79.515 50.561,70.082 40.388,64.431 52.106,66.806 46.326,49.022 55.255,65.431 60.669,55.451 58.606,66.663 "
   id="polygon11951"
   style="fill:#49a942;fill-rule:evenodd" />

	</g>

	<path
   id="path11953"
   style="fill:none" />

	<path
   id="path11955"
   style="fill:none" />

</g>
    <g
       transform="translate(0.6663461,6.2143761)"
       id="OSGeo">
	<path
   d="M 107.322,56.194 C 103.756,60.995 101.945,67.04 101.945,74.162 C 101.945,81.726 103.717,88.016 107.221,92.861 C 110.742,97.736 115.686,100.209 121.919,100.209 C 128.744,100.209 134.062,97.869 137.731,93.26 C 141.38,88.664 143.234,82.239 143.234,74.162 C 143.234,66.277 141.385,60.04 137.742,55.616 C 134.089,51.173 128.765,48.92 121.919,48.92 C 115.821,48.92 110.914,51.37 107.322,56.194 M 112.797,88.125 C 110.62,84.412 109.516,79.713 109.516,74.162 C 109.516,68.392 110.592,63.775 112.708,60.444 C 114.804,57.149 117.905,55.478 121.922,55.478 C 131.167,55.478 135.659,61.589 135.659,74.163 C 135.659,80.329 134.468,85.181 132.121,88.579 C 129.796,91.944 126.363,93.649 121.922,93.649 C 118.018,93.648 114.95,91.791 112.797,88.125"
   id="path11930"
   style="fill:#49a942" />

	<path
   d="M 151.834,52.611 C 149.191,55.063 147.853,58.197 147.853,61.923 C 147.853,64.97 148.537,67.625 149.887,69.801 C 151.236,71.981 153.633,73.885 157.019,75.461 L 160.965,77.308 C 164.447,78.95 166.647,80.476 167.497,81.844 C 168.347,83.213 168.777,84.717 168.777,86.311 C 168.777,88.434 168.009,90.206 166.491,91.573 C 164.97,92.949 162.92,93.649 160.388,93.649 C 158.954,93.649 157.304,93.346 155.478,92.74 C 153.653,92.14 152.112,91.382 150.895,90.483 L 150.609,90.272 L 147.962,96.961 L 148.142,97.08 C 151.253,99.156 155.054,100.209 159.441,100.209 C 164.44,100.209 168.488,98.89 171.482,96.287 C 174.488,93.678 176.014,90.454 176.014,86.703 C 176.014,83.275 175.319,80.408 173.945,78.173 C 172.57,75.939 170.156,73.994 166.771,72.395 L 162.749,70.485 C 160.187,69.247 158.47,68.28 157.656,67.603 C 156.853,66.942 156.217,66.106 155.768,65.122 C 155.316,64.131 155.087,63.018 155.087,61.811 C 155.087,59.862 155.722,58.244 156.973,57.006 C 158.223,55.766 159.976,55.139 162.178,55.139 C 163.706,55.139 165.398,55.442 167.201,56.034 C 169.002,56.63 170.356,57.252 171.23,57.883 L 171.525,58.103 L 173.684,51.749 L 173.543,51.63 C 171.375,49.835 167.5,48.922 162.021,48.922 C 157.899,48.92 154.469,50.162 151.834,52.611"
   id="path11932"
   style="fill:#49a942" />

	<path
   d="M 187.21,56.094 C 182.896,60.845 180.706,67.123 180.706,74.746 C 180.706,82.392 182.702,88.61 186.64,93.228 C 190.589,97.858 196.043,100.208 202.853,100.208 C 205.869,100.208 209.024,99.731 212.224,98.804 C 215.436,97.872 217.978,96.616 219.784,95.081 L 219.882,95.002 L 219.882,73.232 L 205.869,73.232 L 205.869,79.451 L 212.647,79.451 L 212.647,90.566 C 210.512,92.605 207.693,93.648 204.258,93.648 C 199.348,93.648 195.421,91.935 192.578,88.549 C 189.725,85.153 188.282,80.599 188.282,75.017 C 188.282,69.142 189.754,64.361 192.661,60.809 C 195.556,57.27 199.562,55.477 204.577,55.477 C 207.729,55.477 211.002,56.72 214.303,59.165 L 214.563,59.357 L 217.576,53.362 L 217.416,53.224 C 214.169,50.37 209.916,48.919 204.771,48.919 C 197.441,48.92 191.531,51.336 187.21,56.094"
   id="path11934"
   style="fill:#49a942" />

	<path
   d="M 231.083,67.17 C 227.454,70.781 225.612,75.63 225.612,81.588 C 225.612,87.332 227.408,91.966 230.946,95.375 C 234.13,98.467 238.05,100.036 242.607,100.036 C 245.75,100.036 248.635,99.555 251.2,98.601 C 253.252,97.872 254.806,96.991 255.812,95.974 L 255.958,95.826 L 253.01,90.787 L 252.767,91.007 C 250.4,93.097 247.401,94.158 243.849,94.158 C 240.745,94.158 238.178,93.191 236.211,91.287 C 234.031,89.146 232.918,86.041 232.868,82.078 L 258.629,82.078 L 258.683,81.879 C 259.023,80.676 259.195,79.344 259.195,77.92 C 259.195,73.289 257.752,69.516 254.896,66.707 C 251.956,63.787 247.848,62.305 242.689,62.305 C 238.238,62.305 234.337,63.944 231.083,67.17 M 236.043,70.855 C 237.897,69.084 240.231,68.185 242.975,68.185 C 245.913,68.185 248.268,69.099 249.966,70.907 C 251.453,72.502 252.193,74.524 252.252,76.875 L 233.097,76.875 C 233.389,74.508 234.345,72.465 236.043,70.855"
   id="path11936"
   style="fill:#49a942" />

	<path
   d="M 268.197,67.503 C 265.186,70.942 263.659,75.51 263.659,81.088 C 263.659,86.838 265.122,91.484 268.011,94.889 C 270.907,98.304 274.997,100.036 280.172,100.036 C 285.232,100.036 289.285,98.322 292.23,94.939 C 295.163,91.566 296.648,86.908 296.648,81.087 C 296.648,75.247 295.196,70.608 292.33,67.302 C 289.453,63.986 285.365,62.304 280.173,62.304 C 275.246,62.305 271.214,64.054 268.197,67.503 M 270.895,81.088 C 270.895,77.008 271.751,73.768 273.437,71.458 C 275.107,69.176 277.371,68.02 280.171,68.02 C 286.388,68.02 289.413,72.291 289.413,81.088 C 289.413,85.191 288.579,88.465 286.932,90.824 C 285.309,93.148 283.035,94.324 280.171,94.324 C 273.928,94.324 270.895,89.996 270.895,81.088"
   id="path11938"
   style="fill:#49a942" />

</g>
    <path
       d="M 88.524066,118.25005 L 87.655066,122.99805 L 85.951066,122.99805 L 86.821066,118.25005 L 84.475066,109.80505 L 86.254066,109.80505 L 87.426066,114.26405 C 87.634066,115.04305 87.804066,115.80705 87.956066,116.54905 L 87.975066,116.54905 C 88.412066,115.74805 88.958066,114.89005 89.507066,114.00805 L 92.155066,109.80505 L 94.065066,109.80505 L 88.524066,118.25005"
       id="path11887"
       style="fill:#a0ce67" />
    <path
       d="M 95.314066,123.17605 C 92.948066,123.17605 91.870066,121.94605 91.870066,119.71705 C 91.870066,115.84605 94.252066,113.11005 97.318066,113.11005 C 99.797066,113.11005 100.81707,114.55505 100.81707,116.60805 C 100.81707,120.61505 98.148066,123.17605 95.314066,123.17605 M 97.052066,114.59605 C 94.991066,114.59605 93.611066,116.97905 93.611066,119.42405 C 93.611066,120.86905 94.180066,121.67205 95.597066,121.67205 C 97.431066,121.67205 99.040066,119.63705 99.040066,116.80305 C 99.040066,115.37505 98.415066,114.59605 97.052066,114.59605"
       id="path11889"
       style="fill:#a0ce67" />
    <path
       d="M 109.42207,122.99805 L 107.75907,122.99805 C 107.89107,122.35405 108.13807,121.24005 108.79707,119.17005 L 108.76207,119.17005 C 107.87007,121.22205 106.39707,123.19505 104.42907,123.19505 C 102.69007,123.19505 102.08407,121.92505 102.46307,119.89205 L 103.67307,113.28505 L 105.35407,113.28505 L 104.20307,119.50005 C 103.91807,121.02605 104.18507,121.69105 105.01607,121.69105 C 106.75507,121.69105 108.70407,117.87705 109.14007,115.47405 L 109.53607,113.28505 L 111.20007,113.28505 L 109.42207,122.99805"
       id="path11891"
       style="fill:#a0ce67" />
    <path
       d="M 118.52007,114.81005 C 116.78207,114.30005 114.92707,118.11305 114.43407,120.81205 L 114.03807,122.99805 L 112.37207,122.99805 L 114.14907,113.28505 L 115.77807,113.28505 C 115.62507,114.12505 115.36207,115.16005 114.81207,116.86305 L 114.84907,116.88305 C 115.91007,114.51805 117.04607,112.79805 118.86007,113.11005 L 118.52007,114.81005"
       id="path11893"
       style="fill:#a0ce67" />
    <path
       d="M 127.88407,123.19605 C 124.80007,123.19605 123.32407,121.39805 123.32407,118.38605 C 123.32407,113.61505 126.46307,109.61105 130.62507,109.61105 C 133.59307,109.61105 135.21907,111.36905 135.21907,114.42005 C 135.21907,119.44105 131.92907,123.19605 127.88407,123.19605 M 130.34207,111.19205 C 127.31807,111.19205 125.16007,114.39605 125.16007,118.13405 C 125.16007,120.26305 126.17907,121.59105 128.12807,121.59105 C 131.02207,121.59105 133.38707,118.52305 133.38707,114.61205 C 133.38707,112.52305 132.40507,111.19205 130.34207,111.19205"
       id="path11895"
       style="fill:#a0ce67" />
    <path
       d="M 139.13507,123.13905 C 138.66307,123.13905 138.24507,123.09705 137.81107,123.02005 L 136.94007,127.82905 L 135.27807,127.82905 L 137.94307,113.28605 L 139.60907,113.28605 C 139.44007,114.12605 139.19307,115.08505 138.54907,117.17705 L 138.58907,117.19705 C 139.55207,114.90905 141.02907,113.09205 142.95907,113.09205 C 144.31707,113.09205 145.05707,113.99205 145.05707,116.04305 C 145.05607,119.61905 143.25707,123.13905 139.13507,123.13905 M 142.36907,114.59605 C 140.59207,114.59605 138.68107,118.48605 138.24507,120.77205 L 138.09507,121.51605 C 138.49207,121.65105 139.06007,121.74805 139.45807,121.74805 C 142.22107,121.74805 143.33407,118.77505 143.33407,116.37405 C 143.33507,115.10305 142.95807,114.59605 142.36907,114.59605"
       id="path11897"
       style="fill:#a0ce67" />
    <path
       d="M 148.15807,118.71705 C 148.10107,119.01405 148.06307,119.50005 148.06307,119.85205 C 148.06307,121.35805 148.57406,121.74805 150.08706,121.74805 C 150.97506,121.74805 151.92206,121.53205 152.73406,121.18305 L 152.73406,122.59205 C 151.82606,122.96105 150.72906,123.17605 149.50006,123.17605 C 147.34407,123.17605 146.34207,122.22105 146.34207,120.03005 C 146.34207,116.25605 148.36606,113.11005 151.48706,113.11005 C 153.49206,113.11005 154.24806,114.16605 154.24806,115.31905 C 154.24806,117.41005 152.18506,118.56105 148.15807,118.71705 M 151.29806,114.43705 C 149.80206,114.43705 148.80106,115.78905 148.36606,117.42705 C 151.27906,117.31005 152.56606,116.70605 152.56606,115.53105 C 152.56706,114.82805 152.05506,114.43705 151.29806,114.43705"
       id="path11899"
       style="fill:#a0ce67" />
    <path
       d="M 162.79606,122.99805 L 161.13406,122.99805 L 162.28606,116.78305 C 162.57106,115.25905 162.30606,114.59505 161.45606,114.59505 C 159.71506,114.59505 157.78506,118.40505 157.35106,120.81205 L 156.95406,122.99805 L 155.29106,122.99805 L 156.23606,117.91705 C 156.48106,116.53105 156.82206,114.71105 157.06506,113.28505 L 158.71306,113.28505 C 158.59706,113.93105 158.33506,115.04305 157.67206,117.11705 L 157.71106,117.11705 C 158.59706,115.06405 160.09406,113.09005 162.05906,113.09005 C 163.79806,113.09005 164.38606,114.36105 164.02806,116.39305 L 162.79606,122.99805"
       id="path11901"
       style="fill:#a0ce67" />
    <path
       d="M 177.47306,111.41005 C 176.85006,111.17605 176.17006,111.09605 175.69606,111.09605 C 173.80506,111.09605 172.95406,112.21105 172.95406,113.26605 C 172.95406,115.65105 176.85006,115.73105 176.85006,118.85805 C 176.85006,121.30005 174.76806,123.19705 171.80206,123.19705 C 171.12006,123.19705 170.32406,123.11805 169.70006,122.92305 L 170.02206,121.20205 C 170.55106,121.43705 171.30706,121.61405 171.95106,121.61405 C 173.91806,121.61405 175.03406,120.61605 175.03406,119.15105 C 175.03406,116.86405 171.15706,116.84405 171.15706,113.67705 C 171.15706,111.50805 172.80206,109.61205 175.86606,109.61205 C 176.51006,109.61205 177.07706,109.65105 177.79606,109.80505 L 177.47306,111.41005"
       id="path11903"
       style="fill:#a0ce67" />
    <path
       d="M 181.97706,123.17605 C 179.61306,123.17605 178.53206,121.94605 178.53206,119.71705 C 178.53206,115.84605 180.91806,113.11005 183.98206,113.11005 C 186.46106,113.11005 187.48106,114.55505 187.48106,116.60805 C 187.48106,120.61505 184.81406,123.17605 181.97706,123.17605 M 183.71706,114.59605 C 181.65506,114.59605 180.27406,116.97905 180.27406,119.42405 C 180.27406,120.86905 180.84006,121.67205 182.25806,121.67205 C 184.09306,121.67205 185.70006,119.63705 185.70006,116.80305 C 185.70006,115.37505 185.07806,114.59605 183.71706,114.59605"
       id="path11905"
       style="fill:#a0ce67" />
    <path
       d="M 196.08506,122.99805 L 194.42106,122.99805 C 194.55506,122.35405 194.80006,121.24005 195.46106,119.17005 L 195.42306,119.17005 C 194.53406,121.22205 193.05806,123.19505 191.09406,123.19505 C 189.35006,123.19505 188.74506,121.92505 189.12506,119.89205 L 190.33406,113.28505 L 192.01806,113.28505 L 190.86506,119.50005 C 190.58206,121.02605 190.84506,121.69105 191.68106,121.69105 C 193.41806,121.69105 195.36906,117.87705 195.80206,115.47405 L 196.19806,113.28505 L 197.86406,113.28505 L 196.08506,122.99805"
       id="path11907"
       style="fill:#a0ce67" />
    <path
       d="M 205.16406,114.81005 C 203.42506,114.30005 201.57106,118.11305 201.07606,120.81205 L 200.68306,122.99805 L 199.01606,122.99805 L 200.79406,113.28505 L 202.42106,113.28505 C 202.27006,114.12505 202.00406,115.16005 201.45606,116.86305 L 201.49306,116.88305 C 202.55206,114.51805 203.68806,112.79805 205.50406,113.11005 L 205.16406,114.81005"
       id="path11909"
       style="fill:#a0ce67" />
    <path
       d="M 212.38806,114.94605 C 211.87706,114.71105 211.33106,114.57405 210.66606,114.57405 C 208.28406,114.57405 207.16906,117.35005 207.16906,119.56005 C 207.16906,120.57405 207.48806,121.61305 209.13706,121.61305 C 209.87206,121.61305 210.66606,121.43605 211.25506,121.14405 L 211.14006,122.68705 C 210.48006,122.94105 209.60906,123.15505 208.66106,123.15505 C 206.22306,123.15505 205.39106,121.78905 205.39106,119.95105 C 205.39106,116.23705 207.41506,113.12905 210.78006,113.12905 C 211.55706,113.12905 212.17906,113.24605 212.76706,113.42005 L 212.38806,114.94605"
       id="path11911"
       style="fill:#a0ce67" />
    <path
       d="M 215.05506,118.71705 C 214.99806,119.01405 214.96106,119.50005 214.96106,119.85205 C 214.96106,121.35805 215.47106,121.74805 216.98706,121.74805 C 217.87106,121.74805 218.81906,121.53205 219.63306,121.18305 L 219.63306,122.59205 C 218.72606,122.96105 217.62806,123.17605 216.39906,123.17605 C 214.24406,123.17605 213.24206,122.22105 213.24206,120.03005 C 213.24206,116.25605 215.26406,113.11005 218.38406,113.11005 C 220.39006,113.11005 221.14706,114.16605 221.14706,115.31905 C 221.14606,117.41005 219.08406,118.56105 215.05506,118.71705 M 218.19506,114.43705 C 216.70106,114.43705 215.69906,115.78905 215.26406,117.42705 C 218.17406,117.31005 219.46206,116.70605 219.46206,115.53105 C 219.46206,114.82805 218.95106,114.43705 218.19506,114.43705"
       id="path11913"
       style="fill:#a0ce67" />
    <path
       d="M 236.40906,111.72105 C 235.52006,111.38905 234.63106,111.25205 233.76006,111.25205 C 230.05506,111.25205 228.56106,115.00505 228.56106,118.32805 C 228.56106,120.22405 229.31806,121.55505 231.77606,121.55505 C 232.83506,121.55505 233.87406,121.32005 234.74506,120.90905 L 234.66906,122.53205 C 233.65006,122.92305 232.45706,123.15605 231.26706,123.15605 C 227.61706,123.15605 226.67006,120.94805 226.67006,118.62305 C 226.67006,114.00905 229.18406,109.68805 234.00706,109.68805 C 235.08506,109.68805 235.99306,109.84605 236.82506,110.08205 L 236.40906,111.72105"
       id="path11915"
       style="fill:#a0ce67" />
    <path
       d="M 240.06206,123.17605 C 237.69606,123.17605 236.61906,121.94605 236.61906,119.71705 C 236.61906,115.84605 239.00106,113.11005 242.06606,113.11005 C 244.54306,113.11005 245.56406,114.55505 245.56406,116.60805 C 245.56406,120.61505 242.90006,123.17605 240.06206,123.17605 M 241.79906,114.59605 C 239.73806,114.59605 238.36006,116.97905 238.36006,119.42405 C 238.36006,120.86905 238.92406,121.67205 240.34206,121.67205 C 242.17906,121.67205 243.78406,119.63705 243.78406,116.80305 C 243.78406,115.37505 243.16306,114.59605 241.79906,114.59605"
       id="path11917"
       style="fill:#a0ce67" />
    <path
       d="M 259.88206,122.99805 L 258.19806,122.99805 L 259.35206,116.78305 C 259.63606,115.25905 259.37106,114.57405 258.59506,114.57405 C 256.98706,114.57405 255.02106,118.17305 254.52906,120.81205 L 254.13306,122.99805 L 252.46806,122.99805 L 253.62106,116.78305 C 253.90506,115.25905 253.65806,114.57405 252.84506,114.57405 C 251.25706,114.57405 249.29006,118.17305 248.79806,120.81205 L 248.40106,122.99805 L 246.73906,122.99805 L 247.68206,117.91705 C 247.94806,116.47105 248.27006,114.71105 248.51306,113.28505 L 250.16006,113.28505 C 250.04906,113.93105 249.78106,115.06405 249.11906,117.11705 L 249.15806,117.11705 C 250.02606,115.08405 251.50206,113.09005 253.43206,113.09005 C 254.64206,113.09005 255.32406,113.77405 255.32406,114.98505 C 255.32406,115.59105 255.17206,116.15905 254.87006,117.13505 L 254.90706,117.15505 C 255.77706,115.06505 257.25306,113.09105 259.18206,113.09105 C 260.88406,113.09105 261.47006,114.36205 261.09006,116.39405 L 259.88206,122.99805"
       id="path11919"
       style="fill:#a0ce67" />
    <path
       d="M 265.69006,123.13905 C 265.21706,123.13905 264.79806,123.09705 264.36606,123.02005 L 263.49406,127.82905 L 261.83106,127.82905 L 264.49906,113.28605 L 266.16006,113.28605 C 265.99306,114.12605 265.74406,115.08505 265.10306,117.17705 L 265.13806,117.19705 C 266.10606,114.90905 267.57906,113.09205 269.51006,113.09205 C 270.87006,113.09205 271.60706,113.99205 271.60706,116.04305 C 271.60706,119.61905 269.81306,123.13905 265.69006,123.13905 M 268.92406,114.59605 C 267.14506,114.59605 265.23506,118.48605 264.79806,120.77205 L 264.64706,121.51605 C 265.04406,121.65105 265.61406,121.74805 266.00906,121.74805 C 268.77306,121.74805 269.88906,118.77505 269.88906,116.37405 C 269.88906,115.10305 269.51006,114.59605 268.92406,114.59605"
       id="path11921"
       style="fill:#a0ce67" />
    <path
       d="M 279.94906,122.99805 L 278.26606,122.99805 C 278.43706,122.16105 278.79506,120.86905 279.36406,119.05105 L 279.32506,119.03405 C 278.64406,120.53705 277.22506,123.19605 274.93906,123.19605 C 273.57706,123.19605 272.83706,122.29605 272.83706,120.24405 C 272.83706,116.66505 274.63306,113.12905 278.73806,113.12905 C 279.81506,113.12905 280.81706,113.24605 281.69006,113.42405 C 280.68806,118.85705 280.34606,120.67405 279.94906,122.99805 M 278.45406,114.51805 C 275.65606,114.51805 274.55906,117.50605 274.55906,119.91105 C 274.55906,121.18305 274.93906,121.69205 275.52406,121.69205 C 277.30006,121.69205 279.23006,117.80105 279.66506,115.47505 L 279.80106,114.69605 C 279.42006,114.59605 278.98606,114.51805 278.45406,114.51805"
       id="path11923"
       style="fill:#a0ce67" />
    <path
       d="M 288.55606,114.67405 C 288.10006,114.51805 287.61106,114.43805 287.14006,114.43805 C 285.90806,114.43805 285.26406,115.04305 285.26406,115.86605 C 285.26406,117.41105 288.11906,117.81905 288.11906,120.01105 C 288.11906,121.63205 286.74006,123.17705 284.07206,123.17705 C 283.44806,123.17705 282.93606,123.14005 282.46506,123.03905 L 282.76706,121.47705 C 283.25906,121.63105 283.76806,121.73105 284.29906,121.73105 C 285.52806,121.73105 286.36006,121.22205 286.36006,120.20605 C 286.36006,118.66305 283.52306,118.40605 283.52306,116.06105 C 283.52306,114.39705 284.81006,113.11005 287.25006,113.11005 C 287.91306,113.11005 288.38706,113.16905 288.86006,113.24705 L 288.55606,114.67405"
       id="path11925"
       style="fill:#a0ce67" />
    <path
       d="M 295.66806,114.67405 C 295.21206,114.51805 294.72306,114.43805 294.24706,114.43805 C 293.01806,114.43805 292.37506,115.04305 292.37506,115.86605 C 292.37506,117.41105 295.23006,117.81905 295.23006,120.01105 C 295.23006,121.63205 293.85206,123.17705 291.18506,123.17705 C 290.56106,123.17705 290.04706,123.14005 289.57506,123.03905 L 289.88006,121.47705 C 290.37006,121.63105 290.88206,121.73105 291.40906,121.73105 C 292.63806,121.73105 293.47306,121.22205 293.47306,120.20605 C 293.47306,118.66305 290.63306,118.40605 290.63306,116.06105 C 290.63306,114.39705 291.92106,113.11005 294.36006,113.11005 C 295.02306,113.11005 295.49506,113.16905 295.96706,113.24705 L 295.66806,114.67405"
       id="path11927"
       style="fill:#a0ce67" />
  </g>
</svg>
