<?xml version="1.0" encoding="UTF-8" standalone="no"?>
<!-- Created with Inkscape (http://www.inkscape.org/) -->

<svg
   xmlns:dc="http://purl.org/dc/elements/1.1/"
   xmlns:cc="http://creativecommons.org/ns#"
   xmlns:rdf="http://www.w3.org/1999/02/22-rdf-syntax-ns#"
   xmlns:svg="http://www.w3.org/2000/svg"
   xmlns="http://www.w3.org/2000/svg"
   xmlns:xlink="http://www.w3.org/1999/xlink"
   xmlns:sodipodi="http://sodipodi.sourceforge.net/DTD/sodipodi-0.dtd"
   xmlns:inkscape="http://www.inkscape.org/namespaces/inkscape"
   width="1119.6851"
   height="442.91336"
   id="svg2"
   sodipodi:version="0.32"
   inkscape:version="0.48.3.1 r9886"
   version="1.0"
   sodipodi:docname="osmflyer1.svg"
   inkscape:output_extension="org.inkscape.output.svg.inkscape"
   style="display:inline"
   inkscape:export-filename="/home/matthias/Arbeitsfläche/OSM PT/pt flyer/osmflyer1_pt.png"
   inkscape:export-xdpi="300.03757"
   inkscape:export-ydpi="300.03757">
  <defs
     id="defs4" />
  <sodipodi:namedview
     id="base"
     pagecolor="#e1f3fa"
     bordercolor="#666666"
     borderopacity="1.0"
     gridtolerance="50"
     guidetolerance="10"
     objecttolerance="10"
     inkscape:pageopacity="1"
     inkscape:pageshadow="2"
     inkscape:zoom="1.1285315"
     inkscape:cx="380.14867"
     inkscape:cy="232.32587"
     inkscape:document-units="px"
     inkscape:current-layer="layer3"
     width="316mm"
     height="125mm"
     units="mm"
     showguides="false"
     inkscape:guide-bbox="true"
     inkscape:guide-points="true"
     inkscape:window-width="1301"
     inkscape:window-height="744"
     inkscape:window-x="65"
     inkscape:window-y="24"
     inkscape:object-points="false"
     inkscape:object-paths="false"
     inkscape:grid-bbox="false"
     showgrid="false"
     inkscape:window-maximized="1">
    <sodipodi:guide
       orientation="vertical"
       position="0"
       id="guide2160" />
    <sodipodi:guide
       orientation="vertical"
       position="17.716535"
       id="guide2162" />
    <sodipodi:guide
       orientation="vertical"
       position="35.433071"
       id="guide2164" />
    <sodipodi:guide
       orientation="vertical"
       position="297.6378"
       id="guide2166" />
    <sodipodi:guide
       orientation="vertical"
       position="559.84252"
       id="guide2168" />
    <sodipodi:guide
       orientation="vertical"
       position="822.04724"
       id="guide2170" />
    <sodipodi:guide
       orientation="vertical"
       position="1101.9685"
       id="guide2174" />
    <sodipodi:guide
       orientation="vertical"
       position="1119.685"
       id="guide2176" />
    <sodipodi:guide
       orientation="vertical"
       position="1084.252"
       id="guide2178" />
    <sodipodi:guide
       orientation="horizontal"
       position="0"
       id="guide2182" />
    <sodipodi:guide
       orientation="horizontal"
       position="17.716535"
       id="guide2184" />
    <sodipodi:guide
       orientation="horizontal"
       position="35.433071"
       id="guide2186" />
    <sodipodi:guide
       orientation="horizontal"
       position="407.48031"
       id="guide2188" />
    <sodipodi:guide
       orientation="horizontal"
       position="425.19685"
       id="guide2190" />
    <sodipodi:guide
       orientation="horizontal"
       position="442.91339"
       id="guide2192" />
    <sodipodi:guide
       orientation="horizontal"
       position="378"
       id="guide2549" />
    <sodipodi:guide
       orientation="vertical"
       position="49.606299"
       id="guide3686" />
    <sodipodi:guide
       orientation="vertical"
       position="283.46457"
       id="guide3688" />
    <sodipodi:guide
       orientation="horizontal"
       position="393.30709"
       id="guide3690" />
    <sodipodi:guide
       orientation="horizontal"
       position="49.606299"
       id="guide3692" />
    <sodipodi:guide
       orientation="vertical"
       position="574.01575"
       id="guide3927" />
    <sodipodi:guide
       orientation="vertical"
       position="545.66929"
       id="guide3929" />
    <sodipodi:guide
       orientation="vertical"
       position="808.62337"
       id="guide3931" />
    <sodipodi:guide
       orientation="vertical"
       position="311.81102"
       id="guide3933" />
  </sodipodi:namedview>
  <metadata
     id="metadata7">
    <rdf:RDF>
      <cc:Work
         rdf:about="">
        <dc:format>image/svg+xml</dc:format>
        <dc:type
           rdf:resource="http://purl.org/dc/dcmitype/StillImage" />
        <dc:title></dc:title>
      </cc:Work>
    </rdf:RDF>
  </metadata>
  <g
     inkscape:label="flyer"
     inkscape:groupmode="layer"
     id="layer1"
     style="display:inline">
    <image
       sodipodi:absref="/home/matthias/Arbeitsfläche/OSM PT/pt flyer/berlin-background-blaugrau.png"
       xlink:href="berlin-background-blaugrau.png"
       width="1417.6224"
       height="407.21207"
       id="image2738"
       x="-261.03812"
       y="17.716511" />
    <image
       sodipodi:absref="/home/matthias/Arbeitsfläche/OSM PT/pt flyer/globe_part_halo.png"
       xlink:href="globe_part_halo.png"
       y="24.243629"
       x="794.24286"
       id="image2726"
       height="396.18701"
       width="327.56903" />
    <text
       xml:space="preserve"
       style="font-size:14px;font-style:normal;font-variant:normal;font-weight:normal;font-stretch:normal;text-align:start;line-height:125%;writing-mode:lr-tb;text-anchor:start;fill:#000000;fill-opacity:1;stroke:none;font-family:FrobisherCondExtrabold"
       x="48.7943"
       y="64.745361"
       id="text3397"
       sodipodi:linespacing="125%"
       inkscape:export-filename="/tmp/1.png"
       inkscape:export-xdpi="400.01047"
       inkscape:export-ydpi="400.01047"><tspan
         sodipodi:role="line"
         id="tspan3399"
         x="48.7943"
         y="64.745361">Junta-te ao OpenStreetMap! </tspan></text>
    <flowRoot
       xml:space="preserve"
       id="flowRoot3401"
       style="font-size:11px;font-style:normal;font-variant:normal;font-weight:normal;font-stretch:normal;text-align:start;line-height:125%;writing-mode:lr-tb;text-anchor:start;font-family:FrobisherCondensed"
       transform="translate(13.863799,-4.9786641)"
       inkscape:export-filename="/tmp/1.png"
       inkscape:export-xdpi="400.01047"
       inkscape:export-ydpi="400.01047"><flowRegion
         id="flowRegion3403"><rect
           id="rect3405"
           width="229.99747"
           height="97.199829"
           x="35.687172"
           y="88.272079"
           style="font-size:11px;font-style:normal;font-variant:normal;font-weight:normal;font-stretch:normal;text-align:start;line-height:125%;writing-mode:lr-tb;text-anchor:start;font-family:FrobisherCondensed" /></flowRegion><flowPara
         id="flowPara2572"
         style="font-style:normal;font-variant:normal;font-weight:normal;font-stretch:normal;font-family:TeX Gyre Heros;-inkscape-font-specification:TeX Gyre Heros">Podes encontrar o website internacional em <flowSpan
   style="font-weight:bold;-inkscape-font-specification:TeX Gyre Heros Bold"
   id="flowSpan3114">www.openstreetmap.org</flowSpan>. Existe uma Wiki com muita informação e com um manual para iniciados. Em www.openstreetmap.pt encontrarás a entrada para a comunidade Portuguesa e ligações para fóruns e listas de correio eletrónico. </flowPara></flowRoot>    <flowRoot
       xml:space="preserve"
       id="flowRoot2662"
       style="font-size:11px;font-style:normal;font-variant:normal;font-weight:normal;font-stretch:normal;text-align:start;line-height:125%;writing-mode:lr-tb;text-anchor:start;fill:#ff0000;font-family:FrobisherCondensed"
       transform="translate(117.29855,91.42581)"
       inkscape:export-filename="/tmp/1.png"
       inkscape:export-xdpi="400.01047"
       inkscape:export-ydpi="400.01047"><flowRegion
         id="flowRegion2664"><rect
           id="rect2666"
           width="132.80647"
           height="140.53038"
           x="35.687172"
           y="88.272079"
           style="font-size:11px;font-style:normal;font-variant:normal;font-weight:normal;font-stretch:normal;text-align:start;line-height:125%;writing-mode:lr-tb;text-anchor:start;fill:#ff0000;font-family:FrobisherCondensed" /></flowRegion><flowPara
         id="flowPara2678"
         style="fill:#000000;font-family:TeX Gyre Heros;-inkscape-font-specification:TeX Gyre Heros">O livro “Using and Enhancing the Free Map of the World”, de Frederik Ramm e Jochen Topf, publicado pela Lehmanns Media, explica todos os detalhes desde como gravar os dados até desenhar os seus próprios mapas.</flowPara></flowRoot>    <rect
       style="fill:none;stroke:#40406d;stroke-width:0.70866144;stroke-miterlimit:4;stroke-opacity:0;stroke-dasharray:none"
       id="rect5375"
       width="496.76749"
       height="271.0448"
       x="311.83521"
       y="49.630428"
       inkscape:export-filename="/tmp/1.png"
       inkscape:export-xdpi="400.01047"
       inkscape:export-ydpi="400.01047" />
    <flowRoot
       xml:space="preserve"
       id="flowRoot10341"
       style="font-size:11px;font-style:normal;font-variant:normal;font-weight:normal;font-stretch:normal;text-align:start;line-height:125%;writing-mode:lr-tb;text-anchor:start;font-family:FrobisherCondensed"
       transform="translate(276.02452,236.74942)"
       inkscape:export-filename="/tmp/1.png"
       inkscape:export-xdpi="400.01047"
       inkscape:export-ydpi="400.01047"><flowRegion
         id="flowRegion10343"><rect
           id="rect10345"
           width="247.66301"
           height="96.771866"
           x="35.687172"
           y="88.272079"
           style="font-size:11px;font-style:normal;font-variant:normal;font-weight:normal;font-stretch:normal;text-align:start;line-height:125%;writing-mode:lr-tb;text-anchor:start;font-family:FrobisherCondensed" /></flowRegion><flowPara
         id="flowPara10351"
         style="font-style:normal;font-variant:normal;font-weight:normal;font-stretch:normal;font-family:TeX Gyre Heros;-inkscape-font-specification:TeX Gyre Heros">O mapa de Águeda nesta página e a zona em destaque, incluindo o globo na página principal, foram criados através de software livre usando dados do OpenStreetMap. O mapa foi criado por quem conhece o local nas suas movimentações do dia-a-dia. Não tem os erros típicos dos mapas feitos remotamente, com base em imagens aéreas, por quem nunca foi a Águeda. </flowPara></flowRoot>    <rect
       style="fill:#ffffff;fill-opacity:0.66666667;fill-rule:evenodd;stroke:none"
       id="rect2510"
       width="234.60762"
       height="44.584057"
       x="574.01575"
       y="348.72302" />
    <text
       xml:space="preserve"
       style="font-size:7.32169770999999958px;font-style:italic;font-variant:normal;font-weight:normal;font-stretch:normal;text-align:start;line-height:112.00000047999999708%;writing-mode:lr-tb;text-anchor:start;fill:#000000;fill-opacity:1;stroke:none;font-family:FrobisherCondensed"
       x="635.79779"
       y="328.87158"
       id="text4308"
       sodipodi:linespacing="112%"
       transform="scale(0.9152122,1.0926428)"><tspan
         sodipodi:role="line"
         x="635.79779"
         y="328.87158"
         style="font-size:7.77930402999999959px;font-style:normal;font-variant:normal;font-weight:normal;font-stretch:normal;text-align:start;line-height:112.00000047999999708%;writing-mode:lr-tb;text-anchor:start;fill:#000000;font-family:TeX Gyre Heros;-inkscape-font-specification:TeX Gyre Heros"
         id="tspan3113">Os custos para a produção deste prospecto foram patrocinados pela</tspan><tspan
         sodipodi:role="line"
         x="635.79779"
         y="337.58441"
         style="font-size:7.77930402999999959px;font-style:normal;font-variant:normal;font-weight:normal;font-stretch:normal;text-align:start;line-height:112.00000047999999708%;writing-mode:lr-tb;text-anchor:start;fill:#000000;font-family:TeX Gyre Heros;-inkscape-font-specification:TeX Gyre Heros"
         id="tspan3115">OSGeo Portugal, uma organizacao que trabalha</tspan><tspan
         sodipodi:role="line"
         x="635.79779"
         y="346.29721"
         style="font-size:7.77930402999999959px;font-style:normal;font-variant:normal;font-weight:normal;font-stretch:normal;text-align:start;line-height:112.00000047999999708%;writing-mode:lr-tb;text-anchor:start;fill:#000000;font-family:TeX Gyre Heros;-inkscape-font-specification:TeX Gyre Heros"
         id="tspan3123">com sistemas abertos de Geoinformação e</tspan><tspan
         sodipodi:role="line"
         x="635.79779"
         y="355.01004"
         style="font-size:7.77930402999999959px;font-style:normal;font-variant:normal;font-weight:normal;font-stretch:normal;text-align:start;line-height:112.00000047999999708%;writing-mode:lr-tb;text-anchor:start;fill:#000000;font-family:TeX Gyre Heros;-inkscape-font-specification:TeX Gyre Heros"
         id="tspan3125">dados geográficos.</tspan></text>
    <rect
       style="fill:none;stroke:#40406d;stroke-width:0.70866144;stroke-miterlimit:4;stroke-opacity:0;stroke-dasharray:none"
       id="rect6286"
       width="94.723618"
       height="132.7984"
       x="49.6063"
       y="183.96637" />
    <text
       xml:space="preserve"
       style="font-size:18px;font-style:normal;font-variant:normal;font-weight:normal;font-stretch:normal;text-align:start;line-height:129.99999523%;writing-mode:lr-tb;text-anchor:start;fill:#000000;fill-opacity:1;stroke:none;font-family:FrobisherExtrabold"
       x="901.20569"
       y="341.23984"
       id="text3367"
       sodipodi:linespacing="130%"
       inkscape:export-filename="/tmp/1.png"
       inkscape:export-xdpi="400.01047"
       inkscape:export-ydpi="400.01047"><tspan
         sodipodi:role="line"
         x="901.20569"
         y="341.23984"
         id="tspan3236"
         style="font-style:normal;font-variant:normal;font-weight:normal;font-stretch:normal;font-family:TeX Gyre Heros;-inkscape-font-specification:TeX Gyre Heros">Explora o mundo</tspan><tspan
         sodipodi:role="line"
         x="901.20569"
         y="364.63983"
         style="font-style:normal;font-variant:normal;font-weight:normal;font-stretch:normal;font-family:TeX Gyre Heros;-inkscape-font-specification:TeX Gyre Heros"
         id="tspan3101">comum mapa mundial</tspan><tspan
         sodipodi:role="line"
         x="901.20569"
         y="388.03983"
         style="font-style:normal;font-variant:normal;font-weight:normal;font-stretch:normal;font-family:TeX Gyre Heros;-inkscape-font-specification:TeX Gyre Heros"
         id="tspan3103">livre e gratuito! </tspan></text>
    <text
       xml:space="preserve"
       style="font-size:41.35279083px;font-style:normal;font-variant:normal;font-weight:normal;font-stretch:normal;text-align:start;line-height:100%;writing-mode:lr-tb;text-anchor:start;fill:#000000;fill-opacity:1;stroke:none;font-family:FrobisherExtrabold"
       x="-393.36859"
       y="862.96704"
       id="text3363"
       sodipodi:linespacing="100%"
       inkscape:export-filename="/tmp/1.png"
       inkscape:export-xdpi="400.01047"
       inkscape:export-ydpi="400.01047"
       transform="matrix(0,-1,1,0,0,0)"><tspan
         sodipodi:role="line"
         id="tspan3365"
         x="-393.36859"
         y="862.96704"
         dx="0 0 0 0 2.651968 0 0 0 0 0 3.9779522"
         style="-inkscape-font-specification:TeX Gyre Heros;font-family:TeX Gyre Heros;font-weight:normal;font-style:normal;font-stretch:normal;font-variant:normal">OpenStreetMap</tspan></text>
    <rect
       style="fill:none;stroke:#40406d;stroke-width:1;stroke-linecap:square;stroke-linejoin:miter;stroke-miterlimit:4;stroke-opacity:1;stroke-dasharray:none"
       id="rect3666"
       width="495.81186"
       height="270.8237"
       x="312.31107"
       y="50.10627" />
    <image
       sodipodi:absref="/home/matthias/Arbeitsfläche/OSM PT/pt flyer/buchcover_en.png"
       xlink:href="buchcover_en.png"
       inkscape:export-ydpi="400.01047"
       inkscape:export-xdpi="400.01047"
       inkscape:export-filename="/tmp/1.png"
       width="94.857666"
       height="132.76146"
       id="image2641"
       x="50.137497"
       y="182.00185" />
    <rect
       style="fill:none;stroke:#40406d;stroke-width:1.08699238;stroke-miterlimit:4;stroke-opacity:1;stroke-dasharray:none"
       id="rect4177"
       width="95.224449"
       height="133.47879"
       x="50.149498"
       y="181.52455" />
    <rect
       style="fill:#ffffff;fill-opacity:0.66666667;fill-rule:evenodd;stroke:none"
       id="rect2561"
       width="234.60764"
       height="15.193696"
       x="574.01575"
       y="328.65796" />
    <image
       sodipodi:absref="/home/matthias/Arbeitsfläche/OSM PT/pt flyer/osm.png"
       xlink:href="osm.png"
       y="274.80225"
       x="832.98285"
       id="image2836"
       height="71.127243"
       width="71.127243"
       transform="matrix(0.9683732,-0.2495063,0.2495063,0.9683732,0,0)"
       inkscape:transform-center-x="1.7791254"
       inkscape:transform-center-y="0.0650818" />
    <a
       transform="translate(-0.077,-12.178801)"
       id="a3657">
      <flowRoot
         inkscape:export-ydpi="400.01047"
         inkscape:export-xdpi="400.01047"
         inkscape:export-filename="/tmp/1.png"
         xml:space="preserve"
         id="flowRoot3659"
         style="font-size:11px;font-style:normal;font-variant:normal;font-weight:normal;font-stretch:normal;text-align:start;line-height:125%;writing-mode:lr-tb;text-anchor:start;font-family:FrobisherCondensed"
         transform="translate(13.896799,248.56322)"><flowRegion
           id="flowRegion3661"><rect
             id="rect3663"
             width="233.99994"
             height="92.491409"
             x="35.687172"
             y="88.272079"
             style="font-size:11px;font-style:normal;font-variant:normal;font-weight:normal;font-stretch:normal;text-align:start;line-height:125%;writing-mode:lr-tb;text-anchor:start;font-family:FrobisherCondensed" /></flowRegion><flowPara
           id="flowPara3669"
           style="font-style:normal;font-variant:normal;font-weight:normal;font-stretch:normal;font-family:TeX Gyre Heros;-inkscape-font-specification:TeX Gyre Heros">O OpenStreetMap (OSM) distribui todos os dados com a licença &quot;Open Database License 1.0&quot;. Qualquer um os pode usar, desde que quaisquer alterações também sejam publicadas com a mesma licença aberta. </flowPara></flowRoot>    </a>
    <image
       y="50.006363"
       x="312.211"
       id="image3136"
       xlink:href="file:///home/matthias/Arbeitsfl%C3%A4che/OSM%20PT/pt%20flyer/lissabon.png"
       height="270.724"
       width="495.71198" />
    <g
       style="opacity:0.85;display:inline"
       id="g3372"
       transform="matrix(0.22774743,0,0,0.22774743,605.49144,188.74304)">
      <g
         id="Compass"
         transform="translate(579.50314,755.01873)">
        <path
           style="fill:#49a942;fill-rule:evenodd"
           id="path11941"
           d="M 54.232,117.368 C 28.032,116.453 7.532,94.47 8.447,68.269 9.361,42.065 31.345,21.569 57.546,22.484 c 18.112,0.633 33.497,11.335 40.969,26.537 1.15,0.036 2.302,0.039 3.461,-0.175 C 94.225,31.979 77.475,20 57.657,19.308 29.667,18.33 6.187,40.227 5.209,68.219 c -0.976,27.986 20.918,51.468 48.909,52.446 7.593,0.264 14.851,-1.166 21.421,-3.934 -0.317,-0.983 -0.514,-2.108 -0.841,-3.215 -6.259,2.707 -13.198,4.105 -20.466,3.852 z"
           clip-rule="evenodd"
           inkscape:connector-curvature="0" />
        <g
           id="g11943">
          <circle
             d="m 87.376999,70.192001 c 0,17.511293 -14.195708,31.706999 -31.707001,31.706999 -17.511293,0 -31.707001,-14.195706 -31.707001,-31.706999 0,-17.511293 14.195708,-31.707 31.707001,-31.707 17.511293,0 31.707001,14.195707 31.707001,31.707 z"
             style="fill:#a0ce67"
             sodipodi:ry="31.707001"
             sodipodi:rx="31.707001"
             sodipodi:cy="70.192001"
             sodipodi:cx="55.669998"
             id="circle11945"
             r="31.707001"
             cy="70.192001"
             cx="55.669998" />
        </g>
        <polygon
           style="fill:#ffffff;stroke:#a0ce67;stroke-width:2;stroke-miterlimit:6"
           id="polygon11947"
           points="61.494,53.061 26.327,4.407 38.873,63.876 3.379,93.238 49.515,86.588 78.884,121.407 72.411,75.859 107.593,46.548 61.494,53.061 "
           stroke-miterlimit="6" />
        <g
           id="g11949">
          <polygon
             style="fill:#49a942;fill-rule:evenodd"
             id="polygon11951"
             points="50.561,70.082 40.388,64.431 52.106,66.806 46.326,49.022 55.255,65.431 60.669,55.451 58.606,66.663 58.606,66.663 76.371,60.624 60.143,69.772 69.983,74.904 59.123,73.172 65.45,91.554 55.707,74.987 50.335,84.403 51.976,73.643 34.388,79.515 "
             clip-rule="evenodd" />
        </g>
        <path
           style="fill:none"
           id="path11953"
           d=""
           inkscape:connector-curvature="0" />
        <path
           style="fill:none"
           id="path11955"
           d=""
           inkscape:connector-curvature="0" />
      </g>
      <g
         id="OSGeo"
         transform="translate(578.23026,757.20531)">
        <path
           style="fill:#49a942"
           id="path11930"
           d="m 107.322,56.194 c -3.566,4.801 -5.377,10.846 -5.377,17.968 0,7.564 1.772,13.854 5.276,18.699 3.521,4.875 8.465,7.348 14.698,7.348 6.825,0 12.143,-2.34 15.812,-6.949 3.649,-4.596 5.503,-11.021 5.503,-19.098 0,-7.885 -1.849,-14.122 -5.492,-18.546 -3.653,-4.443 -8.977,-6.696 -15.823,-6.696 -6.098,0 -11.005,2.45 -14.597,7.274 m 5.475,31.931 c -2.177,-3.713 -3.281,-8.412 -3.281,-13.963 0,-5.77 1.076,-10.387 3.192,-13.718 2.096,-3.295 5.197,-4.966 9.214,-4.966 9.245,0 13.737,6.111 13.737,18.685 0,6.166 -1.191,11.018 -3.538,14.416 -2.325,3.365 -5.758,5.07 -10.199,5.07 -3.904,-0.001 -6.972,-1.858 -9.125,-5.524"
           inkscape:connector-curvature="0" />
        <path
           style="fill:#49a942"
           id="path11932"
           d="m 151.834,52.611 c -2.643,2.452 -3.981,5.586 -3.981,9.312 0,3.047 0.684,5.702 2.034,7.878 1.349,2.18 3.746,4.084 7.132,5.66 l 3.946,1.847 c 3.482,1.642 5.682,3.168 6.532,4.536 0.85,1.369 1.28,2.873 1.28,4.467 0,2.123 -0.768,3.895 -2.286,5.262 -1.521,1.376 -3.571,2.076 -6.103,2.076 -1.434,0 -3.084,-0.303 -4.91,-0.909 -1.825,-0.6 -3.366,-1.358 -4.583,-2.257 l -0.286,-0.211 -2.647,6.689 0.18,0.119 c 3.111,2.076 6.912,3.129 11.299,3.129 4.999,0 9.047,-1.319 12.041,-3.922 3.006,-2.609 4.532,-5.833 4.532,-9.584 0,-3.428 -0.695,-6.295 -2.069,-8.53 -1.375,-2.234 -3.789,-4.179 -7.174,-5.778 l -4.022,-1.91 c -2.562,-1.238 -4.279,-2.205 -5.093,-2.882 -0.803,-0.661 -1.439,-1.497 -1.888,-2.481 -0.452,-0.991 -0.681,-2.104 -0.681,-3.311 0,-1.949 0.635,-3.567 1.886,-4.805 1.25,-1.24 3.003,-1.867 5.205,-1.867 1.528,0 3.22,0.303 5.023,0.895 1.801,0.596 3.155,1.218 4.029,1.849 l 0.295,0.22 2.159,-6.354 -0.141,-0.119 c -2.168,-1.795 -6.043,-2.708 -11.522,-2.708 -4.122,-0.002 -7.552,1.24 -10.187,3.689"
           inkscape:connector-curvature="0" />
        <path
           style="fill:#49a942"
           id="path11934"
           d="m 187.21,56.094 c -4.314,4.751 -6.504,11.029 -6.504,18.652 0,7.646 1.996,13.864 5.934,18.482 3.949,4.63 9.403,6.98 16.213,6.98 3.016,0 6.171,-0.477 9.371,-1.404 3.212,-0.932 5.754,-2.188 7.56,-3.723 l 0.098,-0.079 0,-21.77 -14.013,0 0,6.219 6.778,0 0,11.115 c -2.135,2.039 -4.954,3.082 -8.389,3.082 -4.91,0 -8.837,-1.713 -11.68,-5.099 -2.853,-3.396 -4.296,-7.95 -4.296,-13.532 0,-5.875 1.472,-10.656 4.379,-14.208 2.895,-3.539 6.901,-5.332 11.916,-5.332 3.152,0 6.425,1.243 9.726,3.688 l 0.26,0.192 3.013,-5.995 -0.16,-0.138 c -3.247,-2.854 -7.5,-4.305 -12.645,-4.305 -7.33,0.001 -13.24,2.417 -17.561,7.175"
           inkscape:connector-curvature="0" />
        <path
           style="fill:#49a942"
           id="path11936"
           d="m 231.083,67.17 c -3.629,3.611 -5.471,8.46 -5.471,14.418 0,5.744 1.796,10.378 5.334,13.787 3.184,3.092 7.104,4.661 11.661,4.661 3.143,0 6.028,-0.481 8.593,-1.435 2.052,-0.729 3.606,-1.61 4.612,-2.627 l 0.146,-0.148 -2.948,-5.039 -0.243,0.22 c -2.367,2.09 -5.366,3.151 -8.918,3.151 -3.104,0 -5.671,-0.967 -7.638,-2.871 -2.18,-2.141 -3.293,-5.246 -3.343,-9.209 l 25.761,0 0.054,-0.199 c 0.34,-1.203 0.512,-2.535 0.512,-3.959 0,-4.631 -1.443,-8.404 -4.299,-11.213 -2.94,-2.92 -7.048,-4.402 -12.207,-4.402 -4.451,0 -8.352,1.639 -11.606,4.865 m 4.96,3.685 c 1.854,-1.771 4.188,-2.67 6.932,-2.67 2.938,0 5.293,0.914 6.991,2.722 1.487,1.595 2.227,3.617 2.286,5.968 l -19.155,0 c 0.292,-2.367 1.248,-4.41 2.946,-6.02"
           inkscape:connector-curvature="0" />
        <path
           style="fill:#49a942"
           id="path11938"
           d="m 268.197,67.503 c -3.011,3.439 -4.538,8.007 -4.538,13.585 0,5.75 1.463,10.396 4.352,13.801 2.896,3.415 6.986,5.147 12.161,5.147 5.06,0 9.113,-1.714 12.058,-5.097 2.933,-3.373 4.418,-8.031 4.418,-13.852 0,-5.84 -1.452,-10.479 -4.318,-13.785 -2.877,-3.316 -6.965,-4.998 -12.157,-4.998 -4.927,10e-4 -8.959,1.75 -11.976,5.199 m 2.698,13.585 c 0,-4.08 0.856,-7.32 2.542,-9.63 1.67,-2.282 3.934,-3.438 6.734,-3.438 6.217,0 9.242,4.271 9.242,13.068 0,4.103 -0.834,7.377 -2.481,9.736 -1.623,2.324 -3.897,3.5 -6.761,3.5 -6.243,0 -9.276,-4.328 -9.276,-13.236"
           inkscape:connector-curvature="0" />
      </g>
      <path
         style="fill:#a0ce67"
         id="path11887"
         d="m 666.08798,869.24099 -0.869,4.748 -1.704,0 0.87,-4.748 -2.346,-8.445 1.779,0 1.172,4.459 c 0.208,0.779 0.378,1.543 0.53,2.285 l 0.019,0 c 0.437,-0.801 0.983,-1.659 1.532,-2.541 l 2.648,-4.203 1.91,0 -5.541,8.445"
         inkscape:connector-curvature="0" />
      <path
         style="fill:#a0ce67"
         id="path11889"
         d="m 672.87798,874.16699 c -2.366,0 -3.444,-1.23 -3.444,-3.459 0,-3.871 2.382,-6.607 5.448,-6.607 2.479,0 3.499,1.445 3.499,3.498 0,4.007 -2.669,6.568 -5.503,6.568 m 1.738,-8.58 c -2.061,0 -3.441,2.383 -3.441,4.828 0,1.445 0.569,2.248 1.986,2.248 1.834,0 3.443,-2.035 3.443,-4.869 0,-1.428 -0.625,-2.207 -1.988,-2.207"
         inkscape:connector-curvature="0" />
      <path
         style="fill:#a0ce67"
         id="path11891"
         d="m 686.98598,873.98899 -1.663,0 c 0.132,-0.644 0.379,-1.758 1.038,-3.828 l -0.035,0 c -0.892,2.052 -2.365,4.025 -4.333,4.025 -1.739,0 -2.345,-1.27 -1.966,-3.303 l 1.21,-6.607 1.681,0 -1.151,6.215 c -0.285,1.526 -0.018,2.191 0.813,2.191 1.739,0 3.688,-3.814 4.124,-6.217 l 0.396,-2.189 1.664,0 -1.778,9.713"
         inkscape:connector-curvature="0" />
      <path
         style="fill:#a0ce67"
         id="path11893"
         d="m 696.08398,865.80099 c -1.738,-0.51 -3.593,3.303 -4.086,6.002 l -0.396,2.186 -1.666,0 1.777,-9.713 1.629,0 c -0.153,0.84 -0.416,1.875 -0.966,3.578 l 0.037,0.02 c 1.061,-2.365 2.197,-4.085 4.011,-3.773 l -0.34,1.7"
         inkscape:connector-curvature="0" />
      <path
         style="fill:#a0ce67"
         id="path11895"
         d="m 705.44798,874.18699 c -3.084,0 -4.56,-1.798 -4.56,-4.81 0,-4.771 3.139,-8.775 7.301,-8.775 2.968,0 4.594,1.758 4.594,4.809 0,5.021 -3.29,8.776 -7.335,8.776 m 2.458,-12.004 c -3.024,0 -5.182,3.204 -5.182,6.942 0,2.129 1.019,3.457 2.968,3.457 2.894,0 5.259,-3.068 5.259,-6.979 0,-2.089 -0.982,-3.42 -3.045,-3.42"
         inkscape:connector-curvature="0" />
      <path
         style="fill:#a0ce67"
         id="path11897"
         d="m 716.69898,874.12999 c -0.472,0 -0.89,-0.042 -1.324,-0.119 l -0.871,4.809 -1.662,0 2.665,-14.543 1.666,0 c -0.169,0.84 -0.416,1.799 -1.06,3.891 l 0.04,0.02 c 0.963,-2.288 2.44,-4.105 4.37,-4.105 1.358,0 2.098,0.9 2.098,2.951 -10e-4,3.576 -1.8,7.096 -5.922,7.096 m 3.234,-8.543 c -1.777,0 -3.688,3.89 -4.124,6.176 l -0.15,0.744 c 0.397,0.135 0.965,0.232 1.363,0.232 2.763,0 3.876,-2.973 3.876,-5.374 0.001,-1.271 -0.376,-1.778 -0.965,-1.778"
         inkscape:connector-curvature="0" />
      <path
         style="fill:#a0ce67"
         id="path11899"
         d="m 725.72198,869.70799 c -0.057,0.297 -0.095,0.783 -0.095,1.135 0,1.506 0.51099,1.896 2.02399,1.896 0.888,0 1.835,-0.216 2.647,-0.565 l 0,1.409 c -0.908,0.369 -2.005,0.584 -3.234,0.584 -2.15599,0 -3.15799,-0.955 -3.15799,-3.146 0,-3.774 2.02399,-6.92 5.14499,-6.92 2.005,0 2.761,1.056 2.761,2.209 0,2.091 -2.063,3.242 -6.08999,3.398 m 3.13999,-4.28 c -1.496,0 -2.497,1.352 -2.932,2.99 2.913,-0.117 4.2,-0.721 4.2,-1.896 0.001,-0.703 -0.511,-1.094 -1.268,-1.094"
         inkscape:connector-curvature="0" />
      <path
         style="fill:#a0ce67"
         id="path11901"
         d="m 740.35997,873.98899 -1.662,0 1.152,-6.215 c 0.285,-1.524 0.02,-2.188 -0.83,-2.188 -1.741,0 -3.671,3.81 -4.105,6.217 l -0.397,2.186 -1.663,0 0.945,-5.081 c 0.245,-1.386 0.586,-3.206 0.829,-4.632 l 1.648,0 c -0.116,0.646 -0.378,1.758 -1.041,3.832 l 0.039,0 c 0.886,-2.053 2.383,-4.027 4.348,-4.027 1.739,0 2.327,1.271 1.969,3.303 l -1.232,6.605"
         inkscape:connector-curvature="0" />
      <path
         style="fill:#a0ce67"
         id="path11903"
         d="m 755.03697,862.40099 c -0.623,-0.234 -1.303,-0.314 -1.777,-0.314 -1.891,0 -2.742,1.115 -2.742,2.17 0,2.385 3.896,2.465 3.896,5.592 0,2.442 -2.082,4.339 -5.048,4.339 -0.682,0 -1.478,-0.079 -2.102,-0.274 l 0.322,-1.721 c 0.529,0.235 1.285,0.412 1.929,0.412 1.967,0 3.083,-0.998 3.083,-2.463 0,-2.287 -3.877,-2.307 -3.877,-5.474 0,-2.169 1.645,-4.065 4.709,-4.065 0.644,0 1.211,0.039 1.93,0.193 l -0.323,1.605"
         inkscape:connector-curvature="0" />
      <path
         style="fill:#a0ce67"
         id="path11905"
         d="m 759.54097,874.16699 c -2.364,0 -3.445,-1.23 -3.445,-3.459 0,-3.871 2.386,-6.607 5.45,-6.607 2.479,0 3.499,1.445 3.499,3.498 0,4.007 -2.667,6.568 -5.504,6.568 m 1.74,-8.58 c -2.062,0 -3.443,2.383 -3.443,4.828 0,1.445 0.566,2.248 1.984,2.248 1.835,0 3.442,-2.035 3.442,-4.869 0,-1.428 -0.622,-2.207 -1.983,-2.207"
         inkscape:connector-curvature="0" />
      <path
         style="fill:#a0ce67"
         id="path11907"
         d="m 773.64897,873.98899 -1.664,0 c 0.134,-0.644 0.379,-1.758 1.04,-3.828 l -0.038,0 c -0.889,2.052 -2.365,4.025 -4.329,4.025 -1.744,0 -2.349,-1.27 -1.969,-3.303 l 1.209,-6.607 1.684,0 -1.153,6.215 c -0.283,1.526 -0.02,2.191 0.816,2.191 1.737,0 3.688,-3.814 4.121,-6.217 l 0.396,-2.189 1.666,0 -1.779,9.713"
         inkscape:connector-curvature="0" />
      <path
         style="fill:#a0ce67"
         id="path11909"
         d="m 782.72797,865.80099 c -1.739,-0.51 -3.593,3.303 -4.088,6.002 l -0.393,2.186 -1.667,0 1.778,-9.713 1.627,0 c -0.151,0.84 -0.417,1.875 -0.965,3.578 l 0.037,0.02 c 1.059,-2.365 2.195,-4.085 4.011,-3.773 l -0.34,1.7"
         inkscape:connector-curvature="0" />
      <path
         style="fill:#a0ce67"
         id="path11911"
         d="m 789.95197,865.93699 c -0.511,-0.235 -1.057,-0.372 -1.722,-0.372 -2.382,0 -3.497,2.776 -3.497,4.986 0,1.014 0.319,2.053 1.968,2.053 0.735,0 1.529,-0.177 2.118,-0.469 l -0.115,1.543 c -0.66,0.254 -1.531,0.468 -2.479,0.468 -2.438,0 -3.27,-1.366 -3.27,-3.204 0,-3.714 2.024,-6.822 5.389,-6.822 0.777,0 1.399,0.117 1.987,0.291 l -0.379,1.526"
         inkscape:connector-curvature="0" />
      <path
         style="fill:#a0ce67"
         id="path11913"
         d="m 792.61897,869.70799 c -0.057,0.297 -0.094,0.783 -0.094,1.135 0,1.506 0.51,1.896 2.026,1.896 0.884,0 1.832,-0.216 2.646,-0.565 l 0,1.409 c -0.907,0.369 -2.005,0.584 -3.234,0.584 -2.155,0 -3.157,-0.955 -3.157,-3.146 0,-3.774 2.022,-6.92 5.142,-6.92 2.006,0 2.763,1.056 2.763,2.209 -10e-4,2.091 -2.063,3.242 -6.092,3.398 m 3.14,-4.28 c -1.494,0 -2.496,1.352 -2.931,2.99 2.91,-0.117 4.198,-0.721 4.198,-1.896 0,-0.703 -0.511,-1.094 -1.267,-1.094"
         inkscape:connector-curvature="0" />
      <path
         style="fill:#a0ce67"
         id="path11915"
         d="m 813.97297,862.71199 c -0.889,-0.332 -1.778,-0.469 -2.649,-0.469 -3.705,0 -5.199,3.753 -5.199,7.076 0,1.896 0.757,3.227 3.215,3.227 1.059,0 2.098,-0.235 2.969,-0.646 l -0.076,1.623 c -1.019,0.391 -2.212,0.624 -3.402,0.624 -3.65,0 -4.597,-2.208 -4.597,-4.533 0,-4.614 2.514,-8.935 7.337,-8.935 1.078,0 1.986,0.158 2.818,0.394 l -0.416,1.639"
         inkscape:connector-curvature="0" />
      <path
         style="fill:#a0ce67"
         id="path11917"
         d="m 817.62597,874.16699 c -2.366,0 -3.443,-1.23 -3.443,-3.459 0,-3.871 2.382,-6.607 5.447,-6.607 2.477,0 3.498,1.445 3.498,3.498 0,4.007 -2.664,6.568 -5.502,6.568 m 1.737,-8.58 c -2.061,0 -3.439,2.383 -3.439,4.828 0,1.445 0.564,2.248 1.982,2.248 1.837,0 3.442,-2.035 3.442,-4.869 0,-1.428 -0.621,-2.207 -1.985,-2.207"
         inkscape:connector-curvature="0" />
      <path
         style="fill:#a0ce67"
         id="path11919"
         d="m 837.44597,873.98899 -1.684,0 1.154,-6.215 c 0.284,-1.524 0.019,-2.209 -0.757,-2.209 -1.608,0 -3.574,3.599 -4.066,6.238 l -0.396,2.186 -1.665,0 1.153,-6.215 c 0.284,-1.524 0.037,-2.209 -0.776,-2.209 -1.588,0 -3.555,3.599 -4.047,6.238 l -0.397,2.186 -1.662,0 0.943,-5.081 c 0.266,-1.446 0.588,-3.206 0.831,-4.632 l 1.647,0 c -0.111,0.646 -0.379,1.779 -1.041,3.832 l 0.039,0 c 0.868,-2.033 2.344,-4.027 4.274,-4.027 1.21,0 1.892,0.684 1.892,1.895 0,0.606 -0.152,1.174 -0.454,2.15 l 0.037,0.02 c 0.87,-2.09 2.346,-4.064 4.275,-4.064 1.702,0 2.288,1.271 1.908,3.303 l -1.208,6.604"
         inkscape:connector-curvature="0" />
      <path
         style="fill:#a0ce67"
         id="path11921"
         d="m 843.25397,874.12999 c -0.473,0 -0.892,-0.042 -1.324,-0.119 l -0.872,4.809 -1.663,0 2.668,-14.543 1.661,0 c -0.167,0.84 -0.416,1.799 -1.057,3.891 l 0.035,0.02 c 0.968,-2.288 2.441,-4.105 4.372,-4.105 1.36,0 2.097,0.9 2.097,2.951 0,3.576 -1.794,7.096 -5.917,7.096 m 3.234,-8.543 c -1.779,0 -3.689,3.89 -4.126,6.176 l -0.151,0.744 c 0.397,0.135 0.967,0.232 1.362,0.232 2.764,0 3.88,-2.973 3.88,-5.374 0,-1.271 -0.379,-1.778 -0.965,-1.778"
         inkscape:connector-curvature="0" />
      <path
         style="fill:#a0ce67"
         id="path11923"
         d="m 857.51297,873.98899 -1.683,0 c 0.171,-0.837 0.529,-2.129 1.098,-3.947 l -0.039,-0.017 c -0.681,1.503 -2.1,4.162 -4.386,4.162 -1.362,0 -2.102,-0.9 -2.102,-2.952 0,-3.579 1.796,-7.115 5.901,-7.115 1.077,0 2.079,0.117 2.952,0.295 -1.002,5.433 -1.344,7.25 -1.741,9.574 m -1.495,-8.48 c -2.798,0 -3.895,2.988 -3.895,5.393 0,1.272 0.38,1.781 0.965,1.781 1.776,0 3.706,-3.891 4.141,-6.217 l 0.136,-0.779 c -0.381,-0.1 -0.815,-0.178 -1.347,-0.178"
         inkscape:connector-curvature="0" />
      <path
         style="fill:#a0ce67"
         id="path11925"
         d="m 866.11997,865.66499 c -0.456,-0.156 -0.945,-0.236 -1.416,-0.236 -1.232,0 -1.876,0.605 -1.876,1.428 0,1.545 2.855,1.953 2.855,4.145 0,1.621 -1.379,3.166 -4.047,3.166 -0.624,0 -1.136,-0.037 -1.607,-0.138 l 0.302,-1.562 c 0.492,0.154 1.001,0.254 1.532,0.254 1.229,0 2.061,-0.509 2.061,-1.525 0,-1.543 -2.837,-1.8 -2.837,-4.145 0,-1.664 1.287,-2.951 3.727,-2.951 0.663,0 1.137,0.059 1.61,0.137 l -0.304,1.427"
         inkscape:connector-curvature="0" />
      <path
         style="fill:#a0ce67"
         id="path11927"
         d="m 873.23197,865.66499 c -0.456,-0.156 -0.945,-0.236 -1.421,-0.236 -1.229,0 -1.872,0.605 -1.872,1.428 0,1.545 2.855,1.953 2.855,4.145 0,1.621 -1.378,3.166 -4.045,3.166 -0.624,0 -1.138,-0.037 -1.61,-0.138 l 0.305,-1.562 c 0.49,0.154 1.002,0.254 1.529,0.254 1.229,0 2.064,-0.509 2.064,-1.525 0,-1.543 -2.84,-1.8 -2.84,-4.145 0,-1.664 1.288,-2.951 3.727,-2.951 0.663,0 1.135,0.059 1.607,0.137 l -0.299,1.427"
         inkscape:connector-curvature="0" />
    </g>
  </g>
  <g
     inkscape:groupmode="layer"
     id="layer3"
     inkscape:label="markings"
     style="display:inline">
    <text
       xml:space="preserve"
       style="font-size:12px;font-style:normal;font-weight:normal;fill:#000000;fill-opacity:1;stroke:none;display:inline;font-family:Bitstream Vera Sans"
       x="911.47784"
       y="15.027878"
       id="text2196"
       inkscape:export-filename="/tmp/1.png"
       inkscape:export-xdpi="400.01047"
       inkscape:export-ydpi="400.01047"><tspan
         sodipodi:role="line"
         id="tspan2198"
         x="911.47784"
         y="15.027878">Flyer title</tspan></text>
    <path
       style="fill:none;stroke:#000000;stroke-width:1px;stroke-linecap:butt;stroke-linejoin:miter;stroke-opacity:1;display:inline"
       d="M 1084.252,-2.9404297e-05 L 1084.252,17.716511"
       id="path2218"
       inkscape:export-filename="/tmp/1.png"
       inkscape:export-xdpi="400.01047"
       inkscape:export-ydpi="400.01047" />
    <path
       style="fill:none;stroke:#000000;stroke-width:1px;stroke-linecap:butt;stroke-linejoin:miter;stroke-opacity:1;display:inline"
       d="M 822.04724,-2.9404297e-05 L 822.04724,17.716511"
       id="path2220"
       inkscape:export-filename="/tmp/1.png"
       inkscape:export-xdpi="400.01047"
       inkscape:export-ydpi="400.01047" />
    <path
       style="fill:none;stroke:#000000;stroke-width:1px;stroke-linecap:butt;stroke-linejoin:miter;stroke-opacity:1;display:inline"
       d="M 559.84252,-2.9404297e-05 L 559.84252,17.716511"
       id="path2222"
       inkscape:export-filename="/tmp/1.png"
       inkscape:export-xdpi="400.01047"
       inkscape:export-ydpi="400.01047" />
    <text
       xml:space="preserve"
       style="font-size:12px;font-style:normal;font-weight:normal;fill:#000000;fill-opacity:1;stroke:none;display:inline;font-family:Bitstream Vera Sans"
       x="104.60896"
       y="13.9238"
       id="text2200"
       inkscape:export-filename="/tmp/1.png"
       inkscape:export-xdpi="400.01047"
       inkscape:export-ydpi="400.01047"><tspan
         sodipodi:role="line"
         id="tspan2202"
         x="104.60896"
         y="13.9238">Flyer back</tspan></text>
    <path
       style="fill:none;stroke:#000000;stroke-width:1px;stroke-linecap:butt;stroke-linejoin:miter;stroke-opacity:1;display:inline"
       d="M 35.433071,-2.9404297e-05 L 35.433071,17.716511"
       id="path2204"
       inkscape:export-filename="/tmp/1.png"
       inkscape:export-xdpi="400.01047"
       inkscape:export-ydpi="400.01047" />
    <path
       style="fill:none;stroke:#000000;stroke-width:1px;stroke-linecap:butt;stroke-linejoin:miter;stroke-opacity:1;display:inline"
       d="M 297.6378,-2.9404297e-05 L 297.6378,17.716511"
       id="path2224"
       inkscape:export-filename="/tmp/1.png"
       inkscape:export-xdpi="400.01047"
       inkscape:export-ydpi="400.01047" />
    <path
       style="fill:none;stroke:#000000;stroke-width:1px;stroke-linecap:butt;stroke-linejoin:miter;stroke-opacity:1;display:inline"
       d="M 17.716535,35.433051 L 0,35.433051"
       id="path2206"
       inkscape:export-filename="/tmp/1.png"
       inkscape:export-xdpi="400.01047"
       inkscape:export-ydpi="400.01047" />
    <path
       style="fill:none;stroke:#000000;stroke-width:1px;stroke-linecap:butt;stroke-linejoin:miter;stroke-opacity:1;display:inline"
       d="M 17.716535,407.48029 L 0,407.48029"
       id="path2208"
       inkscape:export-filename="/tmp/1.png"
       inkscape:export-xdpi="400.01047"
       inkscape:export-ydpi="400.01047" />
    <path
       style="fill:none;stroke:#000000;stroke-width:1px;stroke-linecap:butt;stroke-linejoin:miter;stroke-opacity:1;display:inline"
       d="M 35.433071,425.19683 L 35.433071,442.91336"
       id="path2210"
       inkscape:export-filename="/tmp/1.png"
       inkscape:export-xdpi="400.01047"
       inkscape:export-ydpi="400.01047" />
    <path
       style="fill:none;stroke:#000000;stroke-width:1px;stroke-linecap:butt;stroke-linejoin:miter;stroke-opacity:1;display:inline"
       d="M 297.6378,425.19683 L 297.6378,442.91336"
       id="path2226"
       inkscape:export-filename="/tmp/1.png"
       inkscape:export-xdpi="400.01047"
       inkscape:export-ydpi="400.01047" />
    <path
       style="fill:none;stroke:#000000;stroke-width:1px;stroke-linecap:butt;stroke-linejoin:miter;stroke-opacity:1;display:inline"
       d="M 559.84252,425.19683 L 559.84252,442.91336"
       id="path2228"
       inkscape:export-filename="/tmp/1.png"
       inkscape:export-xdpi="400.01047"
       inkscape:export-ydpi="400.01047" />
    <path
       style="fill:none;stroke:#000000;stroke-width:1px;stroke-linecap:butt;stroke-linejoin:miter;stroke-opacity:1;display:inline"
       d="M 822.04724,425.19683 L 822.04724,442.91336"
       id="path2230"
       inkscape:export-filename="/tmp/1.png"
       inkscape:export-xdpi="400.01047"
       inkscape:export-ydpi="400.01047" />
    <path
       style="fill:none;stroke:#000000;stroke-width:1px;stroke-linecap:butt;stroke-linejoin:miter;stroke-opacity:1;display:inline"
       d="M 1084.252,425.19683 L 1084.252,442.91336"
       id="path2212"
       inkscape:export-filename="/tmp/1.png"
       inkscape:export-xdpi="400.01047"
       inkscape:export-ydpi="400.01047" />
    <path
       style="fill:none;stroke:#000000;stroke-width:1px;stroke-linecap:butt;stroke-linejoin:miter;stroke-opacity:1;display:inline"
       d="M 1119.685,407.48029 L 1101.9685,407.48029"
       id="path2214"
       inkscape:export-filename="/tmp/1.png"
       inkscape:export-xdpi="400.01047"
       inkscape:export-ydpi="400.01047" />
    <path
       style="fill:none;stroke:#000000;stroke-width:1px;stroke-linecap:butt;stroke-linejoin:miter;stroke-opacity:1;display:inline"
       d="M 1119.685,35.433051 L 1101.9685,35.433051"
       id="path2216"
       inkscape:export-filename="/tmp/1.png"
       inkscape:export-xdpi="400.01047"
       inkscape:export-ydpi="400.01047" />
  </g>
  <g
     inkscape:groupmode="layer"
     id="layer2"
     inkscape:label="mask_all"
     style="opacity:0.85;display:none">
    <path
       style="fill:#000000;fill-opacity:1;fill-rule:nonzero;stroke:none"
       d="m -200,-164.5625 0,106.78125 0,93.21875 0,437.6875 0,134.34375 1520,0 0,-125.25 0,-74.75 0,-372.03125 0,-146.09375 0,-53.90625 -1520,0 0,0 z m 235.4375,200 1048.8125,0 0,372.03125 -1048.8125,0 0,-372.03125 z"
       id="rect3834"
       inkscape:connector-curvature="0" />
  </g>
  <g
     inkscape:groupmode="layer"
     id="layer4"
     inkscape:label="mask_front"
     style="opacity:0.85;display:none">
    <path
       style="fill:#000000;fill-opacity:1;fill-rule:nonzero;stroke:none;display:inline"
       d="m -200,-164.5625 0,106.78125 0,93.21875 0,437.6875 0,134.34375 1520,0 0,-125.25 0,-74.75 0,-372.03125 0,-146.09375 0,-53.90625 -1520,0 z m 1022.0625,200 262.1875,0 0,372.03125 -262.1875,0 0,-372.03125 z"
       id="path3897" />
  </g>
</svg>
