<?xml version="1.0" encoding="UTF-8"?>
<svg xmlns:xs="http://www.w3.org/2001/XMLSchema" xmlns:xlink="http://www.w3.org/1999/xlink" xmlns:inkscape="http://www.inkscape.org/namespaces/inkscape" xmlns:rdf="http://www.w3.org/1999/02/22-rdf-syntax-ns#" xmlns="http://www.w3.org/2000/svg" xmlns:svg="http://www.w3.org/2000/svg" xmlns:xi="http://www.w3.org/2001/XInclude" xmlns:cc="http://web.resource.org/cc/" xmlns:dc="http://purl.org/dc/elements/1.1/" version="1.1" baseProfile="full" width="18.64" id="parking" viewBox="0 0 20 20" stroke="none" fill-opacity="1" fill-rule="nonzero" height="18.64">
   <svg:g transform="translate(0,10)">
            <svg:rect fill="blue" width="20" height="20" x="0" y="-10" rx="4" ry="4"/>
            <svg:path fill="white" d="M 5,8 L 5,-7 L 12,-7 C 14,-7 15.5,-5.3 16,-4 C 16.5,-2.77 16.5,-1.23 16,0 C 15.41,1.42 14,3 12,3 L 8,3 L 8,8 L 5,8 z M 8,-4 L 8,0 C 9.3,0 11,0 12.32,-0.31 C 13.6,-0.76 13.5,-2.8 12.5,-3.48 C 11.5,-4.1 8.6,-4 8,-4 z "/>
          </svg:g>
</svg>