<?xml version="1.0" encoding="UTF-8"?>
<svg xmlns:xs="http://www.w3.org/2001/XMLSchema" xmlns:xlink="http://www.w3.org/1999/xlink" xmlns:inkscape="http://www.inkscape.org/namespaces/inkscape" xmlns:rdf="http://www.w3.org/1999/02/22-rdf-syntax-ns#" xmlns="http://www.w3.org/2000/svg" xmlns:svg="http://www.w3.org/2000/svg" xmlns:xi="http://www.w3.org/2001/XInclude" xmlns:cc="http://web.resource.org/cc/" xmlns:dc="http://purl.org/dc/elements/1.1/" version="1.1" baseProfile="full" width="13.98" id="symbol-restaurant" viewBox="0 0 115 115" fill="black" stroke="none" height="13.98">
   <svg:g transform="translate(2.5,0)">
            <svg:path d="M 94,4 C 90,0 74,18 67,26 C 65,28 62,32 68,38 C 15,89 5,96 12,103 C 19,110 26,100 76,46 C 82,52 87,49 89,47 C 97,40 114,24 110,20 C 106,16 91,40 87,37 C 83,24 106,16 102,12 C 98,8 81,33 77,29 C 73,25 98,8 94,4 z"/>
            <svg:path d="M 35,33 C 79,81 98,96 90,103 C 81,111 70,91 26,42 C 6,57 -9,16 1,6 C 11,-6 55,13 35,33 z"/>
          </svg:g>
</svg>